<?xml version="1.0" encoding="utf-8"?>
<!-- Generator: Adobe Illustrator 16.0.0, SVG Export Plug-In . SVG Version: 6.00 Build 0)  -->
<!DOCTYPE svg PUBLIC "-//W3C//DTD SVG 1.1//EN" "http://www.w3.org/Graphics/SVG/1.1/DTD/svg11.dtd">
<svg version="1.1" id="Calque_1" xmlns="http://www.w3.org/2000/svg" xmlns:xlink="http://www.w3.org/1999/xlink" x="0px" y="0px"
	 width="21px" height="65px" viewBox="0 0 21 65" enable-background="new 0 0 21 65" xml:space="preserve">
<path fill="#7270B1" d="M10.5,42.5L10.5,42.5c-5.523,0-10-4.478-10-10c0-5.523,4.477-10,10-10s10,4.477,10,10
	C20.5,38.022,16.023,42.5,10.5,42.5"/>
<path fill="none" stroke="#7270B1" stroke-miterlimit="10" d="M10.5,42.5L10.5,42.5c-5.523,0-10-4.478-10-10c0-5.523,4.477-10,10-10
	s10,4.477,10,10C20.5,38.022,16.023,42.5,10.5,42.5z"/>
<polygon fill="#FFFFFF" points="13.283,37.147 7.503,37.147 7.195,30.003 13.59,30.003 "/>
<path fill="#FFFFFF" d="M11.123,28.987h-1.46c-0.437,0-0.79-0.354-0.79-0.79v-0.42c0-0.436,0.353-0.79,0.79-0.79h1.46
	c0.436,0,0.79,0.354,0.79,0.79v0.42C11.913,28.634,11.559,28.987,11.123,28.987"/>
<path fill="#FFFFFF" d="M13.932,28.987H6.854c-0.255,0-0.462-0.207-0.462-0.462v-0.077c0-0.254,0.207-0.461,0.462-0.461h7.077
	c0.255,0,0.461,0.207,0.461,0.461v0.077C14.393,28.78,14.187,28.987,13.932,28.987"/>
<path fill="none" stroke="#FFFFFF" stroke-miterlimit="10" d="M10.5,64.5L10.5,64.5c-5.523,0-10-4.478-10-10c0-5.523,4.477-10,10-10
	s10,4.477,10,10C20.5,60.022,16.023,64.5,10.5,64.5z"/>
<path fill="#FFFFFF" d="M11.123,50.987h-1.46c-0.437,0-0.79-0.354-0.79-0.789v-0.42c0-0.437,0.353-0.791,0.79-0.791h1.46
	c0.436,0,0.79,0.354,0.79,0.791v0.42C11.913,50.634,11.559,50.987,11.123,50.987"/>
<path fill="none" stroke="#7270B1" stroke-miterlimit="10" d="M10.5,20.479L10.5,20.479c-5.523,0-10-4.478-10-10
	c0-5.523,4.477-10,10-10c5.523,0,10,4.477,10,10C20.5,16.001,16.023,20.479,10.5,20.479z"/>
<polygon fill="#7270B1" points="10.33,13.833 6.331,9.833 14.33,9.833 "/>
<line fill="none" stroke="#7270B1" stroke-width="2" stroke-miterlimit="10" x1="5.559" y1="15.833" x2="15.559" y2="15.833"/>
<rect x="8.525" y="4.466" fill="#7270B1" width="4" height="6"/>
<path fill="#7270B1" d="M10.559,42.5L10.559,42.5c-5.522,0-10-4.478-10-10c0-5.523,4.477-10,10-10c5.523,0,10,4.477,10,10
	C20.559,38.022,16.082,42.5,10.559,42.5"/>
<path fill="none" stroke="#7270B1" stroke-miterlimit="10" d="M10.559,42.5L10.559,42.5c-5.522,0-10-4.478-10-10
	c0-5.523,4.477-10,10-10c5.523,0,10,4.477,10,10C20.559,38.022,16.082,42.5,10.559,42.5z"/>
<line fill="none" stroke="#FFFFFF" stroke-width="2" stroke-miterlimit="10" x1="5.67" y1="37.914" x2="15.67" y2="37.914"/>
<polygon fill="#FFFFFF" points="10.156,35.914 6.156,31.914 14.156,31.914 "/>
<rect x="8.357" y="26.487" fill="#FFFFFF" width="4" height="6"/>
<path fill="none" stroke="#FFFFFF" stroke-miterlimit="10" d="M10.5,64.5L10.5,64.5c-5.523,0-10-4.478-10-10c0-5.523,4.477-10,10-10
	c5.523,0,10,4.477,10,10C20.5,60.022,16.023,64.5,10.5,64.5z"/>
<line fill="none" stroke="#FFFFFF" stroke-width="2" stroke-miterlimit="10" x1="5.611" y1="59.914" x2="15.61" y2="59.914"/>
<polygon fill="#FFFFFF" points="10.097,57.914 6.097,53.914 14.097,53.914 "/>
<rect x="8.299" y="48.487" fill="#FFFFFF" width="4" height="6"/>
</svg>
