<?xml version="1.0" encoding="UTF-8" standalone="no"?>
<!-- Generator: Adobe Illustrator 18.0.0, SVG Export Plug-In . SVG Version: 6.00 Build 0)  -->

<svg
   xmlns:dc="http://purl.org/dc/elements/1.1/"
   xmlns:cc="http://creativecommons.org/ns#"
   xmlns:rdf="http://www.w3.org/1999/02/22-rdf-syntax-ns#"
   xmlns:svg="http://www.w3.org/2000/svg"
   xmlns="http://www.w3.org/2000/svg"
   xmlns:sodipodi="http://sodipodi.sourceforge.net/DTD/sodipodi-0.dtd"
   xmlns:inkscape="http://www.inkscape.org/namespaces/inkscape"
   version="1.1"
   id="Calque_1"
   x="0px"
   y="0px"
   viewBox="0 0 466.33923 56.4"
   enable-background="new 0 0 840 160"
   xml:space="preserve"
   inkscape:version="0.48.2 r9819"
   width="100%"
   height="100%"
   sodipodi:docname="gmail_import.svg"><metadata
   id="metadata93"><rdf:RDF><cc:Work
       rdf:about=""><dc:format>image/svg+xml</dc:format><dc:type
         rdf:resource="http://purl.org/dc/dcmitype/StillImage" /></cc:Work></rdf:RDF></metadata><defs
   id="defs91">
	
	
	
	
</defs><sodipodi:namedview
   pagecolor="#ffffff"
   bordercolor="#666666"
   borderopacity="1"
   objecttolerance="10"
   gridtolerance="10"
   guidetolerance="10"
   inkscape:pageopacity="0"
   inkscape:pageshadow="2"
   inkscape:window-width="640"
   inkscape:window-height="480"
   id="namedview89"
   showgrid="false"
   fit-margin-top="0"
   fit-margin-left="0"
   fit-margin-right="0"
   fit-margin-bottom="0"
   inkscape:zoom="0.4"
   inkscape:cx="94.9"
   inkscape:cy="10.4"
   inkscape:window-x="115"
   inkscape:window-y="216"
   inkscape:window-maximized="0"
   inkscape:current-layer="Calque_1" />
<g
   id="g9"
   transform="translate(-325.1,-34)">
		<g
   id="g11">
			<g
   id="g13">
				<g
   id="g15">
					<path
   style="fill:#ffffff"
   inkscape:connector-curvature="0"
   id="path17"
   d="m 325.1,77.4 c 0,-0.7 0.4,-1 1.1,-1 0.7,0 1.1,0.3 1.1,1 0,0.3 -0.1,0.6 -0.3,0.8 -0.2,0.2 -0.5,0.3 -0.9,0.3 -0.6,-0.1 -1,-0.4 -1,-1.1 z m 2.2,9.6 h -2.1 v -7.6 h 2.1 V 87 z" />
					<path
   style="fill:#ffffff"
   inkscape:connector-curvature="0"
   id="path19"
   d="m 336.3,87 h -2.1 v -4.5 c 0,-0.6 -0.1,-1 -0.3,-1.2 -0.2,-0.3 -0.5,-0.4 -0.9,-0.4 -0.5,0 -0.9,0.2 -1.2,0.6 -0.2,0.4 -0.4,1 -0.4,1.9 V 87 h -2.1 v -7.6 h 1.6 l 0.3,1 h 0.1 c 0.2,-0.4 0.5,-0.6 0.9,-0.8 0.4,-0.2 0.8,-0.3 1.3,-0.3 1.1,0 1.9,0.4 2.3,1.1 h 0.2 c 0.2,-0.4 0.5,-0.6 0.9,-0.8 0.4,-0.2 0.8,-0.3 1.4,-0.3 0.9,0 1.5,0.2 2,0.7 0.4,0.4 0.7,1.2 0.7,2.1 v 5 h -2 v -4.5 c 0,-0.6 -0.1,-1 -0.3,-1.2 -0.2,-0.3 -0.5,-0.4 -0.9,-0.4 -0.5,0 -0.9,0.2 -1.1,0.5 -0.3,0.4 -0.4,0.9 -0.4,1.7 V 87 z" />
					<path
   style="fill:#ffffff"
   inkscape:connector-curvature="0"
   id="path21"
   d="m 347.4,87.1 c -0.9,0 -1.6,-0.3 -2.1,-1 h -0.1 c 0.1,0.6 0.1,1 0.1,1.1 v 3.1 h -2.1 v -11 h 1.7 l 0.3,1 h 0.1 c 0.5,-0.8 1.2,-1.1 2.2,-1.1 0.9,0 1.6,0.3 2.1,1 0.5,0.7 0.8,1.7 0.8,2.9 0,0.8 -0.1,1.5 -0.4,2.1 -0.3,0.6 -0.6,1.1 -1,1.4 -0.4,0.3 -1,0.5 -1.6,0.5 z m -0.6,-6.2 c -0.5,0 -0.9,0.2 -1.1,0.5 -0.2,0.3 -0.4,0.8 -0.4,1.6 v 0.2 c 0,0.8 0.1,1.4 0.4,1.8 0.3,0.4 0.6,0.5 1.2,0.5 0.9,0 1.4,-0.8 1.4,-2.3 0,-0.8 -0.1,-1.3 -0.3,-1.7 -0.4,-0.4 -0.7,-0.6 -1.2,-0.6 z" />
					<path
   style="fill:#ffffff"
   inkscape:connector-curvature="0"
   id="path23"
   d="m 359,83.2 c 0,1.2 -0.3,2.2 -1,2.9 -0.7,0.7 -1.6,1.1 -2.7,1.1 -0.7,0 -1.4,-0.2 -1.9,-0.5 -0.6,-0.3 -1,-0.8 -1.3,-1.4 -0.3,-0.6 -0.5,-1.3 -0.5,-2.1 0,-1.2 0.3,-2.2 1,-2.9 0.7,-0.7 1.6,-1 2.7,-1 0.7,0 1.4,0.2 1.9,0.5 0.5,0.3 1,0.8 1.3,1.4 0.4,0.5 0.5,1.2 0.5,2 z m -5.3,0 c 0,0.8 0.1,1.3 0.4,1.7 0.2,0.4 0.7,0.6 1.2,0.6 0.6,0 1,-0.2 1.2,-0.6 0.2,-0.4 0.4,-1 0.4,-1.7 0,-0.8 -0.1,-1.3 -0.4,-1.7 -0.2,-0.4 -0.6,-0.6 -1.2,-0.6 -0.6,0 -1,0.2 -1.2,0.6 -0.2,0.3 -0.4,0.9 -0.4,1.7 z" />
					<path
   style="fill:#ffffff"
   inkscape:connector-curvature="0"
   id="path25"
   d="m 365,79.2 c 0.3,0 0.5,0 0.7,0.1 l -0.2,2 c -0.2,0 -0.4,-0.1 -0.6,-0.1 -0.7,0 -1.2,0.2 -1.6,0.5 -0.4,0.3 -0.6,0.8 -0.6,1.4 V 87 h -2.1 v -7.6 h 1.6 l 0.3,1.3 h 0.1 c 0.2,-0.4 0.6,-0.8 1,-1 0.5,-0.3 0.9,-0.5 1.4,-0.5 z" />
					<path
   style="fill:#ffffff"
   inkscape:connector-curvature="0"
   id="path27"
   d="m 370.3,85.5 c 0.4,0 0.8,-0.1 1.3,-0.2 v 1.6 c -0.5,0.2 -1.2,0.3 -1.9,0.3 -0.8,0 -1.4,-0.2 -1.8,-0.6 -0.4,-0.4 -0.6,-1.1 -0.6,-1.9 V 81 h -1 v -0.9 l 1.1,-0.7 0.6,-1.6 h 1.3 v 1.6 h 2.1 V 81 h -2.1 v 3.7 c 0,0.3 0.1,0.5 0.2,0.7 0.3,0 0.5,0.1 0.8,0.1 z" />
					<path
   style="fill:#ffffff"
   inkscape:connector-curvature="0"
   id="path29"
   d="m 375.7,79.4 h 2.3 l 1.4,4.3 c 0.1,0.4 0.2,0.8 0.3,1.3 h 0 c 0.1,-0.5 0.1,-0.9 0.3,-1.3 l 1.4,-4.3 h 2.2 l -3.2,8.6 c -0.3,0.8 -0.7,1.4 -1.3,1.8 -0.6,0.4 -1.2,0.6 -1.9,0.6 -0.4,0 -0.7,0 -1.1,-0.1 v -1.7 c 0.3,0.1 0.5,0.1 0.8,0.1 0.4,0 0.7,-0.1 1,-0.3 0.3,-0.2 0.5,-0.6 0.6,-1 l 0.1,-0.4 -2.9,-7.6 z" />
					<path
   style="fill:#ffffff"
   inkscape:connector-curvature="0"
   id="path31"
   d="m 391.7,83.2 c 0,1.2 -0.3,2.2 -1,2.9 -0.7,0.7 -1.6,1.1 -2.7,1.1 -0.7,0 -1.4,-0.2 -1.9,-0.5 -0.6,-0.3 -1,-0.8 -1.3,-1.4 -0.3,-0.6 -0.5,-1.3 -0.5,-2.1 0,-1.2 0.3,-2.2 1,-2.9 0.7,-0.7 1.6,-1 2.7,-1 0.7,0 1.4,0.2 1.9,0.5 0.5,0.3 1,0.8 1.3,1.4 0.4,0.5 0.5,1.2 0.5,2 z m -5.3,0 c 0,0.8 0.1,1.3 0.4,1.7 0.2,0.4 0.7,0.6 1.2,0.6 0.6,0 1,-0.2 1.2,-0.6 0.2,-0.4 0.4,-1 0.4,-1.7 0,-0.8 -0.1,-1.3 -0.4,-1.7 -0.2,-0.4 -0.6,-0.6 -1.2,-0.6 -0.6,0 -1,0.2 -1.2,0.6 -0.2,0.3 -0.4,0.9 -0.4,1.7 z" />
					<path
   style="fill:#ffffff"
   inkscape:connector-curvature="0"
   id="path33"
   d="m 398.9,87 -0.3,-1 h -0.1 c -0.2,0.4 -0.5,0.6 -1,0.8 -0.4,0.2 -0.9,0.3 -1.4,0.3 -0.9,0 -1.6,-0.2 -2,-0.7 -0.4,-0.5 -0.7,-1.2 -0.7,-2.1 v -5 h 2.1 v 4.5 c 0,0.6 0.1,1 0.3,1.2 0.2,0.2 0.5,0.4 0.9,0.4 0.6,0 1,-0.2 1.3,-0.6 0.3,-0.4 0.4,-1 0.4,-1.9 v -3.6 h 2.1 V 87 h -1.6 z" />
					<path
   style="fill:#ffffff"
   inkscape:connector-curvature="0"
   id="path35"
   d="m 406.9,79.2 c 0.3,0 0.5,0 0.7,0.1 l -0.2,2 c -0.2,0 -0.4,-0.1 -0.6,-0.1 -0.7,0 -1.2,0.2 -1.6,0.5 -0.4,0.3 -0.6,0.8 -0.6,1.4 V 87 h -2.1 v -7.6 h 1.6 l 0.3,1.3 h 0.1 c 0.2,-0.4 0.6,-0.8 1,-1 0.5,-0.3 0.9,-0.5 1.4,-0.5 z" />
					<path
   style="fill:#ffffff"
   inkscape:connector-curvature="0"
   id="path37"
   d="m 416.6,81.4 h 4 v 5.2 c -0.6,0.2 -1.2,0.4 -1.8,0.4 -0.6,0.1 -1.1,0.1 -1.7,0.1 -1.5,0 -2.7,-0.4 -3.5,-1.3 -0.8,-0.9 -1.2,-2.2 -1.2,-3.8 0,-1.6 0.5,-2.9 1.4,-3.8 0.9,-0.9 2.2,-1.4 3.8,-1.4 1,0 2,0.2 3,0.6 l -0.7,1.7 c -0.7,-0.4 -1.5,-0.5 -2.3,-0.5 -0.9,0 -1.6,0.3 -2.2,0.9 -0.6,0.6 -0.8,1.4 -0.8,2.5 0,1.1 0.2,1.9 0.7,2.5 0.5,0.6 1.1,0.9 1.9,0.9 0.4,0 0.9,0 1.3,-0.1 v -2.1 h -1.9 v -1.8 z" />
					<path
   style="fill:#ffffff"
   inkscape:connector-curvature="0"
   id="path39"
   d="m 429.6,87 h -2.1 v -4.5 c 0,-0.6 -0.1,-1 -0.3,-1.2 -0.2,-0.3 -0.5,-0.4 -0.9,-0.4 -0.5,0 -0.9,0.2 -1.2,0.6 -0.2,0.4 -0.4,1 -0.4,1.9 V 87 h -2.1 v -7.6 h 1.6 l 0.3,1 h 0.1 c 0.2,-0.4 0.5,-0.6 0.9,-0.8 0.4,-0.2 0.8,-0.3 1.3,-0.3 1.1,0 1.9,0.4 2.3,1.1 h 0.2 c 0.2,-0.4 0.5,-0.6 0.9,-0.8 0.4,-0.2 0.8,-0.3 1.4,-0.3 0.9,0 1.5,0.2 2,0.7 0.4,0.4 0.7,1.2 0.7,2.1 v 5 h -2.1 v -4.5 c 0,-0.6 -0.1,-1 -0.3,-1.2 -0.2,-0.3 -0.5,-0.4 -0.9,-0.4 -0.5,0 -0.9,0.2 -1.1,0.5 -0.3,0.4 -0.4,0.9 -0.4,1.7 V 87 z" />
					<path
   style="fill:#ffffff"
   inkscape:connector-curvature="0"
   id="path41"
   d="M 441.4,87 441,86 h -0.1 c -0.4,0.4 -0.7,0.7 -1.1,0.9 -0.4,0.2 -0.9,0.3 -1.5,0.3 -0.7,0 -1.3,-0.2 -1.7,-0.6 -0.4,-0.4 -0.6,-1 -0.6,-1.8 0,-0.8 0.3,-1.4 0.9,-1.8 0.6,-0.4 1.4,-0.6 2.6,-0.6 l 1.3,0 v -0.3 c 0,-0.8 -0.4,-1.2 -1.2,-1.2 -0.6,0 -1.3,0.2 -2.2,0.6 l -0.7,-1.4 c 0.9,-0.5 1.9,-0.7 2.9,-0.7 1,0 1.8,0.2 2.4,0.7 0.6,0.5 0.8,1.1 0.8,2 V 87 h -1.4 z m -0.6,-3.5 -0.8,0 c -0.6,0 -1.1,0.1 -1.4,0.3 -0.3,0.2 -0.4,0.5 -0.4,0.9 0,0.6 0.3,0.9 1,0.9 0.5,0 0.9,-0.1 1.2,-0.4 0.3,-0.3 0.4,-0.6 0.4,-1.1 v -0.6 z" />
					<path
   style="fill:#ffffff"
   inkscape:connector-curvature="0"
   id="path43"
   d="m 444.9,77.4 c 0,-0.7 0.4,-1 1.1,-1 0.7,0 1.1,0.3 1.1,1 0,0.3 -0.1,0.6 -0.3,0.8 -0.2,0.2 -0.5,0.3 -0.9,0.3 -0.6,-0.1 -1,-0.4 -1,-1.1 z m 2.2,9.6 H 445 v -7.6 h 2.1 V 87 z" />
					<path
   style="fill:#ffffff"
   inkscape:connector-curvature="0"
   id="path45"
   d="m 451.3,87 h -2.1 V 76.4 h 2.1 V 87 z" />
					<path
   style="fill:#ffffff"
   inkscape:connector-curvature="0"
   id="path47"
   d="m 460.3,87.1 c -2.4,0 -3.6,-1.3 -3.6,-3.9 0,-1.3 0.3,-2.3 1,-3 0.6,-0.7 1.6,-1 2.8,-1 0.9,0 1.7,0.2 2.4,0.5 l -0.6,1.6 c -0.3,-0.1 -0.6,-0.2 -0.9,-0.3 -0.3,-0.1 -0.6,-0.1 -0.8,-0.1 -1.1,0 -1.6,0.8 -1.6,2.3 0,1.5 0.5,2.2 1.6,2.2 0.4,0 0.8,-0.1 1.1,-0.2 0.3,-0.1 0.7,-0.3 1,-0.5 v 1.8 c -0.3,0.2 -0.7,0.4 -1,0.4 -0.5,0.2 -0.9,0.2 -1.4,0.2 z" />
					<path
   style="fill:#ffffff"
   inkscape:connector-curvature="0"
   id="path49"
   d="m 471.3,83.2 c 0,1.2 -0.3,2.2 -1,2.9 -0.7,0.7 -1.6,1.1 -2.7,1.1 -0.7,0 -1.4,-0.2 -1.9,-0.5 -0.6,-0.3 -1,-0.8 -1.3,-1.4 -0.3,-0.6 -0.5,-1.3 -0.5,-2.1 0,-1.2 0.3,-2.2 1,-2.9 0.7,-0.7 1.6,-1 2.7,-1 0.7,0 1.4,0.2 1.9,0.5 0.5,0.3 1,0.8 1.3,1.4 0.4,0.5 0.5,1.2 0.5,2 z m -5.3,0 c 0,0.8 0.1,1.3 0.4,1.7 0.2,0.4 0.7,0.6 1.2,0.6 0.6,0 1,-0.2 1.2,-0.6 0.2,-0.4 0.4,-1 0.4,-1.7 0,-0.8 -0.1,-1.3 -0.4,-1.7 -0.2,-0.4 -0.6,-0.6 -1.2,-0.6 -0.6,0 -1,0.2 -1.2,0.6 -0.3,0.3 -0.4,0.9 -0.4,1.7 z" />
					<path
   style="fill:#ffffff"
   inkscape:connector-curvature="0"
   id="path51"
   d="M 480.1,87 H 478 v -4.5 c 0,-0.6 -0.1,-1 -0.3,-1.2 -0.2,-0.3 -0.5,-0.4 -0.9,-0.4 -0.6,0 -1,0.2 -1.3,0.6 -0.3,0.4 -0.4,1 -0.4,1.9 V 87 H 473 v -7.6 h 1.6 l 0.3,1 h 0.1 c 0.2,-0.4 0.6,-0.6 1,-0.8 0.4,-0.2 0.9,-0.3 1.4,-0.3 0.9,0 1.6,0.2 2,0.7 0.5,0.5 0.7,1.2 0.7,2.1 V 87 z" />
					<path
   style="fill:#ffffff"
   inkscape:connector-curvature="0"
   id="path53"
   d="m 485.4,85.5 c 0.4,0 0.8,-0.1 1.3,-0.2 v 1.6 c -0.5,0.2 -1.2,0.3 -1.9,0.3 -0.8,0 -1.4,-0.2 -1.8,-0.6 -0.4,-0.4 -0.6,-1.1 -0.6,-1.9 V 81 h -1 v -0.9 l 1.1,-0.7 0.6,-1.6 h 1.3 v 1.6 h 2.1 V 81 h -2.1 v 3.7 c 0,0.3 0.1,0.5 0.2,0.7 0.4,0 0.6,0.1 0.8,0.1 z" />
					<path
   style="fill:#ffffff"
   inkscape:connector-curvature="0"
   id="path55"
   d="m 493.2,87 -0.4,-1 h -0.1 c -0.4,0.4 -0.7,0.7 -1.1,0.9 -0.4,0.2 -0.9,0.3 -1.5,0.3 -0.7,0 -1.3,-0.2 -1.7,-0.6 -0.4,-0.4 -0.6,-1 -0.6,-1.8 0,-0.8 0.3,-1.4 0.9,-1.8 0.6,-0.4 1.4,-0.6 2.6,-0.6 l 1.3,0 v -0.3 c 0,-0.8 -0.4,-1.2 -1.2,-1.2 -0.6,0 -1.3,0.2 -2.2,0.6 l -0.7,-1.4 c 0.9,-0.5 1.9,-0.7 2.9,-0.7 1,0 1.8,0.2 2.4,0.7 0.6,0.5 0.8,1.1 0.8,2 V 87 h -1.4 z m -0.7,-3.5 -0.8,0 c -0.6,0 -1.1,0.1 -1.4,0.3 -0.3,0.2 -0.4,0.5 -0.4,0.9 0,0.6 0.3,0.9 1,0.9 0.5,0 0.9,-0.1 1.2,-0.4 0.3,-0.3 0.4,-0.6 0.4,-1.1 v -0.6 z" />
					<path
   style="fill:#ffffff"
   inkscape:connector-curvature="0"
   id="path57"
   d="m 499.9,87.1 c -2.4,0 -3.6,-1.3 -3.6,-3.9 0,-1.3 0.3,-2.3 1,-3 0.6,-0.7 1.6,-1 2.8,-1 0.9,0 1.7,0.2 2.4,0.5 l -0.6,1.6 c -0.3,-0.1 -0.6,-0.2 -0.9,-0.3 -0.3,-0.1 -0.6,-0.1 -0.8,-0.1 -1.1,0 -1.6,0.8 -1.6,2.3 0,1.5 0.5,2.2 1.6,2.2 0.4,0 0.8,-0.1 1.1,-0.2 0.3,-0.1 0.7,-0.3 1,-0.5 v 1.8 c -0.3,0.2 -0.7,0.4 -1,0.4 -0.5,0.2 -0.9,0.2 -1.4,0.2 z" />
					<path
   style="fill:#ffffff"
   inkscape:connector-curvature="0"
   id="path59"
   d="m 507.2,85.5 c 0.4,0 0.8,-0.1 1.3,-0.2 v 1.6 c -0.5,0.2 -1.2,0.3 -1.9,0.3 -0.8,0 -1.4,-0.2 -1.8,-0.6 -0.4,-0.4 -0.6,-1.1 -0.6,-1.9 V 81 h -1 v -0.9 l 1.1,-0.7 0.6,-1.6 h 1.3 v 1.6 h 2.1 V 81 h -2.1 v 3.7 c 0,0.3 0.1,0.5 0.2,0.7 0.3,0 0.5,0.1 0.8,0.1 z" />
					<path
   style="fill:#ffffff"
   inkscape:connector-curvature="0"
   id="path61"
   d="m 515.4,84.7 c 0,0.8 -0.3,1.4 -0.8,1.8 -0.5,0.4 -1.4,0.6 -2.4,0.6 -0.6,0 -1,0 -1.4,-0.1 -0.4,-0.1 -0.8,-0.2 -1.1,-0.3 V 85 c 0.4,0.2 0.8,0.3 1.3,0.5 0.5,0.1 0.9,0.2 1.3,0.2 0.8,0 1.1,-0.2 1.1,-0.7 0,-0.2 0,-0.3 -0.2,-0.4 -0.1,-0.1 -0.3,-0.2 -0.5,-0.3 -0.2,-0.1 -0.6,-0.3 -1,-0.5 -0.6,-0.2 -1,-0.5 -1.3,-0.7 -0.3,-0.2 -0.5,-0.5 -0.6,-0.7 -0.1,-0.3 -0.2,-0.6 -0.2,-1 0,-0.7 0.3,-1.2 0.8,-1.6 0.5,-0.4 1.3,-0.6 2.2,-0.6 0.9,0 1.8,0.2 2.7,0.6 l -0.6,1.5 c -0.4,-0.2 -0.7,-0.3 -1.1,-0.4 -0.3,-0.1 -0.7,-0.2 -1,-0.2 -0.6,0 -0.9,0.2 -0.9,0.5 0,0.2 0.1,0.3 0.3,0.5 0.2,0.1 0.6,0.3 1.3,0.6 0.6,0.2 1,0.5 1.3,0.7 0.3,0.2 0.5,0.5 0.6,0.7 0.1,0.2 0.2,0.7 0.2,1 z" />
				</g>
			</g>
		</g>
	</g><g
   id="g63"
   transform="translate(-325.1,-34)">
		<polygon
   style="fill:#ffffff;fill-rule:evenodd"
   id="polygon65"
   points="635.5,55.9 635.2,55.9 634.9,55.8 634.6,55.8 634.2,55.8 633.9,55.9 633.3,56 633,56.1 632.8,56.3 632.4,56.7 632.1,56.9 632,57.1 631.7,57.6 631.6,57.9 631.5,58.2 631.5,58.5 631.5,58.8 631.5,59.1 631.5,59.4 631.6,59.7 631.7,60 631.8,60.2 632,60.5 632.1,60.7 632.4,60.9 632.4,61 632.6,61.1 632.8,61.3 633,61.4 633.3,61.6 633.6,61.7 633.9,61.7 634.1,61.8 634.5,61.8 634.8,61.7 635.1,61.7 635.4,61.6 635.8,61.5 635.9,61.5 636,61.4 636.3,61.3 636.5,61.1 636.8,61 637,60.7 637.2,60.5 637.3,60.2 637.5,59.9 637.5,57.7 637.3,57.4 637.2,57.1 637,56.9 636.8,56.7 636.8,56.7 636.8,56.7 636.5,56.5 636.3,56.3 636,56.1 635.8,56 "
   clip-rule="evenodd" />
		<polygon
   style="fill:#ffffff;fill-rule:evenodd"
   id="polygon67"
   points="637.3,64.8 637.3,64.8 632.2,64.8 632.2,87.1 637.3,87.1 637.3,64.8 "
   clip-rule="evenodd" />
		<path
   style="fill:#ffffff;fill-rule:evenodd"
   inkscape:connector-curvature="0"
   id="path69"
   d="m 611.3,66.7 0.8,2.8 0.6,-0.3 0.6,-0.3 0.6,-0.2 0.6,-0.2 0.6,-0.1 0.7,-0.1 0.7,-0.1 h 0.7 l 0.5,0 0.5,0.1 0.4,0.1 0.4,0.1 0.4,0.1 0.4,0.2 0.3,0.2 0.3,0.3 0.3,0.3 0.2,0.3 0.2,0.3 0.1,0.2 0.1,0.2 0.1,0.4 0.1,0.4 0.1,0.5 0,0.5 v 0.4 l 0,0.1 0,0.1 -0.1,0.2 h 0 0 v 0 l 0,0 -0.1,0.1 -0.2,0 -1.3,0 -0.6,0 -0.6,0.1 -0.6,0.1 -0.6,0.1 -0.6,0.1 -0.5,0.1 -0.5,0.1 -0.5,0.2 -0.9,0.4 -0.5,0.2 -0.4,0.2 -0.4,0.2 -0.4,0.3 -0.4,0.2 -0.3,0.3 -0.3,0.3 -0.3,0.3 -0.5,0.6 -0.4,0.7 -0.3,0.8 -0.1,0.4 -0.1,0.4 -0.1,0.9 0,1 0,0.6 0.1,0.6 0,0.3 0.1,0.3 0.2,0.6 0.2,0.5 0.3,0.5 0.3,0.5 0.4,0.5 0.4,0.4 0.5,0.4 0.5,0.3 0.5,0.3 0.5,0.2 0.6,0.2 0.6,0.1 0.7,0.1 0.4,0 0.4,0 0.2,0 0.2,0 0.4,-0.1 0.4,-0.1 0.4,-0.1 0.3,-0.1 0.2,-0.1 0.2,-0.1 0.3,-0.2 0.3,-0.2 0.1,-0.1 0.2,-0.1 0.3,-0.2 0.3,-0.3 0.3,-0.3 0.3,-0.3 0.3,-0.3 0.1,-0.1 0.1,-0.1 0.1,0 h 0.1 0.1 l 0.2,0 0.2,0.1 0.1,0.2 0.1,0.2 0.3,2 h 3.9 l -0.1,-0.5 -0.1,-0.5 0,-0.6 0,-0.6 0,-0.6 0,-0.7 v -0.7 -0.7 -8 l 0,-0.6 0,-0.5 -0.1,-0.5 0,-0.5 -0.1,-0.5 -0.1,-0.5 -0.1,-0.5 -0.1,-0.4 -0.1,-0.4 -0.1,-0.4 -0.2,-0.4 -0.2,-0.4 -0.2,-0.4 -0.2,-0.3 -0.2,-0.3 -0.2,-0.3 -0.3,-0.3 -0.3,-0.2 -0.3,-0.2 -0.3,-0.2 -0.3,-0.2 -0.3,-0.2 -0.7,-0.3 -0.4,-0.1 -0.4,-0.1 -0.4,-0.1 -0.4,-0.1 -0.5,-0.1 -0.5,0 -1,0 h -1 l -1,0.1 -0.9,0.1 -0.9,0.2 -0.8,0.2 -0.8,0.3 -0.8,0.3 -1,0 0,0 0,0 z m 4.8,10.4 0.4,-0.3 0.5,-0.2 0.6,-0.2 0.6,-0.1 0.7,-0.1 0.8,-0.1 0.8,0 0.9,0 0.1,0 0.1,0 0.1,0.1 0.1,0.1 0.1,0.1 0,0.1 0,0.1 v 3.1 l 0,0.2 V 80 l 0,0.4 0,0.2 0,0.1 v 0.1 l 0,0.1 0,0.1 v 0 l -0.1,0.2 -0.1,0.2 -0.1,0.4 -0.2,0.3 -0.2,0.3 -0.2,0.3 -0.1,0.1 -0.1,0.2 -0.2,0.3 -0.1,0.1 -0.1,0.1 -0.3,0.2 -0.3,0.2 -0.2,0.1 -0.1,0 -0.1,0.1 -0.3,0.1 -0.3,0.1 -0.3,0.1 -0.3,0.1 h -0.2 -0.1 l -0.1,0 -0.4,0 -0.4,-0.1 -0.4,-0.1 -0.3,-0.1 -0.3,-0.1 -0.3,-0.2 -0.2,-0.2 -0.2,-0.2 -0.2,-0.3 -0.2,-0.3 -0.2,-0.3 -0.1,-0.3 -0.1,-0.4 -0.1,-0.4 0,-0.4 v -0.4 l 0,-0.6 0.1,-0.5 0.1,-0.5 0.2,-0.5 0.3,-0.4 0.3,-0.4 0.2,-0.2 0.2,-0.2 0.3,-0.3 0,0 0,0 z"
   clip-rule="evenodd" />
		<path
   style="fill:#ffffff;fill-rule:evenodd"
   inkscape:connector-curvature="0"
   id="path71"
   d="m 604.4,86.7 v -22 H 575 v 21.9 h 29.4 l 0,0.1 0,0 z m -4.2,-4.5 v 4.3 h -20.6 v -4 h 0 l 0.1,0 7.7,-6.2 2.3,2 2.1,-1.8 8.4,5.7 0,0 0,0 z m 0,-0.8 -7.9,-5.5 7.9,-6.8 v 12.3 l 0,0 0,0 z m -1.3,-16.5 -1.1,1 -0.5,0.5 -0.5,0.5 -0.5,0.5 -0.5,0.5 -0.4,0.4 -0.4,0.4 -0.4,0.4 -0.4,0.4 -0.7,0.7 -0.7,0.6 -0.3,0.3 -0.3,0.3 -0.3,0.2 -0.3,0.2 -0.5,0.5 -0.2,0.2 -0.2,0.2 -0.2,0.2 -0.2,0.2 -0.3,0.2 -0.1,0.1 -0.1,0.1 -0.1,0.1 -0.1,0.1 -0.1,0.1 -8.9,-8.8 18.3,-0.1 0,0 0,0 z m -11.9,10.8 -7.4,5.9 0,-12.2 7.4,6.3 0,0 0,0 z"
   clip-rule="evenodd" />
		<polygon
   style="fill:#ffffff;fill-rule:evenodd"
   id="polygon73"
   points="568,51.9 567.9,51.8 567.7,51.7 567.4,51.4 567,51.3 566.9,51.1 566.7,51 566.4,50.8 565.9,50.6 565.4,50.3 564.9,50.1 564.4,49.9 563.7,49.7 563.1,49.5 562.4,49.2 561.7,49 560.8,48.8 559.8,48.5 558.8,48.3 557.9,48.2 556.8,48 555.8,47.9 554.7,47.9 553.7,47.9 553,47.9 552.4,47.9 551.2,48 550.1,48.1 548.9,48.3 547.8,48.5 546.8,48.8 545.7,49.1 544.7,49.5 543.8,49.9 542.9,50.4 542,50.8 541.5,51.1 541.1,51.4 540.3,52 539.5,52.7 538.8,53.3 538.1,54.1 537.4,54.8 536.8,55.6 536.2,56.4 535.6,57.2 535.1,58 534.7,58.8 534.2,59.7 533.9,60.6 533.5,61.5 533.2,62.4 533,63.3 532.8,64.3 532.6,65.2 532.5,66.2 532.5,67.2 532.4,68.2 532.4,69.1 532.5,69.9 532.6,70.8 532.7,71.6 532.9,72.4 533.1,73.3 533.3,74.1 533.6,74.9 533.9,75.7 534.2,76.6 534.6,77.3 535,78.2 535.5,78.9 536,79.7 536.5,80.5 537.1,81.3 537.7,82.1 538.3,82.8 538.7,83.1 539,83.5 539.8,84.1 540.6,84.7 541,85 541.4,85.3 542.3,85.7 542.7,86 543.2,86.2 543.7,86.4 544.2,86.6 545.2,86.9 545.8,87 546.3,87.2 547.5,87.4 548.6,87.6 549.2,87.7 549.9,87.8 551.1,87.9 552.5,88 554.6,87.9 555.7,87.8 556.8,87.7 558.9,87.4 560,87.2 561.1,87 568.7,85.2 568.7,78.6 568.7,77.3 568.8,76 568.8,75.7 568.9,75.5 569.1,75.3 569.3,75.1 570.7,73.7 559.6,73.7 555.3,76.1 563.3,75.6 563.3,84.4 562.7,84.6 562.4,84.7 562.3,84.7 562.3,84.7 562.2,84.8 562.1,84.8 561.4,85.1 561,85.2 560.7,85.3 560.3,85.4 559.8,85.5 559.4,85.6 559.1,85.6 559,85.6 559,85.6 559,85.6 558.9,85.7 558.4,85.7 558.1,85.7 557.8,85.7 557.5,85.7 557.2,85.8 556.6,85.8 555.6,85.7 554.5,85.6 553.5,85.5 552.5,85.3 551.6,85.1 550.7,84.8 549.8,84.5 548.9,84.1 548.1,83.7 547.3,83.3 546.5,82.8 545.8,82.2 545.1,81.6 544.4,81 543.7,80.3 543.1,79.6 542.5,78.9 541.9,78.1 541.4,77.4 540.9,76.6 540.5,75.8 540.1,75 539.7,74.1 539.4,73.3 539.1,72.4 538.8,71.5 538.6,70.6 538.4,69.7 538.3,68.8 538.2,67.8 538.1,66.9 538.1,65.9 538.1,65 538.2,64.1 538.3,63.2 538.4,62.4 538.5,61.6 538.7,60.8 538.9,60 539.2,59.3 539.4,58.6 539.8,57.9 540.1,57.2 540.5,56.6 540.9,56 541.3,55.4 541.8,54.8 542.3,54.3 542.8,53.7 543.3,53.2 543.8,52.7 544.4,52.3 545,51.9 545.6,51.6 546.2,51.2 546.8,51 547.5,50.7 548.2,50.5 548.9,50.3 549.6,50.1 550.3,50 551,49.9 551.8,49.8 552.6,49.8 553.8,49.8 554.9,49.9 555.4,50 555.8,50.1 556.3,50.2 556.8,50.3 557.2,50.4 557.6,50.6 558,50.7 558.5,50.9 559.2,51.3 559.5,51.5 559.9,51.7 560.5,52.1 561.1,52.5 561.7,52.9 562.2,53.3 562.5,53.5 562.7,53.7 563.1,54.2 563.5,54.6 563.5,54.6 563.6,54.7 563.8,55 562.5,57.1 564.3,56.7 564.3,56.7 564.3,56.7 568.7,52.4 568.4,52.2 568.2,52 568.1,51.9 "
   clip-rule="evenodd" />
		<polygon
   style="fill:#ffffff;fill-rule:evenodd"
   id="polygon75"
   points="647.4,53.5 647.4,53.5 642.8,53.5 642.8,87.1 647.4,87.1 647.4,53.5 "
   clip-rule="evenodd" />
	</g><g
   id="g77"
   transform="translate(-325.1,-34)">
		<path
   style="fill:#ffffff"
   inkscape:connector-curvature="0"
   id="path79"
   d="m 674.1,87.7 -0.8,-0.6 c -0.9,-0.7 -1.3,-1.5 -1.2,-2.5 0,-0.3 0.1,-0.6 0.2,-0.9 -2,-7.1 -4.5,-14.1 -7.3,-21.1 -0.9,0.4 -1.8,0.8 -2.7,1.2 l -0.3,0.1 -0.2,-0.3 c -0.2,-0.3 -0.2,-0.3 1.8,-1.6 -0.1,-0.1 -0.1,-0.3 0,-0.5 0.1,-0.2 0.2,-0.4 0.6,-0.4 0.5,0 0.9,0.2 1.1,0.6 C 691.6,51 722.6,45.5 753,46.1 l 0.2,0 1,1.3 -0.5,0.4 -0.8,-1.1 c -30.3,-0.6 -61.1,4.9 -87.2,15.5 2.8,6.7 5.2,13.6 7.1,20.4 1,-1.5 2.8,-3 4.6,-4 C 699,66.3 724.8,57.3 752,52.7 l 0.1,0.7 C 725,58 699.3,66.9 677.7,79.2 c -1.8,1 -3.9,2.7 -4.7,4.3 0.3,1 0.6,2 0.8,3 l 0.3,1.2 z" />
		<path
   style="fill:#ffffff"
   inkscape:connector-curvature="0"
   id="path81"
   d="m 787.3,49.1 c -6.2,-3.6 -13,-6.6 -20.3,-8.9 -0.6,-0.2 -1.1,-0.4 -1.7,-0.5 -3.8,-1.2 -7.8,-2.5 -10.7,-4.7 -1.7,3.3 -2.3,7 -1.8,10.5 l -0.7,0.1 c -0.5,-3.8 0.2,-7.7 2.1,-11.2 l 0.2,-0.4 0.3,0.3 c 2.7,2.3 6.8,3.6 10.8,4.8 0.6,0.2 1.1,0.4 1.7,0.5 7.3,2.4 14.2,5.4 20.4,9 l -0.3,0.5 z" />
		<path
   style="fill:#ffffff"
   inkscape:connector-curvature="0"
   id="path83"
   d="m 753.2,68 c 0,-0.2 -0.1,-0.3 0,-0.4 l 0,-14.1 h 0 l 0,-1.7 0.7,0 0,14.4 c 0.6,-0.7 1.6,-1.3 2.6,-1.9 10.3,-5.7 20.9,-11.6 33.7,-14.7 0.3,-0.1 0.7,-0.1 1,0 0.2,0.1 0.3,0.4 0.2,0.7 -0.1,0.3 -0.4,0.4 -0.7,0.3 l 0.1,-0.4 c -0.1,0 -0.2,0 -0.5,0 -12.7,3 -23.2,8.9 -33.4,14.6 -1.4,0.8 -2.8,1.7 -2.8,2.7 V 68 l -0.9,0 z" />
		<path
   style="fill:#ffffff"
   inkscape:connector-curvature="0"
   id="path85"
   d="M 672.6,82.1 672.4,82 c -0.8,-0.3 -1,-0.8 -1.1,-1.2 -0.2,-1 0.6,-2.1 1.4,-2.9 l 3.8,-3.7 c -1.6,1 -3.2,1.9 -4.9,2.8 l -0.1,0.1 -0.1,0 c -0.8,-0.2 -1.1,-0.7 -1.1,-1 -0.2,-0.9 0.4,-2 1.1,-2.6 1.1,-1.1 2.2,-2.2 3.4,-3.3 -0.6,0.3 -1.2,0.6 -1.7,0.9 l -1.4,0.7 1,-1.2 c 1,-1.3 2.1,-2.5 3.3,-3.7 -1.5,0.8 -3.2,1.6 -4.8,2.4 l -2,0.9 5.8,-5.3 c -2.3,1.5 -4.8,3 -7.3,4.3 l -1.3,0.7 0.8,-1.2 c 0.6,-0.9 1.3,-1.8 2.1,-2.6 -1.7,1.2 -3.5,2.3 -5.3,3.4 l -0.8,0.5 0.3,-0.9 c 1.1,-3.4 3.3,-6.6 6.4,-9.2 0.5,-0.4 1,-0.6 1.5,-0.5 0.3,0.1 0.4,0.3 0.4,0.5 0,0.3 -0.1,0.5 -0.4,0.7 -0.2,0.1 -0.5,0.1 -0.7,-0.1 L 671,60 c -0.3,-0.1 -0.6,0.2 -0.8,0.4 -2.8,2.3 -4.8,5.1 -5.9,8 2.5,-1.5 5,-3.1 7.3,-4.8 1.9,-1.7 4,-3.4 6.3,-4.8 l 0.4,0.6 c -2,1.6 -4.1,3.2 -6.2,4.8 -1.3,1.2 -2.5,2.5 -3.5,3.8 4.1,-2.2 7.8,-4.7 11.2,-7.4 l 5.4,-4.9 0.5,0.5 c -1.7,1.7 -3.5,3.4 -5.5,5 l -7.3,6.7 c 1.7,-0.8 3.4,-1.7 4.9,-2.7 3.2,-3 6.9,-5.8 11,-8.4 l 2.7,-1.7 -2.3,2.2 c -3.2,3.1 -6.9,5.9 -11,8.4 -1.4,1.4 -2.8,2.8 -4.1,4.2 0.9,-0.4 1.7,-0.9 2.6,-1.4 5.1,-4.5 10.8,-8.7 16.9,-12.6 l 2.5,-1.5 -2,2.1 c -4.7,4.8 -10.4,9 -16.9,12.6 -1.8,1.6 -3.6,3.3 -5.3,5 -0.7,0.7 -1,1.5 -0.9,2 0.1,0.2 0.2,0.4 0.5,0.5 2.7,-1.4 5.2,-3 7.7,-4.6 l 22,-21.3 -1.9,2.8 c -4.9,7.1 -11.6,13.6 -19.7,19.1 l -6.3,6.1 c -0.7,0.7 -1.3,1.6 -1.2,2.3 0,0.2 0.2,0.4 0.5,0.6 12.7,-9.7 24.2,-20.3 34.1,-31.5 l 0.5,0.4 c -5.4,7.4 -12.5,14.2 -19.6,20.8 3.9,-2.7 7.7,-5.4 11.3,-8.3 4,-3.7 8.2,-7.2 12.5,-10.6 l 0.4,0.5 c -4,3.7 -8.1,7.2 -12.5,10.6 -2.1,2 -4.2,4 -6.2,6 2.8,-0.2 5.1,-1.9 7.1,-3.7 L 713,54.4 c 2,-1.9 4.1,-3.7 6.3,-5.5 l 0.4,0.5 -6.3,5.5 c -4.3,4 -8.1,8.1 -11.6,12.4 2.4,-1.6 4.7,-3.2 7,-4.9 4.9,-5.5 10.8,-10.4 17.6,-14.7 l 0.4,0.5 c -5.1,4.9 -10.6,9.5 -16.5,13.9 1.4,-0.7 2.7,-1.5 3.9,-2.2 l 13.5,-10.6 0.5,0.5 c -3.1,3.2 -6.7,6.2 -10.8,8.9 3.2,-1.3 6.2,-2.9 8.9,-4.8 l 7.7,-6.7 0.5,0.5 c -2.2,2.5 -4.8,4.7 -7.8,6.8 l -5,4.3 c 2.2,-1.2 4.3,-2.4 6.3,-3.8 2.5,-2.4 5.3,-4.6 8.2,-6.7 l 0.4,0.5 c -2.4,2.4 -5.2,4.7 -8.2,6.7 -1,1 -2,1.9 -3,2.9 6.2,-3.5 12.2,-7.2 17.6,-11.3 l 0.4,0.5 -9.2,8.5 c 5,-2 9.5,-4.6 13.1,-7.7 l 2.9,-2.7 0.5,0.5 c -0.9,1 -1.9,1.9 -2.9,2.8 l -4.7,4.4 c 4.8,-2.3 9.1,-5 12.7,-8.2 0,0 0.1,-0.1 0.1,-0.1 0,0 0,0 0,0 l 0.5,0.5 c 0,0 -0.1,0.1 -0.1,0.1 -2.8,2.5 -5.4,5.2 -7.8,7.9 3.2,-1.6 6.1,-3.5 8.6,-5.7 l 0.5,0.5 -4,3.8 -0.4,-0.5 c -1.8,1.2 -3.8,2.2 -5.8,3.2 l -1.4,0.6 1,-1.2 c 1.3,-1.6 2.8,-3.2 4.3,-4.7 -2.9,2 -6.1,3.7 -9.6,5.2 l -1.8,0.8 3.5,-3.3 c -3.1,2 -6.6,3.7 -10.4,5.1 l -1.6,0.6 7.8,-7.2 c -4.8,3.3 -9.9,6.4 -15.2,9.2 l -1.8,1 1.4,-1.5 c 0.7,-0.7 1.4,-1.5 2.1,-2.2 -1.9,1.1 -3.9,2.2 -6,3.2 l -2.3,1.1 5.8,-5 c -2.7,1.5 -5.6,2.8 -8.6,3.9 l 0,0 c -2,1.2 -4,2.3 -6.1,3.3 l -1.4,0.7 c -2.1,1.5 -4.3,3 -6.5,4.5 l -1.7,1.1 1.2,-1.6 c 1.9,-2.5 4,-5 6.2,-7.4 l -5.6,4.9 c -2.3,2 -4.9,3.9 -8.2,3.9 -0.1,0 -0.1,0 -0.2,0 l -0.8,0 0.6,-0.6 c 0.7,-0.8 1.5,-1.5 2.3,-2.2 -3.3,2.4 -6.6,4.8 -10.1,7 l -0.4,-0.5 c 4.7,-4.3 9.4,-8.6 13.8,-13.2 -7.7,7.6 -16,14.8 -24.9,21.6 l -0.2,0.1 z m 23.6,-25.9 -13.4,13 c 5.2,-3.9 9.8,-8.3 13.4,-13 z m -5.2,2.1 c -3.9,2.6 -7.7,5.4 -11.1,8.3 4,-2.5 7.8,-5.3 11.1,-8.3 z m -6,1.6 c -1.1,0.8 -2.1,1.6 -3.1,2.4 1.1,-0.8 2.1,-1.6 3.1,-2.4 z m 38.4,-9.3 c -4.1,2.9 -7.9,6 -11.2,9.4 3.9,-3 7.6,-6.2 11.2,-9.4 z" />
		<path
   style="fill:#ffffff"
   inkscape:connector-curvature="0"
   id="path87"
   d="m 754.6,65.6 0.8,-1 c 0.6,-0.8 1.3,-1.5 1.9,-2.3 l -2.7,2.2 c -0.7,0.5 -1.6,1.1 -2.7,1 l -0.5,-0.1 0.3,-0.4 c 0.9,-1.4 1.9,-2.8 2.9,-4.1 -0.5,0.2 -1.1,0.3 -1.7,0 l -0.4,-0.1 0.2,-0.3 c 1.2,-2.2 2.6,-4.3 4.2,-6.2 -0.8,0.3 -1.6,0.6 -2.6,0.6 l -0.6,0 0.3,-0.5 c 1,-2 2.4,-3.9 4.1,-5.6 l -0.6,0.4 c -1.1,0.7 -2.8,1.1 -3.6,0.4 L 753.7,49.4 754,49 c 0.7,-1 1.6,-1.9 2.5,-2.8 -0.8,0.3 -1.9,0.5 -2.4,-0.2 l -0.2,-0.2 0.2,-0.2 c 0.8,-1 1.7,-2 2.7,-2.9 -1.1,0.5 -2.2,1 -3.4,1.5 l -0.9,0.4 0.5,-0.8 c 0.3,-0.5 0.6,-0.9 0.9,-1.4 -0.4,0.2 -0.8,0.4 -1.1,0.6 l -0.6,0.3 0.1,-0.7 c 0.5,-2.7 2.7,-5.2 6,-6.6 l 1,-0.5 -0.6,1 c -0.5,0.7 -1.2,1.4 -2.1,1.9 l -0.3,-0.5 c -1.6,1.2 -2.8,2.6 -3.2,4.2 0.8,-0.4 1.6,-0.8 2.3,-1.3 1.3,-1.2 3,-2.3 4.8,-3.1 l 3.1,-1.3 -2.8,1.9 c -1.5,1.1 -3.1,2.1 -4.8,3 -0.6,0.6 -1.2,1.2 -1.7,1.9 2,-0.8 3.9,-1.8 5.6,-2.8 0.6,-0.4 1.3,-0.8 2,-1.2 l 0.4,0.6 c -0.7,0.4 -1.3,0.8 -2,1.2 -2.1,1.4 -3.9,3.1 -5.3,4.9 0.4,0.1 1.3,0 1.9,-0.4 0.7,-0.4 1.4,-0.7 2.1,-1.1 1.6,-1.2 3.5,-2.3 5.5,-3.2 l 0.3,0.6 c -1.7,1.1 -3.6,2.2 -5.4,3.2 -1.7,1.3 -3.2,2.7 -4.5,4.3 0.7,0.2 1.7,-0.1 2.6,-0.6 l 4,-2.3 c 1.6,-1.2 3.4,-2.2 5.4,-3.1 l 0.3,0.6 -5.3,3.1 c -2.9,2.1 -5.2,4.6 -6.7,7.3 1.3,-0.2 2.4,-0.8 3.4,-1.5 3.3,-3.5 7.4,-6.6 12.1,-9.2 l 0.4,0.6 -11.2,8.5 c -0.3,0.2 -0.5,0.4 -0.8,0.6 -2.1,2.3 -3.9,4.7 -5.3,7.3 0.8,0.1 1.6,-0.5 2,-0.8 0.1,-0.1 0.2,-0.1 0.3,-0.2 C 760.4,54 766,49.2 772.5,45 l 0.4,0.5 c -5.2,4.9 -10.7,9.7 -16.5,14.2 -1.4,1.6 -2.6,3.3 -3.8,5 0.6,-0.1 1.1,-0.5 1.6,-0.8 l 6.3,-5 c 5,-5 10.7,-9.6 17.3,-13.7 l 0.4,0.6 -17.2,13.6 c -1.4,1.4 -2.8,2.9 -4.1,4.5 2.8,-1.3 5.2,-3.1 7.5,-4.8 l 15.4,-11.4 0.4,0.5 c -3,2.5 -5.9,5 -8.6,7.7 4.7,-2.6 8.8,-5.7 12.8,-8.7 l 0.4,0.5 c -2,1.7 -3.9,3.4 -5.7,5.2 1.3,-0.5 2.6,-1.2 3.7,-1.9 0.6,-0.8 1.6,-1.6 2.7,-2.1 l 1.9,-0.9 -1.6,1.5 c -0.7,0.7 -1.5,1.3 -2.4,1.9 0.9,0 1.9,-0.4 3,-1.4 l 0.4,0.5 c -1.5,1.3 -3,1.8 -4.2,1.4 l -0.1,0 c -1.4,0.9 -3,1.6 -4.7,2.1 l -1.3,0.4 1,-1 c 0.5,-0.5 1.1,-1.1 1.6,-1.6 -2.9,2 -5.9,4 -9.3,5.6 l -1.8,0.9 1.4,-1.4 c 1.2,-1.2 2.4,-2.4 3.7,-3.6 l -8.4,6.3 c -2.7,2 -5.4,4 -8.9,5.4 l -1.2,0.6 z M 769.3,48 c -3.7,2.7 -7.1,5.6 -10.1,8.7 3.4,-2.8 6.8,-5.7 10.1,-8.7 z" />
	</g>
</svg>