<?xml version="1.0" encoding="utf-8"?>
<!-- Generator: Adobe Illustrator 18.0.0, SVG Export Plug-In . SVG Version: 6.00 Build 0)  -->
<!DOCTYPE svg PUBLIC "-//W3C//DTD SVG 1.1//EN" "http://www.w3.org/Graphics/SVG/1.1/DTD/svg11.dtd">
<svg version="1.1" id="Calque_1" xmlns="http://www.w3.org/2000/svg" xmlns:xlink="http://www.w3.org/1999/xlink" x="0px" y="0px"
	 viewBox="0 0 840 195" enable-background="new 0 0 840 195" xml:space="preserve">
<g>
	<g>
		<path fill="#B2B2B2" d="M471.2,116.8c-0.2,0-0.3,0-0.5-0.1c-0.4-0.3-0.5-0.8-0.3-1.3c4-6.1,6.7-12.8,8.2-20
			c6.5-31.5-13.8-62.3-45.3-68.8c-0.5-0.1-0.8-0.6-0.7-1.1s0.6-0.8,1.1-0.7c32.5,6.7,53.4,38.5,46.7,71c-1.5,7.4-4.4,14.4-8.5,20.7
			C471.8,116.7,471.5,116.8,471.2,116.8z"/>
		<path fill="#B2B2B2" d="M472.5,121.9c-0.2,0-0.4-0.1-0.6-0.2c-0.4-0.3-0.5-0.9-0.2-1.3c1.4-1.9,2.4-4.2,3.4-6.4
			c1.1-2.6,2.3-5.2,4-7.1c0.1-0.1,0.1-0.3,0.2-0.5c1.3-3.3,2.3-6.7,3-10.1c4.2-20.3-1.9-41.3-16.2-56.1l-0.5-0.5
			c-1.3-1-2.2-1.9-3.1-2.8c-1.1-1.1-2.1-2.1-3.6-3.1l-0.6-0.5c-7.2-5.3-15.3-8.9-24.1-10.8c-0.5-0.1-0.8-0.6-0.7-1.1
			s0.6-0.8,1.1-0.7c9.1,1.9,17.5,5.6,24.9,11.1l0.6,0.5c1.6,1.1,2.6,2.1,3.8,3.2c0.9,0.9,1.8,1.7,3,2.7l0.1,0.1l0.5,0.5
			c14.7,15.3,21,36.9,16.7,57.8c-0.7,3.6-1.8,7.1-3.1,10.4c-0.1,0.2-0.2,0.5-0.3,0.7l-0.1,0.2l-0.1,0.1c-1.6,1.7-2.7,4.2-3.8,6.8
			c-1,2.4-2.1,4.8-3.6,6.8C473.1,121.8,472.8,121.9,472.5,121.9z"/>
		<path fill="#B2B2B2" d="M363.1,94.6c-0.4,0-0.8-0.3-0.9-0.8c-0.3-1.7-0.5-3.4-0.7-5.1l-0.1-0.7c-3-15.5,3.4-31.5,19.7-49l0.6-0.6
			c2.5-2.2,5.1-4.1,7.9-5.9l0.6-0.3c2.8-2.7,6.1-3.7,9.6-4.8l0.7-0.2c0.2-0.1,0.4-0.2,0.7-0.2c10.3-3.7,21.5-4.5,32.3-2.3
			c0.5,0.1,0.8,0.6,0.7,1.1s-0.6,0.8-1.1,0.7c-10.5-2.2-21.3-1.4-31.3,2.2l-1.5,0.5c-3.5,1.1-6.4,2-8.9,4.4l-0.2,0.1l-0.6,0.4
			c-2.7,1.7-5.3,3.6-7.6,5.7l-0.5,0.5c-15.7,17-22,32.5-19.1,47.4l0,0.1l0.1,0.7c0.1,1.6,0.4,3.3,0.6,4.9c0.1,0.5-0.2,1-0.8,1.1
			C363.2,94.6,363.1,94.6,363.1,94.6z"/>
		<path fill="#B2B2B2" d="M470.9,116.2c-0.2,0-0.4-0.1-0.5-0.2c-0.4-0.3-0.5-0.9-0.2-1.3c4.2-6,7.1-12.6,8.5-19.7
			c3.5-16.9-1.4-34.2-13.4-47.5c-0.2-0.2-0.3-0.4-0.5-0.5l-0.2-0.2c-0.7-1.5-2.3-2.5-3.9-3.6c-1.6-1-3.2-2.1-4.5-3.7l-0.5-0.4
			c-6.8-4.9-14.6-8.2-22.9-9.9c-0.5-0.1-0.8-0.6-0.7-1.1s0.6-0.8,1.1-0.7c8.6,1.8,16.6,5.2,23.6,10.2l0.8,0.7c1,1.4,2.6,2.4,4.1,3.4
			c1.7,1.1,3.6,2.3,4.5,4.2c0.1,0.2,0.3,0.3,0.4,0.5C479,60,484.1,77.9,480.5,95.4c-1.5,7.4-4.5,14.2-8.8,20.4
			C471.5,116,471.2,116.2,470.9,116.2z"/>
		<path fill="#B2B2B2" d="M363.6,94.1c-0.4,0-0.8-0.3-0.9-0.7c-0.3-1.2-0.5-2.4-0.6-3.6c0-0.2-0.1-0.5-0.1-0.7
			c-4.9-20.1,9-37.8,19.8-49.4l0.1-0.1c0.2-0.2,0.4-0.3,0.6-0.5c2.5-2,5.2-3.8,8-5.4c0.2-0.1,0.4-0.2,0.7-0.4l0.3-0.1
			c1.2-0.2,2.2-0.9,3.5-1.6c1.7-1,3.7-2.2,6.7-2.8l0.6-0.2c9.9-3,20.6-3.5,30.9-1.4c0.5,0.1,0.8,0.6,0.7,1.1
			c-0.1,0.5-0.6,0.8-1.1,0.7c-10-2.1-20.4-1.6-30,1.4l-0.8,0.2c-2.7,0.5-4.5,1.6-6.1,2.6c-1.3,0.7-2.5,1.5-3.9,1.8
			c-0.2,0.1-0.4,0.2-0.5,0.3c-2.7,1.5-5.3,3.3-7.7,5.2c-0.2,0.1-0.4,0.3-0.5,0.4c-10.5,11.3-24,28.5-19.3,47.7l0,0.1
			c0,0.2,0.1,0.5,0.1,0.7c0.2,1.2,0.4,2.3,0.6,3.5c0.1,0.5-0.2,1-0.7,1.1C363.7,94.1,363.6,94.1,363.6,94.1z"/>
		<path fill="#B2B2B2" d="M359.8,98.5c-0.4,0-0.8-0.3-0.9-0.7c-1.9-8.7-2-17.5-0.3-26.3c0-0.3,0.1-0.5,0.2-0.8
			C361.2,60,365,51.6,370.3,45l0.4-0.6c3.9-5.1,8.5-9.6,13.8-13.3c0.2-0.2,0.4-0.3,0.6-0.5c1.1-0.7,2.2-1.5,3.2-2.2
			c2.6-1.8,5-3.5,8-4.7c0.2-0.1,0.5-0.2,0.7-0.3c1.2-0.4,2.3-0.7,3.5-1.1c4.4-1.4,8.5-2.7,12.3-2.5c0.2,0,0.4-0.1,0.6-0.1
			c6.9-0.9,13.9-0.6,20.7,0.8c0.5,0.1,0.8,0.6,0.7,1.1s-0.6,0.8-1.1,0.7c-6.7-1.4-13.4-1.6-20.1-0.8c-0.2,0-0.5,0.1-0.7,0.1l-0.1,0
			l-0.1,0c-3.5-0.2-7.5,1.1-11.7,2.5c-1.1,0.4-2.3,0.7-3.5,1.1c-0.2,0.1-0.4,0.1-0.6,0.2c-2.8,1.1-5.2,2.8-7.7,4.5
			c-1,0.7-2.1,1.5-3.3,2.2l-0.6,0.4c-5.1,3.6-9.6,8-13.4,12.9l-0.4,0.6c-5.1,6.4-8.8,14.6-11.2,25l-0.1,0.7
			c-1.7,8.5-1.5,17.1,0.3,25.5c0.1,0.5-0.2,1-0.7,1.1C360,98.5,359.9,98.5,359.8,98.5z"/>
		<g>
			<g>
				<path fill="#B2B2B2" d="M445.9,156.4L445.9,156.4c-1.1,0-2.1-0.2-3.1-0.7l-3.7-1.7c-2.8-1.3-4.8-3.6-5.9-6.5
					c-0.2-0.5-0.4-1.1-0.5-1.7l0-0.1l0-0.2c0.8-6.1,1.9-10.6,4.7-15.7c0.2-0.4,0.4-0.8,0.6-1.3c1.1-2.3,2.3-4.5,3.6-7.1
					c0.4-0.8,0.9-1.6,1.3-2.5l3.3-6.9c0.3-0.6,0.6-1.1,0.9-1.6c1.7-3,4.4-4.5,8.4-4.5c2.2,0,4.5,0.5,6.3,0.9l0.2,0.1l3.1,1.5
					c1.8,0.8,3.1,2.3,3.8,4.2c0.7,1.8,0.6,3.8-0.3,5.6l-1.9,4c0,0.2,0,0.4-0.1,0.6c0,0.3-0.1,0.5-0.2,0.8l-0.1,0.3l-0.3,0.2
					c-0.3,0.2-0.8,1.5-1.1,2.4c-0.6,1.5-1.2,3.1-2.1,3.9l-0.3,0.5c-1.2,1.7-2.2,3.4-2.5,5.2l-0.1,0.2l-0.5,1.2
					c-1.2,2.6-2.4,5-3.5,7.2c-1.4,2.8-2.7,5.5-4.1,8.6l-0.1,0.2c-0.3,0.4-0.6,0.7-1,1.1C449.4,155.7,447.7,156.4,445.9,156.4z
					 M434.6,145.6c0.1,0.4,0.2,0.9,0.4,1.3c0.9,2.4,2.6,4.3,4.9,5.4l3.7,1.7c0.7,0.4,1.5,0.5,2.3,0.5l0,0c1.4,0,2.7-0.5,3.7-1.4
					c0.2-0.2,0.5-0.5,0.7-0.7c1.4-3.1,2.7-5.8,4.1-8.6c1.1-2.2,2.3-4.6,3.5-7.2l0.5-1.1c0.4-2.1,1.6-4,2.8-5.8l0.6-0.8
					c0.5-0.4,1.2-2.1,1.6-3.2c0.5-1.4,0.9-2.4,1.4-2.9c0-0.1,0-0.3,0.1-0.4c0-0.2,0.1-0.4,0.1-0.7l0-0.2l2-4.3
					c0.6-1.3,0.7-2.8,0.2-4.2c-0.5-1.4-1.5-2.5-2.8-3.1l-3-1.4c-1.7-0.4-3.8-0.8-5.8-0.8c-3.2,0-5.4,1.2-6.8,3.6
					c-0.3,0.5-0.6,1-0.8,1.4l-3.3,7c-0.5,0.9-0.9,1.7-1.3,2.5c-1.3,2.5-2.5,4.7-3.6,7c-0.2,0.4-0.4,0.9-0.6,1.3
					C436.4,135.5,435.4,139.8,434.6,145.6z"/>
				<path fill="#B2B2B2" d="M451.4,157.5c-0.3,0-0.8-0.1-1.2-0.6l0,0c-0.2,0-0.4,0-0.6,0h0c-1.4,0-2.7-0.3-3.8-0.8l-0.8-0.4l2.4-5.1
					c0.8-1.6,1.5-3.4,2.2-5.2c1.3-3.4,2.7-7,5.1-10l0.5-1.1c0.5-2.2,1.8-4.3,3.1-6.5c1.4-2.3,2.8-4.7,3.7-7.5l0.1-0.1l4.7-9.8
					l0.8,0.4c2.6,1.2,4.4,3.8,5.4,7.3c0.1,0.2,0.1,0.5,0.2,0.8l0.1,0.4l-0.2,0.2l0.2-0.1l0.1,1c0,0.1,0,0.3,0,0.4
					c0.1,1,0.2,2,0.1,3.1l0,0.6c-0.3,1.4-0.6,2.7-0.9,4c-0.6,2.6-1.1,5.1-1.9,8.5l0,0.1c-0.1,0.2-0.2,0.5-0.3,0.7
					c-3.2,7.8-8.1,13.6-14.6,17.4c-0.2,0.1-0.4,0.2-0.7,0.4l-0.2,0.1c-0.2,0-0.7,0.4-1.1,0.7C453,157,452.2,157.5,451.4,157.5z
					 M451.5,155l0.2,0.6c0.3-0.1,0.7-0.5,1-0.7c0.6-0.4,1.1-0.8,1.7-1c0.2-0.1,0.3-0.2,0.5-0.3c6.2-3.6,10.9-9.1,13.9-16.5
					c0.1-0.2,0.2-0.4,0.2-0.6c0.8-3.4,1.3-5.8,1.9-8.4c0.3-1.3,0.5-2.5,0.9-3.9l0-0.3c0-0.9,0-1.8-0.1-2.7c-0.2-0.1-0.3-0.3-0.4-0.5
					c-0.2-0.5-0.2-1.3,0-1.9c0-0.1-0.1-0.3-0.1-0.4c-0.7-2.6-1.9-4.5-3.6-5.6l-3.9,8c-1,3-2.5,5.6-3.8,7.9c-1.3,2.1-2.5,4.1-2.9,6.1
					l-0.1,0.2l-0.7,1.4c-2.3,2.8-3.6,6.2-4.9,9.5c-0.7,1.9-1.4,3.7-2.3,5.4l-1.6,3.3c0.7,0.2,1.4,0.3,2.2,0.3h0c0.2,0,0.4,0,0.6,0
					L451.5,155z"/>
			</g>
			<g>
				<path fill="#B2B2B2" d="M376.5,141.6c-0.5,0-1.1,0-1.7-0.1c-0.4,0-0.8-0.1-1.3-0.1c0,0-0.1,0-0.2,0c-0.2,0-0.4,0-0.6,0
					c-3.7-0.3-6.6-3.3-6.8-7.1l-0.3-9c-0.1-0.5-0.1-1.1,0-1.6c0-0.6,0-1.3-0.1-1.8l0-0.2l-0.9-25.2c-0.1-4,3-7.5,7.1-7.6l4.1-0.1
					c6.4-0.2,11.6,4.7,11.8,11l0.1,3.7c0.3,1.2,0.3,2.7,0.2,4l0,0.7c0.2,2.4,0.1,4.8,0,7.1c-0.1,3.8-0.3,7.5,0.6,11.2l0,0.2l0.1,2.8
					c0.2,4.3-2.1,8.3-5.9,10.4c0,0,0,0-0.1,0c0,0.2-0.1,0.3-0.1,0.4c-0.4,0.7-1.2,0.7-2.1,0.7c-0.3,0-0.7,0-1.1,0.1
					c-0.1,0-0.2,0-0.3,0.1C378.2,141.5,377.4,141.6,376.5,141.6z M373.4,139.6c0.6,0,1,0.1,1.4,0.1c0.6,0,1.1,0.1,1.6,0.1
					c0.8,0,1.3-0.1,1.8-0.3l0.3-0.1c0.1,0,0.2,0,0.3,0c0.5-0.1,0.9-0.1,1.3-0.1c0.1,0,0.1,0,0.2,0l-0.1-0.2l0.9-0.4
					c0.2-0.1,0.4-0.2,0.5-0.3c3.2-1.8,5.1-5.1,5-8.8l-0.1-2.7c-0.9-3.9-0.8-7.8-0.6-11.6c0.1-2.3,0.2-4.7,0-7l0-0.8
					c0-1.2,0-2.6-0.2-3.6l0-0.2l-0.1-3.7c-0.2-5.3-4.6-9.4-9.9-9.2l-4.1,0.1c-3,0.1-5.4,2.7-5.3,5.7l0.9,25.1
					c0.1,0.7,0.1,1.5,0.1,2.2c0,0.5,0,1,0,1.3l0,0.2l0.3,9c0.1,2.8,2.3,5.1,5.1,5.3C373,139.6,373.2,139.6,373.4,139.6z"/>
				<path fill="#B2B2B2" d="M370.2,140.7c-2.4,0-4.9-1.1-7-3.1c-0.2-0.2-0.3-0.3-0.5-0.5c-2.5-2.7-4.4-6-5.6-10
					c-0.1-0.2-0.1-0.4-0.2-0.6c-0.9-2.2-1.8-5.6-1.3-8.2c0-0.2,0-0.4,0-0.6c0-0.8-0.1-1.5-0.1-2.3l0-0.4c0-2.7,0.2-4.3,0.4-6.3
					c0.1-0.7,0.2-1.4,0.2-2.2l0.1-0.5c0.1-0.4,0.1-0.8,0.2-1.1l0.1-0.5c2.1-8.3,6.8-13.6,12.1-13.8l0.9,0l1.1,26.5
					c0.1,1.4,0.3,2.7,0.4,3.9c0.4,3.1,0.7,5.8,0.1,9.2l0.4,10.6l-0.9,0C370.5,140.7,370.3,140.7,370.2,140.7z M367.7,92.4
					c-4.1,0.8-7.7,5.4-9.5,12.4l-0.1,0.4c0,0.3-0.1,0.7-0.2,1l-0.1,0.4c-0.1,0.8-0.2,1.5-0.2,2.2c-0.2,1.9-0.4,3.4-0.4,6.1l0,0.4
					c0,0.7,0,1.5,0.1,2.2c0,0.2,0,0.5,0,0.7l0,0.1l0,0.1c-0.4,2.1,0.3,5.2,1.2,7.3l0,0.1c0.1,0.2,0.1,0.4,0.2,0.7
					c1.1,3.7,2.9,6.8,5.2,9.2c0.1,0.1,0.3,0.3,0.4,0.4c1.6,1.5,3.4,2.4,5.1,2.6l-0.4-8.9l0-0.1c0.5-3.2,0.2-5.8-0.1-8.8
					c-0.1-1.3-0.3-2.6-0.4-4l-0.1-1.4L367.7,92.4z"/>
			</g>
		</g>
		<g>
			<path fill="#B2B2B2" d="M477.9,110c-0.8,0-1.6-0.3-2.5-0.8l-0.6-0.4c-0.4-0.3-0.6-0.8-0.3-1.3c0.3-0.4,0.8-0.6,1.3-0.3l0.5,0.3
				c1.8,1,2.3,0.2,2.5,0c0.3-0.4,0.9-0.5,1.3-0.3c0.4,0.3,0.5,0.9,0.3,1.3C479.8,109.6,478.9,110,477.9,110z"/>
			<path fill="#B2B2B2" d="M483.7,94c-0.1,0-0.3,0-0.4-0.1l-3.2-1.5c-0.5-0.2-0.7-0.8-0.4-1.2c0.2-0.5,0.8-0.7,1.2-0.4l3.2,1.5
				c0.5,0.2,0.7,0.8,0.4,1.2C484.4,93.8,484,94,483.7,94z"/>
		</g>
		<path fill="#B2B2B2" d="M451.1,163.8l-0.3-1.4c-0.8-1.2-1.8-4.2-1.4-5.7l-0.3-1.3l1.4-0.3l0.2,0c0.2,0,0.6,0,1-0.1
			c0.3,0,0.7-0.1,1.1-0.1c1.2,0,2.1,0.5,2.7,1.5l0.2,0.3l-0.1,0.4c0,0.2,0.1,0.8,0.2,1.2c0.2,1.2,0.5,2.6-0.3,3.7
			c-0.6,0.8-1.5,1.2-2.9,1.4L451.1,163.8z M451.4,156.9L451.4,156.9l-0.3,0.4c-0.1,0.5,0.5,3.1,1.2,4.1l0.1,0.2
			c0.5-0.1,1.2-0.2,1.5-0.6c0.4-0.5,0.2-1.4,0-2.3c-0.1-0.5-0.2-1-0.2-1.5c-0.5-0.5-1.1-0.4-1.9-0.3
			C451.7,156.9,451.5,156.9,451.4,156.9z"/>
		<path fill="#B2B2B2" d="M574.6,175.7c-20.1,0-50.1-3-59.4-4.6c-10.7-2-34.8,0.8-35.1,0.9l-0.2,0l-0.2-0.1
			c-2.8-1.2-6.2-1.9-10.3-2.5l-0.4-0.1c-6.9-0.2-12.2-2-15.4-5.3c-0.2-0.2-0.3-0.4-0.5-0.5l1.4-1.2c0.1,0.2,0.3,0.3,0.4,0.5
			c2.9,2.9,7.7,4.6,14.3,4.8l0.5,0.1c4.1,0.6,7.5,1.3,10.5,2.5c2.7-0.3,24.8-2.7,35.4-0.8c10.8,2,49.6,5.6,68,4.4
			c16.3-1.1,107.7-4.4,124.9-2.4c10.6,1.2,18.5,0.5,26.2-0.2c4.6-0.4,9.4-0.8,14.7-0.8c7.8,0,19.9,0.4,30.6,0.8
			c8.5,0.3,16.5,0.5,20.5,0.5H840v1.8h-39.6c-4.1,0-11.7-0.3-20.6-0.5c-10.7-0.4-22.8-0.8-30.5-0.8c-5.2,0-9.9,0.4-14.5,0.8
			c-7.8,0.7-15.9,1.4-26.6,0.2c-17.2-2-108.3,1.2-124.6,2.4C581,175.6,577.9,175.7,574.6,175.7z"/>
	</g>
	<path fill="#B2B2B2" d="M380.8,141.9c-0.1,0-0.2,0-0.3,0c-0.5-0.1-0.8-0.7-0.6-1.1c0.1-0.5,0.3-0.9,0.5-1.4
		c-1.4,0.8-2.9,1.4-4.5,1.9c-0.4,0.1-0.8,0-1.1-0.4c-0.2-0.4-0.2-0.8,0.1-1.1l1.1-1.1c-1.7,1-3.4,2-5.1,2.8
		c-0.4,0.2-0.9,0.1-1.2-0.3c-0.3-0.4-0.2-0.9,0.1-1.2l1.7-1.7c-0.2-0.2-0.2-0.4-0.2-0.6c0.1-2.2,1.1-4.1,2.4-5.8
		c-0.6,0.4-1.1,0.7-1.7,1.1c-0.3,0.2-0.8,0.2-1.1-0.1c-0.3-0.3-0.4-0.7-0.3-1c0.6-1.6,1.6-3.2,2.7-4.6c-1.7,0.9-2.3,0.5-2.6,0.3
		c-0.2-0.2-0.4-0.4-0.4-0.7c-0.1-1.4,1.1-3,2.6-4.7c-0.7,0.3-1.4,0.5-2.2,0.8c-0.4,0.1-0.8-0.1-1-0.4s-0.2-0.8,0.1-1.1
		c0.9-1,1.8-2,2.8-3c-0.9,0.4-1.8,0.7-2.8,0.9c-0.5,0.1-0.9-0.1-1.1-0.6c-0.7-2.2,1.4-4.1,2.1-4.7l0.5-0.5c-0.6-0.1-1.2-0.4-1.6-1
		c-0.3-0.4-0.2-0.9,0.1-1.2l1.5-1.4c-0.3,0.1-0.7,0.2-1,0.3c-0.4,0.1-0.8-0.1-1-0.4c-0.2-0.3-0.2-0.7,0-1.1c0.5-0.7,1-1.3,1.5-2
		c-0.5-0.1-0.9-0.3-1.4-0.5c-0.2-0.1-0.4-0.4-0.4-0.6c0-0.3,0-0.5,0.2-0.7c0.6-0.7,1.3-1.4,1.9-2.1c-0.5,0.1-1.1,0.3-1.6,0.4
		c-0.4,0.1-0.8-0.1-1-0.4s-0.2-0.8,0.1-1.1c1-1.1,2-2.2,3-3.2c-0.4,0.1-0.8,0.2-1.1,0.3c-0.4,0.1-0.8,0-1-0.4
		c-0.2-0.3-0.2-0.8,0-1.1c0.3-0.4,0.6-0.8,1-1.2c-0.3,0-0.7-0.1-0.9-0.4c-0.2-0.4-0.2-0.8,0.1-1.1c0.1-0.1,0.3-0.3,0.4-0.4l-1.6,0.6
		c-0.4,0.2-0.9,0-1.1-0.4c-0.2-0.4-0.2-0.9,0.2-1.2c1.2-1.1,2.6-2,4.2-2.7c0.5-0.2,1,0,1.2,0.5c0,0,0,0,0,0.1L376,90
		c0.5-0.2,1,0,1.2,0.5c0.1,0.2,0.1,0.4,0,0.7c0.3-0.1,0.6-0.3,0.9-0.4c0.4-0.2,1,0,1.2,0.4c0.2,0.4,0.1,1-0.4,1.2
		c-0.9,0.5-1.8,1-2.7,1.4c-0.9,0.6-1.8,1.3-2.7,2c1-0.4,2-0.9,3-1.4c1.5-1.1,3-2.1,4.6-3c0.4-0.2,1-0.1,1.2,0.3
		c0.3,0.4,0.2,0.9-0.2,1.2c-1.5,1.1-3.1,2.2-4.7,3c-1.9,1.4-3.6,2.9-5.2,4.5c0.8-0.3,1.5-0.6,2.2-0.9c2.4-2.1,4.9-4,7.5-5.7
		c0.4-0.2,0.9-0.2,1.2,0.2s0.3,0.9,0,1.2c-2.1,2.5-4.8,4.5-7.7,5.9c-1.3,1.2-2.6,2.5-3.9,3.8c0.3,0,0.7-0.1,1-0.3
		c2.9-3.1,6.3-5.8,9.9-7.9c0.4-0.2,0.9-0.1,1.2,0.2c0.2,0.3,0.3,0.7,0.1,1c0.3-0.1,0.6,0,0.8,0.2c0.4,0.3,0.5,0.8,0.2,1.2
		c-2.2,3.7-5.3,6.6-9,8.6l-3.9,3.8c0.5,0,1.2-0.3,1.8-0.7c0.2-0.1,0.5-0.3,0.7-0.4l9.9-9c0.4-0.3,0.9-0.3,1.2,0
		c0.3,0.3,0.4,0.9,0.1,1.2c-2.9,3.6-6.3,6.7-10.1,9.2l-3.6,3.3c-0.8,0.7-1.2,1.3-1.5,1.8c2.7-0.9,5.2-2.4,7.5-4.1
		c2.1-1.9,4.3-3.8,6.5-5.6c0.4-0.3,1-0.3,1.3,0.1c0.3,0.4,0.3,0.9-0.1,1.3c-2,1.9-4.2,3.9-6.5,5.7c-1.8,1.7-3.5,3.4-5.2,5.1
		c2.6-1.3,4.9-3.1,7-5l3.5-3.2c0.4-0.3,1-0.3,1.3,0c0.3,0.4,0.3,1,0,1.3c-1.1,1.1-2.3,2.2-3.5,3.3l-6.3,5.8
		c-1.8,1.7-2.8,2.8-3.3,3.6c0.6-0.3,1.3-0.8,2.1-1.5l10.6-8.2c0.4-0.3,1-0.2,1.3,0.1c0.3,0.4,0.3,1-0.1,1.3
		c-0.8,0.7-1.6,1.4-2.5,2.1c-3.6,3-7.5,6.3-10,10.1c1.9-1.3,3.8-2.6,5.6-3.9c1.6-1.5,3.2-2.9,4.9-4.3c0.4-0.3,0.9-0.3,1.3,0.1
		c0.3,0.4,0.3,0.9,0,1.3c-1.4,1.5-3.1,2.9-4.9,4.3c-1.5,1.4-2.9,2.9-4.3,4.5c-1,1.1-1.9,2.3-2.6,3.5l10.2-9.4c0.4-0.3,0.9-0.3,1.3,0
		c0.3,0.4,0.3,0.9,0,1.3l-9.8,10c3-1.9,5.8-4,8.5-6.4c0.4-0.3,0.9-0.3,1.3,0c0.3,0.4,0.3,0.9,0,1.3l-5.9,6.1c1.1-0.6,2.1-1.2,3-1.9
		c0.9-1.1,2-2.1,3.3-2.9c0.4-0.2,0.9-0.2,1.2,0.2c0.3,0.4,0.3,0.9,0,1.2c-1,1-2,2-3.1,2.8c-1,1.2-1.7,2.6-2.1,4.1
		C381.6,141.7,381.2,141.9,380.8,141.9z M373.8,106.3c-0.4,0.4-0.8,0.8-1.1,1.3c0.8-0.3,1.5-0.6,2.2-1l3-2.9
		c-0.9,0.7-1.8,1.3-2.8,1.9C374.7,105.9,374.2,106.1,373.8,106.3z"/>
	<path fill="#B2B2B2" d="M445.2,154.9c-0.3,0-0.6-0.2-0.8-0.4c-0.1-0.1-0.1-0.2-0.1-0.3c-1,0.3-2,0.5-3,0.6c-0.4,0-0.7-0.2-0.9-0.5
		c-0.2-0.3-0.1-0.7,0.1-1c0.5-0.5,0.9-1,1.4-1.6c-1.3,0.4-2.6,0.8-4,1.1c-0.3,0.1-0.6,0-0.8-0.2c-0.2-0.2-0.3-0.5-0.3-0.8
		c0.1-1,0.3-1.6,0.8-2c-0.8,0.2-1.5,0.4-2.3,0.5c-0.4,0.1-0.8-0.1-1-0.5c-0.2-0.4-0.1-0.8,0.3-1.1c2.2-1.6,4.3-3.3,6.3-5
		c-1.7,0.6-3.4,1.1-5.1,1.5c-0.4,0.1-0.8-0.1-1-0.5c-0.2-0.4-0.1-0.8,0.2-1.1c1.6-1.6,3.2-3.1,4.9-4.5c-1.5,0.5-2.9,0.8-4.1,0.8
		c-0.3,0-0.5-0.1-0.6-0.3c-0.2-0.2-0.2-0.5-0.2-0.7c0.3-1.8,2.6-3.4,4.5-4.8c0.5-0.3,0.9-0.6,1.2-0.9c-0.4,0.1-0.8,0.2-1.1,0.3
		c-0.4,0.1-0.8-0.1-1-0.4c-0.2-0.4-0.1-0.8,0.2-1.1c1.1-1,2.2-2,3.4-2.9c-0.4,0.1-0.9,0.2-1.3,0.3c-0.3,0.1-0.6,0-0.9-0.2
		c-0.2-0.2-0.3-0.5-0.3-0.9c0.4-2,2.4-3.2,3.5-3.9l2.2-1.4c-1,0.2-1.9,0.4-3,0.5c-0.4,0.1-0.9-0.2-1-0.6c-0.1-0.4,0-0.9,0.4-1.1
		c1.3-0.7,2.5-1.4,3.7-2.1c-0.6,0.1-1.3,0.2-2,0.3c-0.4,0.1-0.8-0.2-1-0.6c-0.1-0.4,0-0.9,0.4-1.1l4.8-3c-0.7,0.3-1.5,0.6-2.2,0.9
		c-0.4,0.2-0.9,0-1.1-0.4c-0.2-0.4-0.2-0.9,0.2-1.2c3-2.7,6.4-5.2,9.8-7.4c0.4-0.3,1-0.1,1.3,0.3s0.1,1-0.3,1.3
		c-1.7,1-3.3,2.2-4.9,3.3c3.3-1.4,6.5-2.9,9.6-4.5c0.4-0.2,1-0.1,1.2,0.4c0.2,0.4,0.1,1-0.3,1.2l-12.6,7.8c1-0.3,2-0.7,3-1.1
		c0,0,0.1-0.1,0.1-0.1c3-1.9,6-3.8,9.9-5.9c0.4-0.2,0.9-0.1,1.2,0.3c0.3,0.4,0.2,0.9-0.2,1.2c-3,2.6-6.5,4.6-10.2,6.1
		c-1.5,1-3.1,1.9-4.7,2.9c1.2-0.3,2.3-0.7,3.4-1.1l12.6-7.9c0.4-0.3,1-0.2,1.2,0.2c0.3,0.4,0.2,0.9-0.2,1.2c-4.2,3.5-8,6.2-12.8,8
		l-7.7,4.8c-0.5,0.3-1,0.7-1.5,1c1.3-0.4,2.7-0.8,4-1.3c5.4-3.7,11.2-6.8,16.9-9.7c0.4-0.2,0.9-0.1,1.2,0.3c0.3,0.4,0.2,0.9-0.2,1.2
		c-2,1.7-4.2,3.2-6.4,4.6c0.9-0.4,1.8-0.8,2.6-1.3c0.4-0.2,0.9,0,1.2,0.4c0.2,0.4,0.2,0.9-0.2,1.2c-4.7,3.9-10.1,7-15.9,9.2
		c-1.4,1-2.8,2.1-4.1,3.2c-0.3,0.3-0.8,0.6-1.3,1c-0.8,0.6-2.1,1.5-3,2.4c2.4-0.5,5.5-2.1,7.4-3.3l13-8.4c0.4-0.3,1-0.2,1.3,0.3
		c0.3,0.4,0.2,1-0.3,1.3c-6.8,4.5-13.9,9.1-20,14.6c2.9-0.9,5.6-2.2,8.2-3.8c2.2-1.8,4.5-3.6,6.9-5.5c0.4-0.3,0.9-0.2,1.2,0.1
		c0.3,0.4,0.3,0.9,0,1.3c-2.1,2.1-4.5,4-7,5.6c-0.9,0.7-1.8,1.5-2.7,2.2c-2,1.7-4.1,3.4-6.2,5.1c2-0.7,4-1.5,5.9-2.6l6.2-4.1
		c0.4-0.3,1-0.2,1.3,0.2c0.3,0.4,0.2,1-0.2,1.3c-2.2,1.7-4.2,3-6.3,4.2l-5.6,3.7c2.1-0.6,4-1.3,5.8-2.4c0.9-0.7,1.8-1.3,2.8-1.9
		c0.4-0.3,1-0.2,1.2,0.2c0.3,0.4,0.2,0.9-0.2,1.3c-0.9,0.8-1.9,1.4-2.8,1.9c-1.2,0.9-2.4,1.9-3.4,3c1.2-0.4,2.3-1,3.3-1.7
		c0.3-0.3,0.8-0.3,1.2,0c0.3,0.3,0.4,0.8,0.2,1.1c-0.7,1.2-1.6,2.2-2.8,3C445.5,154.9,445.4,154.9,445.2,154.9z M447.3,127.3
		c-1.5,1.1-3,2.2-4.4,3.3c0.7-0.2,1.4-0.5,2-0.7c2.2-1.6,4.5-3.1,6.8-4.4C450.2,126.1,448.8,126.7,447.3,127.3z"/>
</g>
</svg>
