<?xml version="1.0" encoding="utf-8"?>
<!-- Generator: Adobe Illustrator 18.0.0, SVG Export Plug-In . SVG Version: 6.00 Build 0)  -->
<!DOCTYPE svg PUBLIC "-//W3C//DTD SVG 1.1//EN" "http://www.w3.org/Graphics/SVG/1.1/DTD/svg11.dtd">
<svg version="1.1" id="Calque_1" xmlns="http://www.w3.org/2000/svg" xmlns:xlink="http://www.w3.org/1999/xlink" x="0px" y="0px"
	 viewBox="420 262.5 120 35" enable-background="new 420 262.5 120 35" xml:space="preserve">
<g>
	<g>
		<path fill="#FF6E57" d="M517,272.8h1.6c0.8,0,1.3,0.1,1.6,0.3s0.5,0.6,0.5,1.1c0,0.3-0.1,0.6-0.3,0.8s-0.5,0.4-0.8,0.4l0,0
			c0.9,0.1,1.3,0.6,1.3,1.4c0,0.5-0.2,0.9-0.5,1.2s-0.8,0.4-1.4,0.4h-2L517,272.8L517,272.8z M517.7,275.3h1.1c0.5,0,0.8-0.1,1-0.2
			s0.3-0.4,0.3-0.7c0-0.3-0.1-0.6-0.3-0.7s-0.6-0.2-1.1-0.2h-1V275.3z M517.7,275.8v2.1h1.2c0.5,0,0.8-0.1,1-0.3s0.3-0.5,0.3-0.8
			c0-0.4-0.1-0.6-0.4-0.8s-0.6-0.2-1.1-0.2L517.7,275.8L517.7,275.8z"/>
		<path fill="#FF6E57" d="M525.4,278.5h-3.2v-5.7h3.2v0.6h-2.5v1.8h2.4v0.6h-2.4v2.1h2.5V278.5z"/>
		<path fill="#FF6E57" d="M528.4,278.5h-0.7v-5.1h-1.8v-0.6h4.3v0.6h-1.8V278.5z"/>
		<path fill="#FF6E57" d="M534.7,278.5l-0.7-1.8h-2.3l-0.7,1.8h-0.7l2.3-5.7h0.6l2.2,5.7H534.7z M533.8,276.1l-0.7-1.8
			c-0.1-0.2-0.2-0.5-0.3-0.8c-0.1,0.2-0.1,0.5-0.2,0.8l-0.7,1.8H533.8z"/>
	</g>
	<g>
		<path fill="#FF6E57" d="M435.5,282.7c0,0.6-0.5,1-1,1h-5.6c-0.6,0-1-0.5-1-1v-0.4v-5.2c0-0.6,0.5-1,1-1h5.6c0.6,0,1,0.5,1,1V282.7
			z M434.5,272.5h-5.6c-2.5,0-4.6,2.1-4.6,4.6v5.2v0.4V295h3.6v-7.8c0.3,0.1,0.7,0.1,1,0.1h5.6c2.5,0,4.6-2.1,4.6-4.6v-5.6
			C439.1,274.6,437,272.5,434.5,272.5"/>
	</g>
	<rect x="441.5" y="265" fill="#FF6E57" width="3.6" height="22.3"/>
	<g>
		<path fill="#FF6E57" d="M514.3,280L514.3,280v-1.5h-11.1v-2.1c0-0.2,0.2-0.4,0.4-0.4h7.1c0.2,0,0.4,0.2,0.4,0.4v0.7h3.2v-0.7
			c0-1-0.4-1.9-1.1-2.5c-0.7-0.7-1.6-1.1-2.5-1.1l0,0h-7.1c-1,0-1.9,0.4-2.5,1.1c-0.7,0.7-1.1,1.6-1.1,2.5v2.1l0,0v2.7h11.1v2.3
			c0,0.2-0.2,0.4-0.4,0.4h-7.1c-0.2,0-0.4-0.2-0.4-0.4v-0.8H500v0.8c0,2,1.6,3.6,3.6,3.6l0,0h7.1c2,0,3.6-1.6,3.6-3.6V280z"/>
		<path fill="#FF6E57" d="M487.2,276.1h5.6c0.6,0,1,0.5,1,1v1.4h-7.6v-1.4C486.1,276.6,486.6,276.1,487.2,276.1 M497.4,281.2v-2.7
			l0,0v-1.4c0-2.5-2.1-4.6-4.6-4.6h-5.6c-2.5,0-4.6,2.1-4.6,4.6v5.6c0,2.5,2.1,4.6,4.6,4.6h5.6c2.5,0,4.6-2.1,4.6-4.6h-3.6
			c0,0.6-0.5,1-1,1h-5.6c-0.6,0-1-0.5-1-1v-1.5H497.4z"/>
		<path fill="#FF6E57" d="M476.4,281.2v1.5c0,0.6-0.5,1-1,1h-5.6c-0.6,0-1-0.5-1-1v-5.6c0-0.6,0.5-1,1-1h5.6c0.6,0,1,0.5,1,1v1.4
			h3.6v-1.4c0-2.5-2.1-4.6-4.6-4.6h-5.6c-2.5,0-4.6,2.1-4.6,4.6v5.6c0,2.5,2.1,4.6,4.6,4.6h5.6c2.5,0,4.6-2.1,4.6-4.6v-1.5H476.4z"
			/>
		<path fill="#FF6E57" d="M451.4,282.7v-5.6c0-0.6,0.5-1,1-1h5.6c0.6,0,1,0.5,1,1v5.6c0,0.6-0.5,1-1,1h-5.6
			C451.8,283.8,451.4,283.3,451.4,282.7 M462.6,277.1c0-2.5-2.1-4.6-4.6-4.6h-5.6c-2.5,0-4.6,2.1-4.6,4.6v5.6c0,2.5,2.1,4.6,4.6,4.6
			h5.6c0,0,0,0,0.1,0h1h2.4h1.1v-4.6l0,0V277.1z"/>
	</g>
</g>
</svg>
