<?xml version="1.0" encoding="utf-8"?>
<!-- Generator: Adobe Illustrator 18.0.0, SVG Export Plug-In . SVG Version: 6.00 Build 0)  -->
<!DOCTYPE svg PUBLIC "-//W3C//DTD SVG 1.1//EN" "http://www.w3.org/Graphics/SVG/1.1/DTD/svg11.dtd">
<svg version="1.1" id="Calque_1" xmlns="http://www.w3.org/2000/svg" xmlns:xlink="http://www.w3.org/1999/xlink" x="0px" y="0px"
	 viewBox="470 270 20 20" enable-background="new 470 270 20 20" xml:space="preserve">
<g>
	<path fill="#879499" d="M479.7,284.1c-2.1,0-3.7-1.8-3.7-3.9c0-2.2,1.7-3.9,3.7-3.9c2.1,0,3.7,1.8,3.7,3.9
		C483.4,282.3,481.8,284.1,479.7,284.1 M486,282.2l-1.3-0.9c0.1-0.4,0.1-0.7,0.1-1.1s0-0.7-0.1-1.1l1.3-0.9c0.2-0.1,0.3-0.4,0.1-0.6
		l-1.4-2.3c-0.1-0.1-0.2-0.2-0.3-0.2c-0.1,0-0.2,0-0.3,0.1l-1.4,0.9c-0.4-0.3-0.8-0.6-1.3-0.8v-1.7c0-0.3-0.2-0.5-0.4-0.5h-2.6
		c-0.2,0-0.4,0.2-0.4,0.5v1.7c-0.5,0.2-0.9,0.4-1.3,0.8l-1.4-0.9c-0.2-0.1-0.5-0.1-0.6,0.1l-1.4,2.3c-0.1,0.2-0.1,0.5,0.1,0.6
		l1.3,0.9c-0.1,0.4-0.1,0.7-0.1,1.1s0,0.8,0.1,1.1l-1.3,0.9c-0.2,0.1-0.3,0.4-0.1,0.6l1.4,2.3c0.1,0.1,0.2,0.2,0.4,0.2
		c0.1,0,0.2,0,0.2-0.1l1.4-0.9c0.4,0.3,0.8,0.6,1.3,0.8v1.7c0,0.3,0.2,0.5,0.4,0.5h2.6c0.2,0,0.4-0.2,0.4-0.5v-1.7
		c0.5-0.2,0.9-0.4,1.3-0.8l1.4,0.9c0.1,0,0.2,0.1,0.2,0.1h0.1c0.1,0,0.2-0.1,0.3-0.2l1.4-2.3C486.3,282.6,486.2,282.3,486,282.2"/>
</g>
</svg>
