<?xml version="1.0" encoding="utf-8"?>
<!-- Generator: Adobe Illustrator 18.0.0, SVG Export Plug-In . SVG Version: 6.00 Build 0)  -->
<!DOCTYPE svg PUBLIC "-//W3C//DTD SVG 1.1//EN" "http://www.w3.org/Graphics/SVG/1.1/DTD/svg11.dtd">
<svg version="1.1" id="Calque_1" xmlns="http://www.w3.org/2000/svg" xmlns:xlink="http://www.w3.org/1999/xlink" x="0px" y="0px"
	 viewBox="470 270 20 20" enable-background="new 470 270 20 20" xml:space="preserve">
<g>
	<rect x="470.5" y="270.5" fill="#54CFF5" width="19.1" height="19.1"/>
	<path fill="#FFFFFF" d="M481.6,273.4v2.3h2.3c0.5,0,0.8,0.4,0.8,0.8v7.3c0,0.4-0.4,0.8-0.8,0.8h-2.3v2.3h2.3c1.8,0,3.3-1.4,3.3-3.2
		v-7.3c0-1.8-1.5-3.2-3.3-3.2H481.6z"/>
	<path fill="#FFFFFF" d="M471.5,270.5h-1v2.2l2.4,2.3v8.8c0,1.7,1.5,3.2,3.3,3.2h2.3v-2.3h-2.3c-0.5,0-0.8-0.4-0.8-0.8v-7.3
		c0-0.4,0.4-0.8,0.8-0.8h2.3v-2.2h-3.9L471.5,270.5z"/>
</g>
</svg>
