<?xml version="1.0" encoding="utf-8"?>
<!-- Generator: Adobe Illustrator 18.0.0, SVG Export Plug-In . SVG Version: 6.00 Build 0)  -->
<!DOCTYPE svg PUBLIC "-//W3C//DTD SVG 1.1//EN" "http://www.w3.org/Graphics/SVG/1.1/DTD/svg11.dtd">
<svg version="1.1" id="Calque_1" xmlns="http://www.w3.org/2000/svg" xmlns:xlink="http://www.w3.org/1999/xlink" x="0px" y="0px"
	 viewBox="430 264 100 32" enable-background="new 430 264 100 32" xml:space="preserve">
<g>
	<g>
		<path fill="#FF6E57" d="M446.2,282.7c0,0.6-0.5,1-1,1h-5.6c-0.6,0-1-0.5-1-1v-0.4v-5.2c0-0.6,0.5-1,1-1h5.6c0.6,0,1,0.5,1,1V282.7
			z M445.2,272.5h-5.6c-2.5,0-4.6,2.1-4.6,4.6v5.2v0.4V295h3.6v-7.8c0.3,0.1,0.7,0.1,1,0.1h5.6c2.5,0,4.6-2.1,4.6-4.6v-5.6
			C449.8,274.6,447.7,272.5,445.2,272.5"/>
	</g>
	<rect x="452.2" y="265" fill="#FF6E57" width="3.6" height="22.3"/>
	<g>
		<path fill="#FF6E57" d="M525,280L525,280v-1.5h-11.1v-2.1c0-0.2,0.2-0.4,0.4-0.4h7.1c0.2,0,0.4,0.2,0.4,0.4v0.7h3.2v-0.7
			c0-1-0.4-1.9-1.1-2.5c-0.7-0.7-1.6-1.1-2.5-1.1l0,0h-7.1c-1,0-1.9,0.4-2.5,1.1c-0.7,0.7-1.1,1.6-1.1,2.5v2.1l0,0v2.7h11.1v2.3
			c0,0.2-0.2,0.4-0.4,0.4h-7.1c-0.2,0-0.4-0.2-0.4-0.4v-0.8h-3.2v0.8c0,2,1.6,3.6,3.6,3.6l0,0h7.1c2,0,3.6-1.6,3.6-3.6V280z"/>
		<path fill="#FF6E57" d="M497.9,276.1h5.6c0.6,0,1,0.5,1,1v1.4h-7.6v-1.4C496.9,276.6,497.3,276.1,497.9,276.1 M508.1,281.2v-2.7
			l0,0v-1.4c0-2.5-2.1-4.6-4.6-4.6h-5.6c-2.5,0-4.6,2.1-4.6,4.6v5.6c0,2.5,2.1,4.6,4.6,4.6h5.6c2.5,0,4.6-2.1,4.6-4.6h-3.6
			c0,0.6-0.5,1-1,1h-5.6c-0.6,0-1-0.5-1-1v-1.5H508.1z"/>
		<path fill="#FF6E57" d="M487.1,281.2v1.5c0,0.6-0.5,1-1,1h-5.6c-0.6,0-1-0.5-1-1v-5.6c0-0.6,0.5-1,1-1h5.6c0.6,0,1,0.5,1,1v1.4
			h3.6v-1.4c0-2.5-2.1-4.6-4.6-4.6h-5.6c-2.5,0-4.6,2.1-4.6,4.6v5.6c0,2.5,2.1,4.6,4.6,4.6h5.6c2.5,0,4.6-2.1,4.6-4.6v-1.5H487.1z"
			/>
		<path fill="#FF6E57" d="M462.1,282.7v-5.6c0-0.6,0.5-1,1-1h5.6c0.6,0,1,0.5,1,1v5.6c0,0.6-0.5,1-1,1h-5.6
			C462.6,283.8,462.1,283.3,462.1,282.7 M473.3,277.1c0-2.5-2.1-4.6-4.6-4.6h-5.6c-2.5,0-4.6,2.1-4.6,4.6v5.6c0,2.5,2.1,4.6,4.6,4.6
			h5.6c0,0,0,0,0.1,0h1h2.4h1.1v-4.6l0,0V277.1z"/>
	</g>
</g>
</svg>
