<?xml version="1.0" encoding="UTF-8" standalone="no"?>
<!-- Generator: Adobe Illustrator 18.0.0, SVG Export Plug-In . SVG Version: 6.00 Build 0)  -->

<svg
   xmlns:dc="http://purl.org/dc/elements/1.1/"
   xmlns:cc="http://creativecommons.org/ns#"
   xmlns:rdf="http://www.w3.org/1999/02/22-rdf-syntax-ns#"
   xmlns:svg="http://www.w3.org/2000/svg"
   xmlns="http://www.w3.org/2000/svg"
   xmlns:sodipodi="http://sodipodi.sourceforge.net/DTD/sodipodi-0.dtd"
   xmlns:inkscape="http://www.inkscape.org/namespaces/inkscape"
   version="1.1"
   id="Calque_1"
   x="0px"
   y="0px"
   viewBox="0 0 533.01497 159.85054"
   enable-background="new 0 0 840 195"
   xml:space="preserve"
   inkscape:version="0.48.2 r9819"
   width="100%"
   height="100%"
   sodipodi:docname="NG_Places.svg"><metadata
   id="metadata115"><rdf:RDF><cc:Work
       rdf:about=""><dc:format>image/svg+xml</dc:format><dc:type
         rdf:resource="http://purl.org/dc/dcmitype/StillImage" /><dc:title></dc:title></cc:Work></rdf:RDF></metadata><defs
   id="defs113" /><sodipodi:namedview
   pagecolor="#ffffff"
   bordercolor="#666666"
   borderopacity="1"
   objecttolerance="10"
   gridtolerance="10"
   guidetolerance="10"
   inkscape:pageopacity="0"
   inkscape:pageshadow="2"
   inkscape:window-width="1487"
   inkscape:window-height="858"
   id="namedview111"
   showgrid="false"
   inkscape:zoom="0.8"
   inkscape:cx="549.2304"
   inkscape:cy="44.361834"
   inkscape:window-x="133"
   inkscape:window-y="31"
   inkscape:window-maximized="0"
   inkscape:current-layer="Calque_1"
   showborder="true"
   fit-margin-top="0"
   fit-margin-left="0"
   fit-margin-right="0"
   fit-margin-bottom="0" />

<g
   id="g7"
   transform="translate(-158.38503,-25.211959)">
	<path
   d="m 389.5,108.1 h 2.7 v 1.6 h -2.7 v 6.9 h -1.6 v -6.9 h -1.6 v -1.6 h 1.6 c 0,-2.3 1.9,-4.3 4.3,-4.3 v 1.6 c -1.5,0 -2.7,1.2 -2.7,2.7 z"
   id="path9"
   inkscape:connector-curvature="0"
   style="fill:#ffffff" />
	<path
   d="m 392.4,112.3 c 0,-2.3 1.9,-4.3 4.3,-4.3 2.4,0 4.3,1.9 4.3,4.3 0,0.3 0,0.6 -0.1,0.8 h -6.7 c 0.3,1.1 1.3,1.9 2.5,1.9 0.7,0 1.4,-0.3 1.9,-0.8 h 1.9 c -0.7,1.4 -2.1,2.4 -3.8,2.4 -2.4,0 -4.3,-1.9 -4.3,-4.3 z m 1.7,-0.8 h 5.1 c -0.4,-1.1 -1.4,-1.9 -2.5,-1.9 -1.3,0.1 -2.3,0.9 -2.6,1.9 z"
   id="path11"
   inkscape:connector-curvature="0"
   style="fill:#ffffff" />
	<path
   d="m 410.6,112.3 v 4.3 H 409 v -0.9 c -0.7,0.6 -1.7,0.9 -2.7,0.9 -2.4,0 -4.3,-1.9 -4.3,-4.3 0,-2.4 1.9,-4.3 4.3,-4.3 2.4,0 4.3,2 4.3,4.3 z m -1.6,0 c 0,-1.5 -1.2,-2.7 -2.7,-2.7 -1.5,0 -2.7,1.2 -2.7,2.7 0,1.5 1.2,2.7 2.7,2.7 1.5,0 2.7,-1.2 2.7,-2.7 z"
   id="path13"
   inkscape:connector-curvature="0"
   style="fill:#ffffff" />
	<path
   d="m 414.1,108.1 h 2.7 v 1.6 h -2.7 v 6.9 h -1.6 v -6.9 h -1.6 v -1.6 h 1.6 v -4.3 h 1.6 v 4.3 z"
   id="path15"
   inkscape:connector-curvature="0"
   style="fill:#ffffff" />
	<path
   d="m 424.9,108.1 h 1.6 v 4.3 c 0,2.4 -1.9,4.3 -4.3,4.3 -2.4,0 -4.3,-1.9 -4.3,-4.3 v -4.3 h 1.6 v 4.3 c 0,1.5 1.2,2.7 2.7,2.7 1.5,0 2.7,-1.2 2.7,-2.7 v -4.3 z"
   id="path17"
   inkscape:connector-curvature="0"
   style="fill:#ffffff" />
	<path
   d="m 432,108.1 v 1.6 c -1.5,0 -2.6,1.2 -2.6,2.7 v 4.3 h -1.6 v -4.3 c -0.1,-2.4 1.9,-4.3 4.2,-4.3 z"
   id="path19"
   inkscape:connector-curvature="0"
   style="fill:#ffffff" />
	<path
   d="M 434.6,106.5 H 433 v -1.6 h 1.6 v 1.6 z m -1.6,1.6 h 1.6 v 8.5 H 433 v -8.5 z"
   id="path21"
   inkscape:connector-curvature="0"
   style="fill:#ffffff" />
	<path
   d="m 437.5,116.6 h -1.6 v -4.3 c 0,-2.4 1.9,-4.3 4.3,-4.3 2.4,0 4.3,1.9 4.3,4.3 v 4.3 h -1.6 v -4.3 c 0,-1.5 -1.2,-2.7 -2.7,-2.7 -1.5,0 -2.7,1.2 -2.7,2.7 v 4.3 z"
   id="path23"
   inkscape:connector-curvature="0"
   style="fill:#ffffff" />
	<path
   d="m 452.5,116.6 v -0.9 c -0.7,0.6 -1.7,0.9 -2.7,0.9 -2.3,0 -4.3,-1.9 -4.3,-4.3 0,-2.4 1.9,-4.3 4.3,-4.3 2.4,0 4.3,1.9 4.3,4.3 v 4.2 0 c 0,2.3 -1.9,4.3 -4.3,4.3 -2,0 -3.6,-1.4 -4.1,-3.2 h 1.7 c 0.4,0.9 1.4,1.6 2.4,1.6 1.5,0 2.7,-1.2 2.7,-2.6 l 0,0 z m 0,-4.3 c 0,-1.5 -1.2,-2.7 -2.7,-2.7 -1.5,0 -2.6,1.2 -2.6,2.7 0,1.5 1.2,2.6 2.6,2.6 1.4,0 2.7,-1.1 2.7,-2.6 z"
   id="path25"
   inkscape:connector-curvature="0"
   style="fill:#ffffff" />
</g>
<g
   id="g27"
   transform="translate(-158.38503,-25.211959)">
	<path
   stroke-miterlimit="10"
   d="M 180.6,166.5 H 174 v -17.9 c 0,-9.9 8,-17.9 17.9,-17.9 9.9,0 17.9,8 17.9,17.9 v 17.9 H 203 v -17.9 c 0,-6.2 -5,-11.2 -11.2,-11.2 -6.2,0 -11.2,5 -11.2,11.2 v 17.9 z"
   id="path29"
   inkscape:connector-curvature="0"
   style="fill:#ffffff;stroke:#ffffff;stroke-width:1.30499995;stroke-miterlimit:10" />
	<path
   stroke-miterlimit="10"
   d="m 214.9,148.7 c 0,-9.8 8,-17.9 17.9,-17.9 9.9,0 17.9,8.1 17.9,17.9 0,1.2 -0.2,2.3 -0.3,3.4 h -28.2 c 1.4,4.5 5.6,7.8 10.7,7.8 3.1,0 5.9,-1.3 8,-3.3 h 8.1 c -2.9,5.9 -9,10 -16,10 -10.1,-0.1 -18.1,-8 -18.1,-17.9 z m 7.2,-3.3 h 21.3 c -1.5,-4.5 -5.7,-7.8 -10.7,-7.8 -5,0 -9.2,3.3 -10.6,7.8 z"
   id="path31"
   inkscape:connector-curvature="0"
   style="fill:#ffffff;stroke:#ffffff;stroke-width:1.30499995;stroke-miterlimit:10" />
	<path
   stroke-miterlimit="10"
   d="m 303.5,130.8 h 7.2 l -14.2,35.7 h -3.6 -3.6 l -8.7,-21.8 -8.7,21.8 h -3.6 -3.6 l -14.3,-35.7 h 7.3 l 10.6,26.7 8,-20 h 8.6 l 8,20 10.6,-26.7 z"
   id="path33"
   inkscape:connector-curvature="0"
   style="fill:#ffffff;stroke:#ffffff;stroke-width:1.30499995;stroke-miterlimit:10" />
	<path
   stroke-miterlimit="10"
   d="m 370.9,166.4 v -3.9 c -3,2.5 -6.9,4 -11.2,4 -9.8,0 -17.9,-8.1 -17.9,-17.9 0,-9.9 8.1,-17.9 17.9,-17.9 9.9,0 17.9,8 17.9,17.9 v 17.8 0.1 c 0,9.8 -8,17.9 -17.9,17.9 -8.3,0 -15.3,-5.7 -17.2,-13.4 h 7 c 1.7,3.9 5.7,6.7 10.2,6.7 6.1,-0.1 11.2,-5 11.2,-11.3 l 0,0 z m 0,-17.7 c 0,-6.2 -5,-11.2 -11.2,-11.2 -6.2,0 -11.1,5 -11.1,11.2 0,6.2 4.9,11.1 11.1,11.1 6.2,0 11.2,-5 11.2,-11.1 z"
   id="path35"
   inkscape:connector-curvature="0"
   style="fill:#ffffff;stroke:#ffffff;stroke-width:1.30499995;stroke-miterlimit:10" />
	<path
   stroke-miterlimit="10"
   d="m 381.7,148.7 c 0,-9.8 8,-17.9 17.9,-17.9 9.9,0 17.9,8.1 17.9,17.9 0,1.2 -0.2,2.3 -0.3,3.4 H 389 c 1.4,4.5 5.6,7.8 10.7,7.8 3.1,0 5.9,-1.3 8,-3.3 h 8.1 c -2.9,5.9 -9,10 -16,10 -10.1,-0.1 -18.1,-8 -18.1,-17.9 z m 7.2,-3.3 h 21.3 c -1.5,-4.5 -5.7,-7.8 -10.7,-7.8 -5,0 -9.2,3.3 -10.6,7.8 z"
   id="path37"
   inkscape:connector-curvature="0"
   style="fill:#ffffff;stroke:#ffffff;stroke-width:1.30499995;stroke-miterlimit:10" />
	<path
   stroke-miterlimit="10"
   d="m 429.3,166.5 h -6.7 v -17.9 c 0,-9.9 8,-17.9 17.9,-17.9 9.9,0 17.9,8 17.9,17.9 v 17.9 h -6.7 v -17.9 c 0,-6.2 -5,-11.2 -11.2,-11.2 -6.2,0 -11.2,5 -11.2,11.2 v 17.9 z"
   id="path39"
   inkscape:connector-curvature="0"
   style="fill:#ffffff;stroke:#ffffff;stroke-width:1.30499995;stroke-miterlimit:10" />
	<path
   stroke-miterlimit="10"
   d="m 463.5,148.7 c 0,-9.8 8,-17.9 17.9,-17.9 9.9,0 17.9,8.1 17.9,17.9 0,1.2 -0.2,2.3 -0.3,3.4 h -28.2 c 1.4,4.5 5.6,7.8 10.7,7.8 3.1,0 5.9,-1.3 8,-3.3 h 8.1 c -2.9,5.9 -9,10 -16,10 -10.1,-0.1 -18.1,-8 -18.1,-17.9 z m 7.2,-3.3 H 492 c -1.5,-4.5 -5.7,-7.8 -10.7,-7.8 -5,0 -9.2,3.3 -10.6,7.8 z"
   id="path41"
   inkscape:connector-curvature="0"
   style="fill:#ffffff;stroke:#ffffff;stroke-width:1.30499995;stroke-miterlimit:10" />
	<path
   stroke-miterlimit="10"
   d="m 522.3,130.8 v 6.7 c -6.2,0 -11.1,5 -11.1,11.2 v 17.9 h -6.8 v -17.9 c 0,-9.9 8.1,-17.9 17.9,-17.9 z"
   id="path43"
   inkscape:connector-curvature="0"
   style="fill:#ffffff;stroke:#ffffff;stroke-width:1.30499995;stroke-miterlimit:10" />
	<path
   stroke-miterlimit="10"
   d="m 559,148.7 v 17.9 h -6.7 v -3.9 c -3.1,2.4 -6.9,3.9 -11.2,3.9 -9.9,0 -17.9,-8 -17.9,-17.9 0,-9.9 8,-17.9 17.9,-17.9 9.9,0 17.9,8 17.9,17.9 z m -6.7,0 c 0,-6.2 -5,-11.2 -11.2,-11.2 -6.2,0 -11.2,5 -11.2,11.2 0,6.2 5,11.2 11.2,11.2 6.2,0 11.2,-5.1 11.2,-11.2 z"
   id="path45"
   inkscape:connector-curvature="0"
   style="fill:#ffffff;stroke:#ffffff;stroke-width:1.30499995;stroke-miterlimit:10" />
	<path
   stroke-miterlimit="10"
   d="m 573.6,130.8 h 11.2 v 6.7 h -11.2 v 29 h -6.7 v -29 h -6.7 v -6.7 h 6.7 V 113 h 6.7 v 17.8 z"
   id="path47"
   inkscape:connector-curvature="0"
   style="fill:#ffffff;stroke:#ffffff;stroke-width:1.30499995;stroke-miterlimit:10" />
	<path
   stroke-miterlimit="10"
   d="m 596.7,124.1 h -6.8 v -6.7 h 6.8 v 6.7 z m -6.8,6.7 h 6.8 v 35.7 h -6.8 v -35.7 z"
   id="path49"
   inkscape:connector-curvature="0"
   style="fill:#ffffff;stroke:#ffffff;stroke-width:1.30499995;stroke-miterlimit:10" />
	<path
   stroke-miterlimit="10"
   d="m 637.6,148.7 c 0,9.8 -8,17.9 -17.9,17.9 -9.9,0 -17.9,-8.1 -17.9,-17.9 0,-9.9 8,-17.9 17.9,-17.9 9.9,0 17.9,8 17.9,17.9 z m -6.7,0 c 0,-6.2 -5,-11.2 -11.2,-11.2 -6.2,0 -11.2,5 -11.2,11.2 0,6.2 5,11.1 11.2,11.1 6.2,0 11.2,-5 11.2,-11.1 z"
   id="path51"
   inkscape:connector-curvature="0"
   style="fill:#ffffff;stroke:#ffffff;stroke-width:1.30499995;stroke-miterlimit:10" />
	<path
   stroke-miterlimit="10"
   d="m 649.5,166.5 h -6.7 v -17.9 c 0,-9.9 8,-17.9 17.9,-17.9 9.9,0 17.9,8 17.9,17.9 v 17.9 h -6.7 v -17.9 c 0,-6.2 -5,-11.2 -11.2,-11.2 -6.2,0 -11.2,5 -11.2,11.2 v 17.9 z"
   id="path53"
   inkscape:connector-curvature="0"
   style="fill:#ffffff;stroke:#ffffff;stroke-width:1.30499995;stroke-miterlimit:10" />
</g>
<g
   id="g55"
   transform="translate(-158.38503,-25.211959)">
	<g
   id="g57">
		<g
   id="g59">
			<path
   d="M 408.7,49.7 H 404 V 45 h 4.8 v 4.7 z m -4.7,4.8 h 4.8 V 79.7 H 404 V 54.5 z"
   id="path61"
   inkscape:connector-curvature="0"
   style="fill:#ffffff" />
			<path
   d="m 417.1,79.7 h -4.7 V 67.1 c 0,-7 5.6,-12.6 12.6,-12.6 7,0 12.6,5.6 12.6,12.6 v 12.6 h -4.7 V 67.1 c 0,-4.3 -3.6,-7.9 -7.9,-7.9 -4.3,0 -7.9,3.6 -7.9,7.9 v 12.6 z"
   id="path63"
   inkscape:connector-curvature="0"
   style="fill:#ffffff" />
			<path
   d="m 450.7,54.5 h 7.9 v 4.7 h -7.9 V 79.7 H 446 V 59.2 h -4.7 V 54.5 H 446 V 41.9 h 4.7 v 12.6 z"
   id="path65"
   inkscape:connector-curvature="0"
   style="fill:#ffffff" />
			<path
   d="m 458.6,67.1 c 0,-6.9 5.6,-12.6 12.6,-12.6 7,0 12.6,5.7 12.6,12.6 0,0.9 -0.1,1.7 -0.2,2.4 h -19.9 c 1,3.2 4,5.5 7.5,5.5 2.2,0 4.2,-0.9 5.6,-2.3 h 5.7 c -2,4.2 -6.4,7 -11.3,7 -6.9,0 -12.6,-5.6 -12.6,-12.6 z m 5.1,-2.3 h 15.1 c -1,-3.2 -4,-5.5 -7.5,-5.5 -3.6,0 -6.6,2.3 -7.6,5.5 z"
   id="path67"
   inkscape:connector-curvature="0"
   style="fill:#ffffff" />
			<path
   d="m 500.2,54.5 v 4.7 c -4.3,0 -7.8,3.6 -7.8,7.9 v 12.6 h -4.8 V 67.1 c -0.1,-7 5.6,-12.6 12.6,-12.6 z"
   id="path69"
   inkscape:connector-curvature="0"
   style="fill:#ffffff" />
			<path
   d="m 505.6,79.7 h -4.7 V 67.1 c 0,-7 5.6,-12.6 12.6,-12.6 7,0 12.6,5.6 12.6,12.6 v 12.6 h -4.7 V 67.1 c 0,-4.3 -3.6,-7.9 -7.9,-7.9 -4.3,0 -7.9,3.6 -7.9,7.9 v 12.6 z"
   id="path71"
   inkscape:connector-curvature="0"
   style="fill:#ffffff" />
			<path
   d="m 555,67.1 v 12.6 h -4.7 V 77 c -2.2,1.7 -4.9,2.8 -7.9,2.8 -7,0 -12.6,-5.6 -12.6,-12.6 0,-7 5.6,-12.6 12.6,-12.6 7,0 12.6,5.5 12.6,12.5 z m -4.7,0 c 0,-4.3 -3.6,-7.9 -7.9,-7.9 -4.3,0 -7.9,3.6 -7.9,7.9 0,4.3 3.6,7.9 7.9,7.9 4.3,0 7.9,-3.5 7.9,-7.9 z"
   id="path73"
   inkscape:connector-curvature="0"
   style="fill:#ffffff" />
			<path
   d="m 565.3,54.5 h 7.9 v 4.7 h -7.9 v 20.5 h -4.7 V 59.2 h -4.7 v -4.7 h 4.7 V 41.9 h 4.7 v 12.6 z"
   id="path75"
   inkscape:connector-curvature="0"
   style="fill:#ffffff" />
			<path
   d="m 581.7,49.7 h -4.8 V 45 h 4.8 v 4.7 z m -4.8,4.8 h 4.8 v 25.2 h -4.8 V 54.5 z"
   id="path77"
   inkscape:connector-curvature="0"
   style="fill:#ffffff" />
			<path
   d="m 610.6,67.1 c 0,6.9 -5.6,12.6 -12.6,12.6 -7,0 -12.6,-5.7 -12.6,-12.6 0,-7 5.6,-12.6 12.6,-12.6 7,0 12.6,5.6 12.6,12.6 z m -4.8,0 c 0,-4.3 -3.6,-7.9 -7.9,-7.9 -4.3,0 -7.9,3.6 -7.9,7.9 0,4.3 3.6,7.8 7.9,7.8 4.3,0 7.9,-3.4 7.9,-7.8 z"
   id="path79"
   inkscape:connector-curvature="0"
   style="fill:#ffffff" />
			<path
   d="m 618.9,79.7 h -4.7 V 67.1 c 0,-7 5.6,-12.6 12.6,-12.6 7,0 12.6,5.6 12.6,12.6 v 12.6 h -4.7 V 67.1 c 0,-4.3 -3.6,-7.9 -7.9,-7.9 -4.3,0 -7.9,3.6 -7.9,7.9 v 12.6 z"
   id="path81"
   inkscape:connector-curvature="0"
   style="fill:#ffffff" />
			<path
   d="m 668.4,67.1 v 12.6 h -4.7 V 77 c -2.2,1.7 -4.9,2.8 -7.9,2.8 -7,0 -12.6,-5.6 -12.6,-12.6 0,-7 5.6,-12.6 12.6,-12.6 7,0 12.6,5.5 12.6,12.5 z m -4.8,0 c 0,-4.3 -3.6,-7.9 -7.9,-7.9 -4.3,0 -7.9,3.6 -7.9,7.9 0,4.3 3.6,7.9 7.9,7.9 4.3,0 7.9,-3.5 7.9,-7.9 z"
   id="path83"
   inkscape:connector-curvature="0"
   style="fill:#ffffff" />
			<path
   d="m 672,41.9 h 4.8 V 79.7 H 672 V 41.9 z"
   id="path85"
   inkscape:connector-curvature="0"
   style="fill:#ffffff" />
		</g>
	</g>
</g>
<g
   id="g87"
   transform="translate(-158.38503,-25.211959)">
	
		<rect
   x="158.2"
   y="32.400002"
   transform="matrix(0.7071,0.7071,-0.7071,0.7071,76.1493,-109.5613)"
   width="24.200001"
   height="9.5"
   id="rect89"
   style="fill:#ffffff" />
	<path
   d="m 255.9,79.7 h -17 v -17 c 0,-4.4 3.6,-8 8,-8 h 9 c 4.4,0 8,3.6 8,8 v 9 c -0.1,4.4 -3.6,8 -8,8 z m -11.4,-5.6 h 11.4 c 1.3,0 2.4,-1.1 2.4,-2.4 v -9 c 0,-1.3 -1.1,-2.4 -2.4,-2.4 h -9 c -1.3,0 -2.4,1.1 -2.4,2.4 v 11.4 z"
   id="path91"
   inkscape:connector-curvature="0"
   style="fill:#ffffff" />
	<rect
   x="238.89999"
   y="65.800003"
   width="5.5999999"
   height="30.5"
   id="rect93"
   style="fill:#ffffff" />
	<path
   d="m 300,79.7 h -17 c -4.4,0 -8,-3.6 -8,-8 v -9 c 0,-4.4 3.6,-8 8,-8 h 9 c 4.4,0 8,3.6 8,8 v 17 z M 283,60.3 c -1.3,0 -2.4,1.1 -2.4,2.4 v 9 c 0,1.3 1.1,2.4 2.4,2.4 h 11.4 V 62.7 c 0,-1.3 -1.1,-2.4 -2.4,-2.4 h -9 z"
   id="path95"
   inkscape:connector-curvature="0"
   style="fill:#ffffff" />
	<rect
   x="266.70001"
   y="38.099998"
   width="5.5999999"
   height="41.299999"
   id="rect97"
   style="fill:#ffffff" />
	<path
   d="m 355.6,79.7 h -17 c -4.4,0 -8,-3.6 -8,-8 v -9 c 0,-4.4 3.6,-8 8,-8 h 9 c 4.4,0 8,3.6 8,8 V 70 h -19.4 v 1.7 c 0,1.3 1.1,2.4 2.4,2.4 h 17 v 5.6 z M 336.2,64.4 H 350 v -1.7 c 0,-1.3 -1.1,-2.4 -2.4,-2.4 h -9 c -1.3,0 -2.4,1.1 -2.4,2.4 v 1.7 z"
   id="path99"
   inkscape:connector-curvature="0"
   style="fill:#ffffff" />
	<path
   d="m 371.9,79.7 h -13.5 v -5.6 h 13.5 c 0.6,0 0.9,-0.2 1,-0.5 0.3,-0.4 0.5,-1 0.5,-1.6 0,-0.5 -0.1,-2 -1.5,-2 h -6.4 c -4.3,0 -7.5,-3.3 -7.5,-7.6 0,-1.9 0.7,-3.8 1.8,-5.2 1.4,-1.6 3.4,-2.5 5.6,-2.5 h 12.2 v 5.6 h -12.2 c -0.6,0 -1.1,0.2 -1.4,0.5 -0.3,0.4 -0.5,0.9 -0.5,1.5 0,0.6 0.2,2.1 1.9,2.1 h 6.4 c 4.1,0 7.1,3.3 7.1,7.6 0,1.9 -0.6,3.7 -1.7,5.1 -1.2,1.7 -3.1,2.6 -5.3,2.6 z"
   id="path101"
   inkscape:connector-curvature="0"
   style="fill:#ffffff" />
	<path
   d="m 195.4,86.6 h -10 c -2.6,0 -4.6,-1.9 -4.6,-4.5 V 47.4 h 14.6 V 38 h -24.1 v 44.1 c 0,7.8 6.3,14 14,14 h 10 v -9.5 z"
   id="path103"
   inkscape:connector-curvature="0"
   style="fill:#ffffff" />
	<path
   d="m 215.3,38 h -10.4 v 9.5 h 10.4 c 2.6,0 4.7,2.2 4.7,4.8 v 29.9 c 0,2.6 -2.1,4.5 -4.7,4.5 h -10.4 v 9.5 h 10.4 c 7.8,0 14.1,-6.2 14.1,-14 v -30 C 229.4,44.4 223.1,38 215.3,38 z"
   id="path105"
   inkscape:connector-curvature="0"
   style="fill:#ffffff" />
	<path
   d="m 322.4,70.2 v 1.5 c 0,1.3 -1.2,2.4 -2.6,2.4 h -9 c -1.3,0 -2.2,-1.1 -2.2,-2.4 v -9 c 0,-1.3 0.9,-2.3 2.2,-2.3 h 9 c 1.3,0 2.6,1 2.6,2.3 v 2 h 5.6 v -2 c 0,-4.4 -3.8,-7.9 -8.1,-7.9 h -9 c -4.4,0 -7.8,3.5 -7.8,7.9 v 9 c 0,4.4 3.4,8 7.8,8 h 9 c 4.4,0 8.1,-3.6 8.1,-8 v -1.5 h -5.6 z"
   id="path107"
   inkscape:connector-curvature="0"
   style="fill:#ffffff" />
</g>
<path
   d="m 113.71497,67.788041 c -0.5,0 -1,-0.4 -1,-0.9 0,-0.6 0.4,-1 1,-1 138.8,-2.1 279.5,-3.1 418.3,-4.1 0,0 0,0 0,0 0.6,0 1,0.4 1,1 0,0.6 -0.4,0.9 -1,0.9 -138.8,0.6 -279.5,2.1 -418.3,4.1 0,0 0,0 0,0 z"
   id="path109"
   inkscape:connector-curvature="0"
   style="fill:#ffffff" />
</svg>