<?xml version="1.0" encoding="utf-8"?>
<!-- Generator: Adobe Illustrator 16.0.0, SVG Export Plug-In . SVG Version: 6.00 Build 0)  -->
<!DOCTYPE svg PUBLIC "-//W3C//DTD SVG 1.1//EN" "http://www.w3.org/Graphics/SVG/1.1/DTD/svg11.dtd">
<svg version="1.1" id="Calque_1" xmlns="http://www.w3.org/2000/svg" xmlns:xlink="http://www.w3.org/1999/xlink" x="0px" y="0px"
	 width="10px" height="13.339px" viewBox="0 0 10 13.339" enable-background="new 0 0 10 13.339" xml:space="preserve">
<path fill="#7473B3" d="M0.839,11.645c0,0.936,0.759,1.694,1.696,1.694h4.93c0.937,0,1.695-0.759,1.695-1.694V3.789H0.839V11.645z"
	/>
<path fill="#7473B3" d="M4.71,0.994h0.58c0.351,0,0.639,0.265,0.68,0.605H4.03C4.071,1.259,4.359,0.994,4.71,0.994 M9.228,1.6h-2.26
	C6.924,0.711,6.189,0,5.29,0H4.71C3.811,0,3.076,0.711,3.033,1.6H0.772C0.346,1.6,0,1.946,0,2.372s0.346,0.771,0.772,0.771h8.456
	C9.655,3.143,10,2.798,10,2.372S9.655,1.6,9.228,1.6"/>
</svg>
