<?xml version="1.0" encoding="utf-8"?>
<!-- Generator: Adobe Illustrator 16.0.0, SVG Export Plug-In . SVG Version: 6.00 Build 0)  -->
<!DOCTYPE svg PUBLIC "-//W3C//DTD SVG 1.1//EN" "http://www.w3.org/Graphics/SVG/1.1/DTD/svg11.dtd">
<svg version="1.1" id="Calque_1" xmlns="http://www.w3.org/2000/svg" xmlns:xlink="http://www.w3.org/1999/xlink" x="0px" y="0px"
	 width="13.733px" height="8px" viewBox="0 0 13.733 8" enable-background="new 0 0 13.733 8" xml:space="preserve">
<path fill="#7473B3" d="M10.409,6.214c-1,0.524-2.188,0.803-3.436,0.803C4.359,7.017,2.063,5.84,1.045,4
	c0.63-1.139,1.751-2.022,3.134-2.532c-0.352,0.52-0.558,1.145-0.558,1.818c0,1.793,1.453,3.245,3.246,3.245
	c1.792,0,3.245-1.452,3.245-3.245c0-0.705-0.226-1.357-0.607-1.889c0.314,0.108,0.617,0.238,0.904,0.389
	C11.418,2.315,12.185,3.06,12.69,4C12.185,4.941,11.418,5.686,10.409,6.214 M13.684,3.783c-0.587-1.218-1.561-2.21-2.818-2.869
	C9.725,0.316,8.379,0,6.973,0C3.886,0,1.168,1.484,0.05,3.781L0,3.891v0.227l0.05,0.102C1.168,6.517,3.886,8,6.973,8
	c1.406,0,2.752-0.315,3.893-0.915c1.258-0.658,2.231-1.649,2.818-2.868l0.049-0.107V3.884L13.684,3.783z"/>
</svg>
