<?xml version="1.0" encoding="UTF-8" standalone="no"?>
<!-- Generator: Adobe Illustrator 16.0.0, SVG Export Plug-In . SVG Version: 6.00 Build 0)  -->

<svg
   xmlns:dc="http://purl.org/dc/elements/1.1/"
   xmlns:cc="http://creativecommons.org/ns#"
   xmlns:rdf="http://www.w3.org/1999/02/22-rdf-syntax-ns#"
   xmlns:svg="http://www.w3.org/2000/svg"
   xmlns="http://www.w3.org/2000/svg"
   xmlns:sodipodi="http://sodipodi.sourceforge.net/DTD/sodipodi-0.dtd"
   xmlns:inkscape="http://www.inkscape.org/namespaces/inkscape"
   version="1.1"
   id="Calque_1"
   x="0px"
   y="0px"
   width="10.892px"
   height="36.483px"
   viewBox="0 0 10.892 36.483"
   enable-background="new 0 0 10.892 36.483"
   xml:space="preserve"
   inkscape:version="0.48.2 r9819"
   sodipodi:docname="p-checkbox.svg"><metadata
   id="metadata21"><rdf:RDF><cc:Work
       rdf:about=""><dc:format>image/svg+xml</dc:format><dc:type
         rdf:resource="http://purl.org/dc/dcmitype/StillImage" /><dc:title></dc:title></cc:Work></rdf:RDF></metadata><defs
   id="defs19" /><sodipodi:namedview
   pagecolor="#ffffff"
   bordercolor="#666666"
   borderopacity="1"
   objecttolerance="10"
   gridtolerance="10"
   guidetolerance="10"
   inkscape:pageopacity="0"
   inkscape:pageshadow="2"
   inkscape:window-width="870"
   inkscape:window-height="705"
   id="namedview17"
   showgrid="false"
   inkscape:zoom="6.468766"
   inkscape:cx="-22.225429"
   inkscape:cy="18.714256"
   inkscape:window-x="0"
   inkscape:window-y="0"
   inkscape:window-maximized="0"
   inkscape:current-layer="Calque_1" />
<path
   fill="#FFFFFF"
   d="M4.5,35.983L4.5,35.983c-2.209,0-4-1.791-4-4s1.791-4,4-4s4,1.791,4,4S6.709,35.983,4.5,35.983"
   id="path3" />
<path
   fill="none"
   stroke="#7270B1"
   stroke-miterlimit="10"
   d="M4.5,35.983L4.5,35.983c-2.209,0-4-1.791-4-4s1.791-4,4-4s4,1.791,4,4  S6.709,35.983,4.5,35.983z"
   id="path5"
   style="stroke:#ff7a45;stroke-opacity:1" />
<path
   fill="none"
   stroke="#010101"
   stroke-width="2"
   stroke-miterlimit="10"
   d="M1.7,28.537c-0.007,1.433,1.429,4.587,2.567,5.456  c1.347-2.686,3.514-4.955,6.136-6.424"
   id="path7" />
<path
   fill="#7270B1"
   d="M4.5,22.316L4.5,22.316c-2.209,0-4-1.791-4-4s1.791-4,4-4s4,1.791,4,4S6.709,22.316,4.5,22.316"
   id="path9"
   style="fill:#ff7a45;fill-opacity:1" />
<path
   fill="none"
   stroke="#7270B1"
   stroke-miterlimit="10"
   d="M4.5,22.316L4.5,22.316c-2.209,0-4-1.791-4-4s1.791-4,4-4s4,1.791,4,4  S6.709,22.316,4.5,22.316z"
   id="path11"
   style="stroke:#ff7a45;stroke-opacity:1" />

<path
   fill="none"
   stroke="#7270B1"
   stroke-miterlimit="10"
   d="M4.5,8.5L4.5,8.5c-2.209,0-4-1.791-4-4s1.791-4,4-4s4,1.791,4,4  S6.709,8.5,4.5,8.5z"
   id="path15"
   style="stroke:#ff7a45;stroke-opacity:1" />
</svg>