<?xml version="1.0" encoding="utf-8"?>
<!-- Generator: Adobe Illustrator 16.0.0, SVG Export Plug-In . SVG Version: 6.00 Build 0)  -->
<!DOCTYPE svg PUBLIC "-//W3C//DTD SVG 1.1//EN" "http://www.w3.org/Graphics/SVG/1.1/DTD/svg11.dtd">
<svg version="1.1" id="Calque_1" xmlns="http://www.w3.org/2000/svg" xmlns:xlink="http://www.w3.org/1999/xlink" x="0px" y="0px"
	 width="10.892px" height="36.483px" viewBox="0 0 10.892 36.483" enable-background="new 0 0 10.892 36.483" xml:space="preserve">
<path fill="#FFFFFF" d="M4.5,35.983L4.5,35.983c-2.209,0-4-1.791-4-4s1.791-4,4-4s4,1.791,4,4S6.709,35.983,4.5,35.983"/>
<path fill="none" stroke="#7270B1" stroke-miterlimit="10" d="M4.5,35.983L4.5,35.983c-2.209,0-4-1.791-4-4s1.791-4,4-4s4,1.791,4,4
	S6.709,35.983,4.5,35.983z"/>
<path fill="none" stroke="#010101" stroke-width="2" stroke-miterlimit="10" d="M1.7,28.537c-0.007,1.433,1.429,4.587,2.567,5.456
	c1.347-2.686,3.514-4.955,6.136-6.424"/>
<path fill="#7270B1" d="M4.5,22.316L4.5,22.316c-2.209,0-4-1.791-4-4s1.791-4,4-4s4,1.791,4,4S6.709,22.316,4.5,22.316"/>
<path fill="none" stroke="#7270B1" stroke-miterlimit="10" d="M4.5,22.316L4.5,22.316c-2.209,0-4-1.791-4-4s1.791-4,4-4s4,1.791,4,4
	S6.709,22.316,4.5,22.316z"/>
<path fill="#FFFFFF" d="M4.5,8.5L4.5,8.5c-2.209,0-4-1.791-4-4s1.791-4,4-4s4,1.791,4,4S6.709,8.5,4.5,8.5"/>
<path fill="none" stroke="#7270B1" stroke-miterlimit="10" d="M4.5,8.5L4.5,8.5c-2.209,0-4-1.791-4-4s1.791-4,4-4s4,1.791,4,4
	S6.709,8.5,4.5,8.5z"/>
</svg>
