<?xml version="1.0" encoding="utf-8"?>
<!-- Generator: Adobe Illustrator 16.0.0, SVG Export Plug-In . SVG Version: 6.00 Build 0)  -->
<!DOCTYPE svg PUBLIC "-//W3C//DTD SVG 1.1//EN" "http://www.w3.org/Graphics/SVG/1.1/DTD/svg11.dtd">
<svg version="1.1" xmlns="http://www.w3.org/2000/svg" xmlns:xlink="http://www.w3.org/1999/xlink" x="0px" y="0px"
	 width="100.762px" height="102.263px" viewBox="0 0 100.762 102.263" enable-background="new 0 0 100.762 102.263"
	 xml:space="preserve">
<g id="Generic">
	<g>
		<path fill="none" stroke="#7270B0" stroke-width="2" stroke-miterlimit="10" d="M71.337,91.953H69.28c-0.22,0-0.456,0-0.702,0
			c-0.776,0.062-1.553,0.119-2.327,0.17c-0.387,0.025-0.773,0.047-1.161,0.07c-6.187-0.539-10.976-0.539-17.197,0.188
			c-0.389-0.008-0.768-0.018-1.146-0.027c-12.511-0.328-24.898-1.203-37.69-0.4h-1.12H6.998V2.585h2.766c0.29,0,0.6,0,0.924,0
			c13.736-0.808,27.146,1.124,40.544,0.001c0.416-0.001,0.733-0.001,0.951-0.001h0.329c0,0,0.817,0.823,2.11,2.127
			c0.258,0.263,0.534,0.546,0.83,0.856c4.409,2.974,8.24,6.839,11.521,11.582c0.167,0.17,0.333,0.337,0.494,0.5
			c2.269,2.284,3.87,3.898,3.87,3.898V24.2v0.77c0.001,1.073,0.002,2.146,0.003,3.221c0.002,0.356,0.002,0.714-0.004,1.081
			c-0.604,6.554,0.367,13.289,0.629,19.994c0.015,0.373,0.026,0.748,0.033,1.123c-1.268,6.656-0.932,13.494-0.743,20.428
			c0.008,0.367,0.016,0.736,0.021,1.127c0.079,5.215,0.079,10.047,0.06,14.799c0.002,0.268,0.002,0.531,0.002,0.783V91.953z"/>
		<path fill="none" stroke="#7270B0" stroke-width="2" stroke-miterlimit="10" d="M71.337,21.685h-2.085
			c-0.319,0-0.669,0-1.042-0.001c-4.518-0.578-9.307,0.388-14.106,0.224c-0.275,0.055-0.579,0.092-0.861,0.116
			c-0.563,0.048-1.043,0.048-1.043,0.048c-0.958-4.832,0-10.631,0.213-15.223c-0.001-0.227-0.001-0.447-0.003-0.661V2.585"/>
	</g>
</g>
<g id="Presentation" display="none">
	<path display="inline" fill="none" stroke="#B3B3B3" stroke-linecap="round" stroke-linejoin="round" stroke-miterlimit="10" d="
		M73.594,14.447c0.034,14.973-0.438,33.61,0.809,48.531c-23.302-0.032-47.376-3.12-70.833,0.115
		c-0.062-16.295-0.514-32.235-0.577-48.53c21.974-0.464,43.547-0.08,65.522-0.543c1.521-0.032,3.162-0.031,4.405,0.847"/>
	<path display="inline" fill="none" stroke="#B3B3B3" stroke-linecap="round" stroke-linejoin="round" stroke-miterlimit="10" d="
		M73.855,11.187c0.565,0.036,1.089,0.338,1.645,0.449c-0.01,0.66-0.179,1.781-0.188,2.442C51.83,13.852,28.066,13.52,4.61,14.601
		c-1.255,0.058-2.312,0-3.341,0.066c-1.253,0.08-0.798-2.827,0.104-3.083c1.849-0.526,6.856,0.068,10.715,0.071
		C33.176,11.671,53.17,9.865,73.855,11.187z"/>
	<path display="inline" fill="none" stroke="#B3B3B3" stroke-linecap="round" stroke-linejoin="round" stroke-miterlimit="10" d="
		M2.897,11.763c0-0.334-0.444,0.399-0.444,0.065c0,1.892-0.309,0.727-0.309,2.619"/>
	<path display="inline" fill="none" stroke="#B3B3B3" stroke-linecap="round" stroke-linejoin="round" stroke-miterlimit="10" d="
		M74.006,11.429c0,1.224-0.092,1.704-0.092,2.928"/>
	<path display="inline" fill="none" stroke="#B3B3B3" stroke-linecap="round" stroke-linejoin="round" stroke-miterlimit="10" d="
		M2.146,65.861c-0.566-0.037-1.09-0.339-1.646-0.449c0.011-0.66,0.18-1.781,0.19-2.442c23.48,0.226,47.245,0.558,70.701-0.522
		c1.255-0.059,2.311,0,3.341-0.066c1.252-0.08,0.797,2.826-0.105,3.082c-1.849,0.527-6.855-0.067-10.715-0.07
		C42.825,65.376,22.831,67.182,2.146,65.861z"/>
	<path display="inline" fill="none" stroke="#B3B3B3" stroke-linecap="round" stroke-linejoin="round" stroke-miterlimit="10" d="
		M73.104,65.285c0,0.334,0.444-0.399,0.444-0.065c0-1.892,0.309-0.728,0.309-2.619"/>
	<path display="inline" fill="none" stroke="#B3B3B3" stroke-linecap="round" stroke-linejoin="round" stroke-miterlimit="10" d="
		M1.995,65.618c0-1.224,0.092-1.704,0.092-2.928"/>
	<path display="inline" fill="none" stroke="#B3B3B3" stroke-linecap="round" stroke-linejoin="round" stroke-miterlimit="10" d="
		M4.535,15.28c-0.249,0.413-0.497,0.826-0.746,1.24"/>
	<path display="inline" fill="none" stroke="#B3B3B3" stroke-linecap="round" stroke-linejoin="round" stroke-miterlimit="10" d="
		M6.614,14.7c-0.299,0.523-0.597,1.045-0.896,1.568"/>
	<path display="inline" fill="none" stroke="#B3B3B3" stroke-linecap="round" stroke-linejoin="round" stroke-miterlimit="10" d="
		M8.833,14.984c-0.409,0.344-0.727,0.796-0.909,1.298"/>
	<path display="inline" fill="none" stroke="#B3B3B3" stroke-linecap="round" stroke-linejoin="round" stroke-miterlimit="10" d="
		M10.882,14.955c-0.459,0.325-0.812,0.796-0.996,1.327"/>
	<path display="inline" fill="none" stroke="#B3B3B3" stroke-linecap="round" stroke-linejoin="round" stroke-miterlimit="10" d="
		M13.298,14.818c-0.334,0.286-0.617,0.63-0.834,1.013"/>
	<path display="inline" fill="none" stroke="#B3B3B3" stroke-linecap="round" stroke-linejoin="round" stroke-miterlimit="10" d="
		M15.287,14.824c-0.17,0.259-0.34,0.518-0.51,0.777"/>
	<path display="inline" fill="none" stroke="#B3B3B3" stroke-linecap="round" stroke-linejoin="round" stroke-miterlimit="10" d="
		M16.77,14.787c0.069,0.288-0.042,0.612-0.274,0.795"/>
	<path display="inline" fill="none" stroke="#B3B3B3" stroke-linecap="round" stroke-linejoin="round" stroke-miterlimit="10" d="
		M18.703,15.716c0.232-0.507,0.551-0.974,0.935-1.378c0.025-0.122,0.742,0.451,0.708,0.57c-0.034,0.119-0.142,0.234-0.094,0.348"/>
	<path display="inline" fill="none" stroke="#B3B3B3" stroke-linecap="round" stroke-linejoin="round" stroke-miterlimit="10" d="
		M23.042,14.459c-0.057,0.262-0.204,0.504-0.412,0.674"/>
	<path display="inline" fill="none" stroke="#B3B3B3" stroke-linecap="round" stroke-linejoin="round" stroke-miterlimit="10" d="
		M26.14,14.862c0.162,0.106-0.031,0.344-0.208,0.423c-0.177,0.078-0.386,0.292-0.24,0.418"/>
	<path display="inline" fill="none" stroke="#B3B3B3" stroke-linecap="round" stroke-linejoin="round" stroke-miterlimit="10" d="
		M28.768,15.04c-0.26,0.129-0.448,0.389-0.49,0.675"/>
	
		<line display="inline" fill="none" stroke="#B3B3B3" stroke-linecap="round" stroke-linejoin="round" stroke-miterlimit="10" x1="31.07" y1="14.793" x2="30.608" y2="15.602"/>
	<path display="inline" fill="none" stroke="#B3B3B3" stroke-linecap="round" stroke-linejoin="round" stroke-miterlimit="10" d="
		M33.734,14.565c-0.16,0.305-0.321,0.61-0.481,0.915"/>
	<path display="inline" fill="none" stroke="#B3B3B3" stroke-linecap="round" stroke-linejoin="round" stroke-miterlimit="10" d="
		M36.277,14.807c-0.211,0.103-0.356,0.328-0.366,0.563"/>
	<path display="inline" fill="none" stroke="#B3B3B3" stroke-linecap="round" stroke-linejoin="round" stroke-miterlimit="10" d="
		M38.216,14.794c0.128,0.28-0.157,0.582-0.446,0.688"/>
	<path display="inline" fill="none" stroke="#B3B3B3" stroke-linecap="round" stroke-linejoin="round" stroke-miterlimit="10" d="
		M41.36,14.602c-0.554-0.043-1.109,0.354-1.248,0.892"/>
	<path display="inline" fill="none" stroke="#B3B3B3" stroke-linecap="round" stroke-linejoin="round" stroke-miterlimit="10" d="
		M43.551,14.217c-0.431,0.205-0.774,0.585-0.935,1.035"/>
	<path display="inline" fill="none" stroke="#B3B3B3" stroke-linecap="round" stroke-linejoin="round" stroke-miterlimit="10" d="
		M47.021,14.114c-0.513,0.157-0.956,0.528-1.199,1.005"/>
	<path display="inline" fill="none" stroke="#B3B3B3" stroke-linecap="round" stroke-linejoin="round" stroke-miterlimit="10" d="
		M49.239,14.462c-0.205,0.356-0.508,0.654-0.867,0.854"/>
	<path display="inline" fill="none" stroke="#B3B3B3" stroke-linecap="round" stroke-linejoin="round" stroke-miterlimit="10" d="
		M51.188,14.678c-0.021,0.245-0.111,0.483-0.256,0.682"/>
	<path display="inline" fill="none" stroke="#B3B3B3" stroke-linecap="round" stroke-linejoin="round" stroke-miterlimit="10" d="
		M54.896,14.458c-0.155,0.269-0.31,0.539-0.464,0.808"/>
	<path display="inline" fill="none" stroke="#B3B3B3" stroke-linecap="round" stroke-linejoin="round" stroke-miterlimit="10" d="
		M56.954,14.446c-0.001,0.114-0.002,0.228-0.003,0.343c-0.231,0.154-0.462,0.308-0.693,0.461"/>
	<path display="inline" fill="none" stroke="#B3B3B3" stroke-linecap="round" stroke-linejoin="round" stroke-miterlimit="10" d="
		M58.223,14.675c-0.183,0.201-0.366,0.403-0.549,0.604"/>
	<path display="inline" fill="none" stroke="#B3B3B3" stroke-linecap="round" stroke-linejoin="round" stroke-miterlimit="10" d="
		M60.565,14.587c-0.25,0.292-0.5,0.584-0.75,0.876"/>
	<path display="inline" fill="none" stroke="#B3B3B3" stroke-linecap="round" stroke-linejoin="round" stroke-miterlimit="10" d="
		M63.203,14.577c-0.413,0.268-0.798,0.58-1.144,0.931"/>
	<path display="inline" fill="none" stroke="#B3B3B3" stroke-linecap="round" stroke-linejoin="round" stroke-miterlimit="10" d="
		M64.704,14.817c-0.341,0.12-0.641,0.352-0.842,0.652"/>
	<path display="inline" fill="none" stroke="#B3B3B3" stroke-linecap="round" stroke-linejoin="round" stroke-miterlimit="10" d="
		M67.039,14.602c-0.407,0.332-0.748,0.747-0.993,1.212"/>
	<path display="inline" fill="none" stroke="#B3B3B3" stroke-linecap="round" stroke-linejoin="round" stroke-miterlimit="10" d="
		M68.979,14.595c-0.592,0.133-1.084,0.635-1.205,1.23"/>
	<path display="inline" fill="none" stroke="#B3B3B3" stroke-linecap="round" stroke-linejoin="round" stroke-miterlimit="10" d="
		M70.941,14.46c-0.599,0.236-1.114,0.675-1.443,1.227"/>
	
		<line display="inline" fill="none" stroke="#B3B3B3" stroke-linecap="round" stroke-linejoin="round" stroke-miterlimit="10" x1="72.95" y1="14.496" x2="71.569" y2="15.889"/>
	<path display="inline" fill="none" stroke="#B3B3B3" stroke-linecap="round" stroke-linejoin="round" stroke-miterlimit="10" d="
		M73.592,15.947c-0.157,0.112-0.312,0.224-0.47,0.336"/>
	<path display="inline" fill="none" stroke="#B3B3B3" stroke-linecap="round" stroke-linejoin="round" stroke-miterlimit="10" d="
		M14.714,66.581c-3.193,9.452-6.387,16.132-9.58,25.583c-0.19,0.564-0.401,1.158-0.864,1.531c-0.59,0.477-1.661,0.918-1.301,1.584
		C3.354,95.478,3.8,95.556,4.229,95.5c0.309-0.264,0.44-0.822,0.097-1.041c-0.342-0.217-0.69,0.564-0.285,0.553
		c0.306-0.182,0.545-0.477,0.66-0.812c-0.338-0.166-0.724-0.232-1.098-0.189c0.489-0.105,0.946-0.359,1.293-0.719"/>
	<path display="inline" fill="none" stroke="#B3B3B3" stroke-linecap="round" stroke-linejoin="round" stroke-miterlimit="10" d="
		M61.234,65.476c3.193,10.141,6.387,17.51,9.58,27.65c0.19,0.604,0.401,1.242,0.864,1.643c0.59,0.51,1.661,0.984,1.301,1.699
		c-0.385,0.213-0.831,0.295-1.261,0.236c-0.308-0.283-0.44-0.885-0.097-1.115c0.342-0.234,0.69,0.604,0.286,0.592
		c-0.307-0.195-0.546-0.51-0.661-0.873c0.338-0.176,0.724-0.248,1.098-0.203c-0.489-0.113-0.946-0.385-1.293-0.771"/>
	<path display="inline" fill="none" stroke="#B3B3B3" stroke-linecap="round" stroke-linejoin="round" stroke-miterlimit="10" d="
		M37.726,66.472c-0.278,5.895-0.055,11.812,0.669,17.67"/>
	<path display="inline" fill="none" stroke="#B3B3B3" stroke-linecap="round" stroke-linejoin="round" stroke-miterlimit="10" d="
		M9.817,31.074c1.865,0,3.73-0.175,5.567-0.521"/>
	<path display="inline" fill="none" stroke="#B3B3B3" stroke-linecap="round" stroke-linejoin="round" stroke-miterlimit="10" d="
		M17.195,30.63c0.914-0.098,1.827-0.196,2.741-0.293"/>
	<path display="inline" fill="none" stroke="#B3B3B3" stroke-linecap="round" stroke-linejoin="round" stroke-miterlimit="10" d="
		M22.927,30.232c3.071,0.29,7.898-0.046,10.98-0.098"/>
	<path display="inline" fill="none" stroke="#B3B3B3" stroke-linecap="round" stroke-linejoin="round" stroke-miterlimit="10" d="
		M9.947,36.452c3.828-0.158,7.655-0.317,11.483-0.475"/>
	<path display="inline" fill="none" stroke="#B3B3B3" stroke-linecap="round" stroke-linejoin="round" stroke-miterlimit="10" d="
		M23.67,36.051c1.164,0.139,2.351,0.045,3.486-0.273"/>
	<path display="inline" fill="none" stroke="#B3B3B3" stroke-linecap="round" stroke-linejoin="round" stroke-miterlimit="10" d="
		M29.635,35.905c1.338,0.266,2.738,0.149,4.022-0.336"/>
	<path display="inline" fill="none" stroke="#B3B3B3" stroke-linecap="round" stroke-linejoin="round" stroke-miterlimit="10" d="
		M9.726,42.46c2.489-0.238,4.979-0.477,7.468-0.714"/>
	<path display="inline" fill="none" stroke="#B3B3B3" stroke-linecap="round" stroke-linejoin="round" stroke-miterlimit="10" d="
		M19.446,41.804c1.704,0.256,3.422-0.162,5.129-0.387c2.596-0.342,5.093-0.412,9.332,0.132"/>
	<path display="inline" fill="none" stroke="#B3B3B3" stroke-linecap="round" stroke-linejoin="round" stroke-miterlimit="10" d="
		M47.954,22.805c-3.535,0.889-6.883,4.391-8.426,7.693c-1.5,3.21-2.036,5.253-2.198,8.792c-0.073,1.601,0.464,3.646,1.046,5.14
		c1.058,2.717,3.681,4.582,6.466,5.447c2.785,0.863,5.754,0.869,8.67,0.854c1.871-0.01,3.766-0.03,5.576-0.498
		c4.562-1.18,8.113-5.309,8.966-9.944c0.854-4.634-0.856-9.576-4.121-12.975c-3.263-3.399-5.776-5.2-10.483-5.424
		C52.312,21.835,49.057,22.527,47.954,22.805z"/>
	<path display="inline" fill="none" stroke="#B3B3B3" stroke-linecap="round" stroke-linejoin="round" stroke-miterlimit="10" d="
		M55.098,23.731c-2.358,5.169-4.362,10.5-5.99,15.944c5.938-2.543,12.035-4.711,18.246-6.487"/>
	<path display="inline" fill="none" stroke="#B3B3B3" stroke-linecap="round" stroke-linejoin="round" stroke-miterlimit="10" d="
		M49.98,36.109c0.187,1.371,0.534,1.809,0.721,3.18c0.244-2.73,0.327-4.525,0.571-7.255c-0.182,1.84,0.253,3.736,1.22,5.313
		c0.193-2.761,0.251-5.531,0.174-8.298c-0.268,2.6,0.187,5.27,1.298,7.635c0.17-3.727,0.16-6.701-0.331-10.4
		c0.245,3.545,0.836,6.286,2.049,9.625c0.381-4.092,0.279-8.229-0.302-12.297c0.056,4.468,0.971,8.924,2.679,13.053
		c0.193-4.184-0.039-8.387-0.695-12.523c-0.447,3.833,0.579,7.818,2.82,10.959c0.297-3.484-0.073-7.025-1.086-10.372
		c0.401,3.36,1.526,6.631,3.275,9.527c0.167-2.559,0.012-5.139-0.461-7.66c-0.097,2.475,0.743,4.975,2.314,6.888
		c0.245-2.104,0.189-4.246-0.163-6.336c0.476,1.98,1.256,3.887,2.305,5.632"/>
</g>
<g id="Musique" display="none">
	<path display="inline" fill="none" stroke="#B3B3B3" stroke-linecap="round" stroke-miterlimit="10" d="M70.137,73.332
		c1.427-3.636,2.21-7.595,2.21-11.737c0-17.751-14.39-32.141-32.141-32.141"/>
	<path display="inline" fill="none" stroke="#B3B3B3" stroke-linecap="round" stroke-miterlimit="10" d="M71.397,75.866
		c1.204-2.547,1.204-5.919,2.513-8.087c0.02-0.104,0.043-0.237,0.065-0.372c0.319-1.889,0.485-3.829,0.485-5.809
		c0-11.85-5.939-22.301-14.98-28.495c-0.112-0.077-0.224-0.153-0.336-0.229c-1.717-0.861-2.56-1.705-4.24-2.411
		c-0.126-0.06-0.251-0.119-0.375-0.177c-4.334-2.005-9.154-3.122-14.234-3.122"/>
	<path display="inline" fill="none" stroke="#B3B3B3" stroke-linecap="round" stroke-miterlimit="10" d="M10.19,73.317
		c-0.332-0.848-0.629-1.713-0.89-2.594c-0.037-0.126-0.073-0.253-0.11-0.385c-4.027-9.664,0.188-19.78,5.045-27.791
		c0.08-0.109,0.161-0.217,0.242-0.325c1.061-1.399,2.231-2.711,3.501-3.92c0.099-0.093,0.197-0.185,0.296-0.276
		c1.22-1.799,2.905-2.642,4.822-3.694c0.111-0.07,0.226-0.142,0.342-0.211c4.864-2.961,10.577-4.667,16.688-4.667"/>
	<path display="inline" fill="none" stroke="#B3B3B3" stroke-linecap="round" stroke-miterlimit="10" d="M69.931,73.007
		c1.557-3.582,2.416-7.508,2.416-11.623c0-9.85-4.92-18.61-12.556-24.186c-0.11-0.081-0.222-0.161-0.332-0.24
		c-1.188-1.574-3.718-1.574-5.39-3.101c-0.128-0.058-0.256-0.114-0.384-0.171c-4.099-1.8-8.666-2.804-13.479-2.804"/>
	<path display="inline" fill="none" stroke="#B3B3B3" stroke-linecap="round" stroke-miterlimit="10" d="M10.397,72.997
		c-0.259-0.597-0.499-1.203-0.718-1.817c-0.044-0.123-0.087-0.246-0.13-0.37c-4.387-9.292-0.172-19.408,5.091-28.011
		c0.085-0.105,0.171-0.209,0.257-0.313c1.094-1.312,2.298-2.537,3.601-3.662c0.101-0.087,0.202-0.173,0.308-0.262
		c1.531-0.647,2.374-2.333,4.936-3.423c0.102-0.057,0.219-0.121,0.337-0.187c4.723-2.588,10.204-4.068,16.049-4.068"/>
	<path display="inline" fill="none" stroke="#B3B3B3" stroke-linecap="round" stroke-miterlimit="10" d="M8.891,75.768
		c-1.885-4.201-2.957-8.853-3.016-13.75c-0.001-0.14-0.002-0.279-0.002-0.421c0.133-5.138,0.976-10.195,3.27-14.719
		c0.059-0.124,0.117-0.248,0.178-0.371c1.508-3.112,3.468-5.961,5.794-8.461c0.095-0.101,0.19-0.202,0.289-0.303
		c1.758-1.725,3.131-3.538,5.151-4.847c0.106-0.069,0.214-0.137,0.324-0.202c2.83-1.525,5.359-3.211,7.849-3.599
		c0.121-0.043,0.243-0.085,0.365-0.127c3.437-1.171,7.118-1.805,10.946-1.805"/>
	<path display="inline" fill="none" stroke="#B3B3B3" stroke-linecap="round" stroke-miterlimit="10" d="M57.344,96.595l2.142,0.52
		c1.406,0.342,2.82-0.22,3.631-1.312c0.136-0.183,0.253-0.38,0.353-0.59c0.703-3.348,1.546-5.877,2.327-9.276
		c0.054-0.225,0.108-0.45,0.163-0.676c-0.041-1.093,0.357-2.16,0.813-3.248c0.05-0.122,0.101-0.244,0.152-0.367
		c0.618-0.739,0.618-3.269,1.079-3.793c0.004-0.134,0.001-0.269-0.008-0.404c-0.007-0.135-0.021-0.271-0.041-0.409
		c0.072-0.295,0.14-0.568,0.2-0.818c0.242-0.999,0.39-1.604,0.39-1.604c0.455-1.874-0.695-3.763-2.569-4.218
		c0,0-0.535-0.13-1.071-0.26c-0.268-0.065-0.536-0.13-0.736-0.179c-2.525-0.013-5.897-0.013-6.938,3.237
		c-0.119,0.28-0.217,0.574-0.291,0.88c0,0-0.354,1.459-0.846,3.485c-0.05,0.193-0.098,0.387-0.147,0.587
		c-0.609,2.1-1.152,3.835-1.583,5.602c-0.061,0.255-0.121,0.511-0.178,0.773c-0.971,3.126-0.971,5.655-0.767,8.712
		c0.112,0.271,0.245,0.532,0.397,0.781C54.575,95.265,55.812,96.223,57.344,96.595z"/>
	<path display="inline" fill="none" stroke="#B3B3B3" stroke-linecap="round" stroke-miterlimit="10" d="M61.125,97.022
		c0.73,0.182,1.483,0.155,2.238-0.053c0.107-0.025,0.216-0.057,0.326-0.085c0.482,0.881,1.326-0.805,1.919-1.061
		c0.096-0.077,0.191-0.157,0.289-0.245c3.235-2.878,4.977-6.564,5.72-10.597c0.024-0.132,0.047-0.262,0.069-0.393
		c0.072-2.841,0.072-4.526,0.109-6.938c-0.012-0.072-0.024-0.145-0.039-0.216c-0.104-0.548-0.234-1.068-0.393-1.56
		c-0.022-0.071-0.045-0.141-0.069-0.211c-0.379,0.183-0.379-0.66-0.309-0.795c-0.056-0.126-0.114-0.249-0.175-0.368
		c-0.779-1.575-1.908-2.658-3.322-3.01c0,0-0.429,1.72-1.064,4.268c-0.079,0.319-0.161,0.65-0.248,0.992
		c-0.318,3.312-2.005,5.84-2.054,8.241c-0.061,0.245-0.122,0.49-0.182,0.733c-1.455,2.767-1.455,6.139-2.2,8.826
		c-0.077,0.306-0.147,0.586-0.21,0.842C61.276,96.417,61.125,97.022,61.125,97.022z"/>
	<path display="inline" fill="none" stroke="#B3B3B3" stroke-linecap="round" stroke-miterlimit="10" d="M23.586,96.42
		c-0.72,0.502-1.562,0.502-2.729,0.689c-0.139,0.035-0.275,0.062-0.411,0.078c-1.736,0.214-3.395-0.902-3.817-2.642
		c0,0-0.422-1.74-1.018-4.191c-0.046-0.188-0.094-0.382-0.141-0.578c-0.191-0.441-0.191-1.285-0.45-1.856
		c-0.054-0.215-0.105-0.433-0.159-0.651c-1.383-5.694-3.073-12.653-3.073-12.653c-0.455-1.875,0.695-3.763,2.569-4.218l2.143-0.521
		c3.063-0.744,6.15,1.136,6.895,4.199c0,0,0.105,0.435,0.28,1.157c0.06,0.242,0.125,0.517,0.198,0.817
		c0.255,0.556,0.414,1.259,0.552,2.017c0.023,0.127,0.046,0.255,0.071,0.387c0.899,3.295,0.899,6.667,2.338,9.784
		c0.028,0.112,0.054,0.221,0.078,0.322c0.174,0.712,0.277,1.139,0.277,1.139c0.526,2.17-0.263,4.353-1.857,5.704
		c-0.093,0.08-0.189,0.157-0.288,0.229c0.352,0.446-0.492,0.446-1.227,0.706C23.747,96.368,23.67,96.395,23.586,96.42z"/>
	<path display="inline" fill="none" stroke="#B3B3B3" stroke-linecap="round" stroke-miterlimit="10" d="M19.208,97.022
		c-1.265,0.314-2.603,0.007-3.892-0.795c-0.1-0.061-0.197-0.126-0.297-0.192c-1.662-1.153-2.951-2.717-3.937-4.519
		c-0.062-0.112-0.122-0.226-0.181-0.34c-0.682-0.998-1.524-2.684-1.549-4.041c-0.035-0.129-0.069-0.258-0.103-0.388
		c-0.101-0.388-0.192-0.78-0.275-1.175c-0.015-0.069-0.028-0.139-0.043-0.207c-0.397-1.932-0.397-2.774-0.588-4.569
		c-0.004-0.074-0.008-0.146-0.012-0.227c-0.011-0.206-0.021-0.412-0.028-0.617c0.002-0.079,0.006-0.157,0.009-0.237
		c0.201-4.275,1.855-7.558,4.53-8.224c0,0,1.591,6.382,3.183,12.765c0.061,0.247,0.121,0.493,0.182,0.741
		c0.757,2.652,1.6,4.338,1.717,6.878c0.05,0.201,0.099,0.398,0.148,0.591C18.747,95.17,19.208,97.022,19.208,97.022z"/>
	<path display="inline" fill="none" stroke="#B3B3B3" stroke-linecap="round" stroke-miterlimit="10" d="M73.778,68.275
		c-0.333,0.829-1.177,0.829-1.963,0.564c-0.197-0.073-0.328-0.122-0.328-0.122"/>
	
		<line display="inline" fill="none" stroke="#B3B3B3" stroke-linecap="round" stroke-miterlimit="10" x1="74.289" y1="59.784" x2="72.45" y2="59.346"/>
	<path display="inline" fill="none" stroke="#B3B3B3" stroke-linecap="round" stroke-miterlimit="10" d="M64.948,100.31
		c0,0,0.131-0.062,0.319-0.151c2.276-0.708,0.59-2.394,0.59-3.236c-0.843-0.844-1.686,0-2.359-0.018
		c-0.079,0.035-0.126,0.057-0.126,0.057s0.062,0.136,0.17,0.364c-0.213,0.439,0.63,2.125,1.242,2.636
		C64.885,100.176,64.948,100.31,64.948,100.31z"/>
	<path display="inline" fill="none" stroke="#B3B3B3" stroke-linecap="round" stroke-miterlimit="10" d="M66.005,100.193
		c0.099,0.073,0.199,0.146,0.303,0.214c2.36,1.573,5.577,1.552,8.476,1.062c0.074-0.004,0.151-0.008,0.229-0.012
		c2.004-0.099,4.054-0.14,5.86,0.221"/>
	<path display="inline" fill="none" stroke="#B3B3B3" stroke-linecap="round" stroke-linejoin="round" stroke-miterlimit="10" d="
		M14.853,71.136c-0.7,0.48-1.316,1.085-1.812,1.774c1.307-0.837,2.612-1.674,3.919-2.511c-1.037,0.823-1.926,1.831-2.612,2.963
		c1.349-0.825,2.624-1.765,3.812-2.808c-1.528,1.084-2.776,2.56-3.592,4.248c2.037-1.068,3.872-2.522,5.377-4.261
		c-2.168,1.885-4.002,4.153-5.391,6.669c2.572-1.085,4.768-3.04,6.143-5.47c-2.16,2.101-4.018,4.513-5.496,7.137
		c0.825,0.341,1.717-0.275,2.363-0.893c1.459-1.393,2.721-2.995,3.733-4.741c-2.379,2.128-4.315,4.75-5.648,7.65
		c2.95-1.381,5.3-3.991,6.364-7.068c-1.962,2.827-3.925,5.654-5.887,8.481c0.562,0.544,1.484,0.036,2.056-0.498
		c1.912-1.793,3.506-3.923,4.687-6.264c-1.971,2.695-3.94,5.391-5.91,8.087c-0.469,0.642-0.954,1.49-0.551,2.176
		c3.055-1.515,5.157-4.4,7.138-7.177c-2.311,2.813-4.401,5.808-6.248,8.945c2.87-1.478,4.835-4.22,6.688-6.862
		c-1.409,1.96-2.819,3.919-4.229,5.878c-0.529,0.735-1.812,2.538-1.547,3.403c0.452,0.181,1.631-1.147,1.947-1.518
		c1.57-1.844,3.143-3.687,4.714-5.531c-2.212,2.907-5.292,6.296-5.928,9.894c2.02-1.959,4.595-4.504,6.068-6.9
		c-1.463,1.791-2.783,3.698-3.945,5.697c-0.727,1.249-1.412,2.659-1.159,4.081c1.812-2.507,3.623-5.016,5.436-7.522
		c-2.009,3.098-4.017,6.195-6.025,9.293c2.469-1.908,4.672-4.158,6.527-6.665c-1.275,1.993-2.551,3.986-3.827,5.979
		c2.007-1.129,3.722-2.772,4.934-4.729c-1.218,1.178-1.987,2.807-2.124,4.494"/>
	<path display="inline" fill="none" stroke="#B3B3B3" stroke-linecap="round" stroke-linejoin="round" stroke-miterlimit="10" d="
		M60.488,70.976c-1.598,1.513-3.061,3.166-4.367,4.937c2.562-1.646,5.031-3.43,7.397-5.344c-2.647,2.515-5.294,5.029-7.941,7.545
		c3.503-1.247,6.64-3.507,8.932-6.436c-3.591,3.078-5.56,5.333-9.149,8.411c4.718-1.698,7.328-3.906,10.454-7.828
		c-3.138,3.007-6.277,6.015-9.415,9.021c-0.612,0.587-1.268,1.27-1.277,2.118c4.323-2.071,8.178-5.112,11.196-8.834
		c-4.138,3.379-8.331,6.815-11.398,11.189c4.035-1.954,7.633-4.808,10.451-8.295c-3.45,2.512-6.573,5.469-9.271,8.775
		c-0.62,0.759-2.352,2.323-2.299,3.303c1.445-0.179,3.698-1.947,4.738-2.967l5.983-5.871c-3.678,3.653-7.385,7.342-10.229,11.677
		c3.62-1.614,6.763-4.285,8.938-7.599c-3.061,3.494-5.545,6.86-8.605,10.355c3.283-1.34,5.669-3.335,7.991-6.015l-5.662,5.71
		c-0.56,0.564-0.782,0.526-0.678,1.313c2.343-1.133,4.054-2.055,5.704-4.066c-1.427,1.374-2.646,2.964-3.598,4.7
		c1.215-0.345,2.323-1.054,3.145-2.012c-0.192,0.63-0.552,1.208-1.033,1.658"/>
</g>
<g id="Spreadsheet" display="none">
	<path display="inline" fill="none" stroke="#B3B3B3" stroke-width="0.966" stroke-linecap="round" stroke-miterlimit="10" d="
		M72.239,91.953h-2.076c-0.222,0-0.46,0-0.708,0c-0.783,0.062-1.566,0.118-2.348,0.169c-0.391,0.024-0.781,0.048-1.171,0.069
		c-6.243-0.538-11.076-0.538-17.355,0.189c-0.391-0.009-0.772-0.019-1.154-0.028c-12.624-0.329-25.124-1.203-38.032-0.399h-1.13
		H7.318V2.584h2.79c0.293,0,0.605,0,0.932,0c13.861-0.809,27.392,1.124,40.911,0.001c0.42-0.001,0.741-0.001,0.959-0.001h0.333
		c0,0,0.825,0.823,2.13,2.127c0.261,0.263,0.539,0.545,0.837,0.855c4.449,2.975,8.315,6.84,11.625,11.582
		c0.169,0.17,0.336,0.337,0.5,0.5c2.288,2.285,3.904,3.899,3.904,3.899V24.2v0.77c0.001,1.073,0.002,2.146,0.003,3.22
		c0.001,0.357,0.002,0.714-0.004,1.081c-0.609,6.555,0.371,13.289,0.634,19.995c0.016,0.373,0.027,0.747,0.034,1.123
		c-1.28,6.655-0.939,13.493-0.75,20.427c0.008,0.367,0.016,0.737,0.021,1.126c0.079,5.217,0.079,10.048,0.06,14.8
		c0.002,0.269,0.002,0.53,0.002,0.783V91.953z"/>
	<path display="inline" fill="none" stroke="#B3B3B3" stroke-width="0.966" stroke-linecap="round" stroke-miterlimit="10" d="
		M72.239,21.684h-2.104c-0.323,0-0.676,0-1.051-0.001c-4.56-0.578-9.392,0.388-14.235,0.224c-0.278,0.055-0.584,0.092-0.869,0.116
		c-0.569,0.048-1.052,0.048-1.052,0.048c-0.967-4.832,0-10.631,0.215-15.223c-0.001-0.228-0.002-0.447-0.003-0.661V2.584"/>
	<path display="inline" fill="none" stroke="#B3B3B3" stroke-width="0.966" stroke-linecap="round" stroke-miterlimit="10" d="
		M13.788,23.798c-0.348,15.433,0.137,35.411-0.212,50.843c18.593,0.321,35.655-0.257,53.531-0.32"/>
	<path display="inline" fill="none" stroke="#B3B3B3" stroke-width="0.966" stroke-linecap="round" stroke-miterlimit="10" d="
		M18.977,73.392c1.067-9.521,1.152-19.112,0.254-28.645c4.029,0.24,8.074,0.307,12.111,0.198c-1.31,9.997-1.769,20.064-1.372,30.11"
		/>
	<path display="inline" fill="none" stroke="#B3B3B3" stroke-width="0.966" stroke-linecap="round" stroke-miterlimit="10" d="
		M36.234,74.033c0.128,0.229-0.354,0.417-0.608,0.269c-0.253-0.148-0.293-0.431-0.31-0.68c-0.485-7.062-0.432-14.146,0.16-21.202
		c3.927,0.273,6.756-0.151,10.693-0.3c0,2.254,0.262,3.833,0.268,5.547c0.021,5.462,0.042,10.924,0.062,16.387"/>
	<path display="inline" fill="none" stroke="#B3B3B3" stroke-width="0.966" stroke-linecap="round" stroke-miterlimit="10" d="
		M52.155,74.373c0.674-16.074-1.203-31.427-1.203-47.482c4.656,0,5.336,0.61,10.582,0.334c0.423,16.056,0.455,30.942,2.068,46.499"
		/>
	
		<path display="inline" fill="none" stroke="#B3B3B3" stroke-width="0.915" stroke-linecap="round" stroke-linejoin="round" stroke-miterlimit="10" d="
		M37.595,54.163c0.072,0.165,0.269-0.171,0.103-0.23c-0.166-0.061-0.318,0.113-0.414,0.266c-0.509,0.819-0.954,1.682-1.329,2.575
		c1.838-1.221,3.574-2.606,5.183-4.136c-1.857,1.387-3.418,3.196-4.541,5.261c2.089-1.167,4.06-2.561,5.869-4.151
		c-2.965,2.197-5.583,4.891-7.726,7.942c3.604-2.195,6.905-4.875,10.194-7.547c-3.767,2.839-7.126,6.255-9.935,10.103
		c0.357,0.239,0.816-0.053,1.146-0.332c1.581-1.344,3.162-2.688,4.744-4.03c1.622-1.379,3.258-2.772,4.557-4.478
		c-3.003,2.146-5.763,4.654-8.205,7.46c-0.981,1.127-1.973,2.517-1.727,4.013c3.253-3.448,6.84-6.559,10.688-9.271
		c-2.557,1.614-4.912,3.569-6.986,5.803c-1.519,1.635-2.931,3.51-3.369,5.729l8.258-8.02c-3.438,2.493-6.346,5.76-8.467,9.507
		c-0.443,0.782-0.865,1.674-0.682,2.56c3.475-3.4,6.949-6.801,10.425-10.201c-2.358,2.169-4.568,4.511-6.607,7.003
		c-1.14,1.393-2.28,2.983-2.283,4.808c3.05-3.033,6.1-6.066,9.149-9.099c-2.864,2.478-5.389,5.374-7.475,8.577
		c0.85,0.34,1.727-0.37,2.381-1.026c1.696-1.703,3.394-3.406,5.091-5.11c-1.688,1.494-3.072,3.353-4.035,5.423
		c1.592-0.546,3.02-1.595,4.044-2.97c-0.759,0.798-1.099,1.998-0.877,3.093"/>
	
		<path display="inline" fill="none" stroke="#B3B3B3" stroke-width="0.915" stroke-linecap="round" stroke-linejoin="round" stroke-miterlimit="10" d="
		M53.646,27.237c-1.5,1.005-2.729,2.409-3.529,4.027"/>
	
		<path display="inline" fill="none" stroke="#B3B3B3" stroke-width="1.07" stroke-linecap="round" stroke-linejoin="round" stroke-miterlimit="10" d="
		M57.876,27.772c-1.4,0.922-2.738,1.914-4.003,2.969c-1.188,0.992-2.372,2.145-2.546,3.55"/>
	
		<path display="inline" fill="none" stroke="#B3B3B3" stroke-width="0.915" stroke-linecap="round" stroke-linejoin="round" stroke-miterlimit="10" d="
		M62.407,28.739c-0.808,0.225-1.494,0.752-2.143,1.283c-3.17,2.59-6.021,5.571-8.467,8.854"/>
	
		<path display="inline" fill="none" stroke="#B3B3B3" stroke-width="0.915" stroke-linecap="round" stroke-linejoin="round" stroke-miterlimit="10" d="
		M61.965,31.856c-3.111,2.77-6.054,5.729-8.806,8.857c-0.654,0.743-1.32,1.54-1.525,2.508"/>
	
		<path display="inline" fill="none" stroke="#B3B3B3" stroke-width="0.915" stroke-linecap="round" stroke-linejoin="round" stroke-miterlimit="10" d="
		M61.021,36.582c-2.5,2.59-5,5.178-7.5,7.767c-0.618,0.64-1.279,1.38-1.265,2.271"/>
	
		<path display="inline" fill="none" stroke="#B3B3B3" stroke-width="0.85" stroke-linecap="round" stroke-linejoin="round" stroke-miterlimit="10" d="
		M61.278,40.814c-0.37,0.353-0.741,0.703-1.113,1.056c-3.192,3.025-6.463,6.157-8.243,10.145"/>
	
		<path display="inline" fill="none" stroke="#B3B3B3" stroke-width="0.915" stroke-linecap="round" stroke-linejoin="round" stroke-miterlimit="10" d="
		M60.661,45.427c-2.979,3.55-5.961,7.099-8.94,10.647"/>
	
		<path display="inline" fill="none" stroke="#B3B3B3" stroke-width="0.915" stroke-linecap="round" stroke-linejoin="round" stroke-miterlimit="10" d="
		M61.672,49.661c-1.941,3.223-5.157,5.428-7.781,8.123c-0.729,0.749-1.438,1.581-1.694,2.595"/>
	
		<path display="inline" fill="none" stroke="#B3B3B3" stroke-width="0.983" stroke-linecap="round" stroke-linejoin="round" stroke-miterlimit="10" d="
		M63.668,54c0.059,0.147,0.117,0.296,0.175,0.443c-1.953,1.754-4.201,3.222-6.257,4.879c-2.055,1.659-3.957,3.566-4.955,5.876"/>
	
		<path display="inline" fill="none" stroke="#B3B3B3" stroke-width="0.881" stroke-linecap="round" stroke-linejoin="round" stroke-miterlimit="10" d="
		M62.76,59.263c-0.214,0.537-0.636,0.954-1.047,1.354c-3.264,3.181-6.526,6.361-9.791,9.543"/>
	
		<path display="inline" fill="none" stroke="#B3B3B3" stroke-width="0.915" stroke-linecap="round" stroke-linejoin="round" stroke-miterlimit="10" d="
		M63.613,64.277c-2.324,2.072-4.649,4.145-6.975,6.217c-1.134,1.011-2.306,2.074-2.868,3.486"/>
	
		<path display="inline" fill="none" stroke="#B3B3B3" stroke-width="1.002" stroke-linecap="round" stroke-linejoin="round" stroke-miterlimit="10" d="
		M63.525,67.609c0.064,0.162,0.13,0.323,0.194,0.485l-6.693,5.894"/>
	
		<path display="inline" fill="none" stroke="#B3B3B3" stroke-width="1.07" stroke-linecap="round" stroke-linejoin="round" stroke-miterlimit="10" d="
		M22.431,45.915c-1.306,1.448-2.539,2.961-3.691,4.532"/>
	
		<path display="inline" fill="none" stroke="#B3B3B3" stroke-width="1.07" stroke-linecap="round" stroke-linejoin="round" stroke-miterlimit="10" d="
		M19.315,53.857c-0.148,0.183-0.298,0.365-0.446,0.548c2.229-2.581,4.665-4.987,7.271-7.188"/>
	
		<path display="inline" fill="none" stroke="#B3B3B3" stroke-width="1.07" stroke-linecap="round" stroke-linejoin="round" stroke-miterlimit="10" d="
		M31.307,46.262c-4.423,3.276-8.154,7.479-10.886,12.256"/>
	
		<path display="inline" fill="none" stroke="#B3B3B3" stroke-width="1.07" stroke-linecap="round" stroke-linejoin="round" stroke-miterlimit="10" d="
		M20.205,63.415c3.048-3.828,6.322-7.476,9.8-10.918"/>
	
		<path display="inline" fill="none" stroke="#B3B3B3" stroke-width="1.07" stroke-linecap="round" stroke-linejoin="round" stroke-miterlimit="10" d="
		M29.83,58.671c-3.773,4.646-9.306,7.981-11.746,13.447"/>
	
		<path display="inline" fill="none" stroke="#B3B3B3" stroke-width="1.07" stroke-linecap="round" stroke-linejoin="round" stroke-miterlimit="10" d="
		M19.633,75.044c2.936-4.093,6.36-7.833,10.181-11.114"/>
	
		<path display="inline" fill="none" stroke="#B3B3B3" stroke-width="1.07" stroke-linecap="round" stroke-linejoin="round" stroke-miterlimit="10" d="
		M29.188,69.403c-1.76,1.888-3.444,3.843-5.051,5.862"/>
</g>
<g id="Video" display="none">
	<path display="inline" fill="none" stroke="#B3B3B3" stroke-miterlimit="10" d="M80.475,90.887h-1.822h-0.63
		c-1.175-0.006-2.345-0.011-3.515-0.015c-0.389-0.001-0.777-0.003-1.166-0.004c-5.908-0.06-11.561-0.077-17.438-0.07
		c-0.367,0-0.735,0.001-1.104,0c-3.638-0.008-7.24-0.011-10.765-0.005c-0.705,0.001-1.405,0.003-2.104,0.005
		c-2.746-0.004-3.125-0.219-6.067-0.431c-0.368-0.027-1.882,0.289-3.622-0.071c-2.021,0.216-4.029-0.448-7.956,0.36
		c-0.333,0.061-1.698-0.077-2.03-0.016c-1.662,0.311-2.541,0.64-3.904,0.016c-0.293,0.045-1.34-0.064-1.631-0.006
		s-0.58,0.122-0.869,0.19c-0.391,0.014-0.76,0.015-1.129,0.017c-2.578,0.008-5.166,0.018-7.766,0.029H6.744v-0.708
		c0-0.232,0-0.52-0.003-0.85C6.943,60.214,5.032,31.555,6.943,2.894c0,0,0.479,0,1.089-0.041C24.174,1.178,43.1,2.127,59.467,2.755
		c0.381,0.017,0.762,0.031,1.143,0.056c1.884-0.244,1.289,1.178,3.051,2.262c0.294,0.181,0.578,0.364,0.852,0.543
		c1.31,1.028,2.441,2.019,3.535,3.08c0.219,0.212,0.436,0.427,0.651,0.645c0.676,0.933,1.407,1.757,2.16,2.522
		c0.252,0.256,0.507,0.506,0.76,0.757c1.244,2.694,4.11,4.604,6.956,6.772c0.293,0.292,0.559,0.557,0.791,0.79
		c0.7,0.697,1.109,1.106,1.109,1.106v4.009v1.147c0.031,3.199,0.031,7.02,0.011,9.619c0.006,0.359,0.009,0.712,0.009,1.061
		c0.008,2.797,0.001,5.521-0.02,8.595v0.906v2.544v0.856c-0.924,12.1-0.924,25.475,0,37.479v0.762V90.887z"/>
	<path display="inline" fill="none" stroke="#B3B3B3" stroke-miterlimit="10" d="M81.086,21.669h-1.927
		c-0.297,0-0.62-0.001-0.967-0.009c-2.464-0.615-5.33,0.34-8.651,0.235c-0.343,0.013-0.683,0.019-1.023,0.021
		c-1.7,0.001-3.446-0.082-5.504-0.248c-0.301,0.001-0.562,0.001-0.776,0.001h-0.67v-1.168v-0.832
		c0.315-1.36-0.008-2.232,0.056-3.545c0.016-0.328,0.024-0.658,0.028-0.998c-0.106-2.507,0.149-5.216-0.259-7.372
		c-0.059-0.308-0.102-0.607-0.121-0.896c0.127-1.099,0.127-3.01,0.316-4.411"/>
	<path display="inline" fill="none" stroke="#B3B3B3" stroke-miterlimit="10" d="M17.452,15.865h-0.948c-0.283,0-0.615,0-0.971,0
		c-0.947,0.404-1.902,0.404-3.198-0.001c-0.571,0.001-0.95,0.001-0.95,0.001s0.002-0.345,0.006-0.894
		c0.33-1.568,0.33-4.435-0.008-6.813c0.002-0.556,0.002-0.901,0.002-0.901s0.379,0,0.946,0.002c1.3,0.413,3.21,0.413,4.173-0.002
		h0.948c0,0,0,0.344-0.001,0.895c0.001,2.386,0.001,5.252,0.001,6.819V15.865z"/>
	<path display="inline" fill="none" stroke="#B3B3B3" stroke-miterlimit="10" d="M17.452,29.964c-1.911-0.32-4.776,0.635-5.731-0.32
		c-0.955-1.911,0-4.777-0.336-7.393v-0.896h6.067v0.896v0.958c0,1.657,0,3.568,0,5.847V29.964z"/>
	<path display="inline" fill="none" stroke="#B3B3B3" stroke-miterlimit="10" d="M17.452,44.065c0,0-0.379,0-0.947,0.004
		c-1.919-0.095-3.829,0.86-4.784-0.095c-0.955-1.911,0-4.777-0.334-7.62c-0.002-0.554-0.002-0.897-0.002-0.897h0.948
		c0.567,0,1.327,0,2.085,0c0.76,0,1.518,0,2.086,0h0.948v0.895c0,1.891,0,4.757,0.001,6.824
		C17.452,43.721,17.452,44.065,17.452,44.065z"/>
	<path display="inline" fill="none" stroke="#B3B3B3" stroke-miterlimit="10" d="M17.452,58.166h-0.948c-0.568,0-1.326,0-2.086,0
		c-0.758-0.001-1.518,0-2.085,0h-0.948v-0.898c0.336-1.829,0.336-4.695,0-6.822v-0.889c0,0,0.379,0,0.948-0.002
		c1.298,0.152,3.208,0.152,4.171,0.001c0.569,0.001,0.948,0.001,0.948,0.001v0.891c0,2.125,0,4.991,0,6.823V58.166z"/>
	<path display="inline" fill="none" stroke="#B3B3B3" stroke-miterlimit="10" d="M17.452,72.265c0,0-0.379,0-0.948,0.002
		c-1.918,0.367-3.828,1.323-4.783,0.367c-0.955-1.91,0-4.776-0.336-8.078v-0.9h0.948c0.567,0,1.327,0.001,2.085,0
		c0.76,0,1.518,0,2.086,0h0.948v0.896c0,2.351,0,5.217,0,6.822V72.265z"/>
	<path display="inline" fill="none" stroke="#B3B3B3" stroke-miterlimit="10" d="M17.452,86.365h-1.92c-0.354,0-0.735,0-1.114,0
		c-0.787-0.355-0.787-0.355-2.085,0h-0.948c0,0,0-0.344-0.002-0.897c0.338-3.279-0.617-6.146,0.338-8.056
		c0.955-0.955,2.865,0,4.782,0.344c0.57,0.001,0.949,0.001,0.949,0.001s0,0.344-0.001,0.893c0.001,1.628,0.001,4.494,0.001,6.821
		V86.365z"/>
	<path display="inline" fill="none" stroke="#B3B3B3" stroke-miterlimit="10" d="M75.961,29.97c-2.144-0.327-5.01,0.629-5.965-0.327
		c-0.955-1.91,0-4.776-0.091-6.443v-0.908v-0.345h1.921h1.113h1.114h0.971h0.948v0.345c0,0.219-0.001,0.531-0.008,0.908
		c-0.236,1.667-0.236,4.533-0.014,6.434C75.957,29.847,75.961,29.97,75.961,29.97z"/>
	<path display="inline" fill="none" stroke="#B3B3B3" stroke-miterlimit="10" d="M75.973,44.065h-6.066V43.17
		c0.09-3.019-0.865-5.885,0.09-7.794c0.955-0.956,4.777-0.956,5.732,0c0.955,1.909,0,4.775,0.244,7.794V44.065z"/>
	<path display="inline" fill="none" stroke="#B3B3B3" stroke-miterlimit="10" d="M75.973,58.043
		c-2.154,0.261-5.021,1.216-5.977,0.261s0-3.822-0.09-5.718v-1.171v-1.859h6.066v0.896v0.963c-0.244,2.112-0.244,4.023,0,5.658
		V58.043z"/>
	<path display="inline" fill="none" stroke="#B3B3B3" stroke-miterlimit="10" d="M75.973,72.265
		c-2.154,0.369-5.021,1.325-5.977,0.369c-0.955-1.91,0-4.777-0.09-8.083v-0.896h6.066v0.896v0.966c-0.244,2.34-0.244,4.251,0,5.865
		V72.265z"/>
	<path display="inline" fill="none" stroke="#B3B3B3" stroke-miterlimit="10" d="M75.973,86.365h-6.066V85.47v-0.962
		c0.09-2.32-0.865-5.187,0.09-7.097c0.955-0.955,4.777-0.955,5.732,0c0.955,1.91,0,4.776,0.244,7.097v0.962V86.365z"/>
	<path display="inline" fill="none" stroke="#B3B3B3" stroke-miterlimit="10" d="M64.896,21.234
		c0.323,3.633,1.278,6.499,0.323,10.32c0,0-1.911,0-2.942-0.1c-0.332,0-0.693,0-1.08,0c-0.33,0-0.678-0.001-1.029-0.006
		c-12.145-1.805-24.564,2.017-37.035-1.061c0-0.226,0-0.485,0-0.771c0.002-0.357,0.004-0.716,0.006-1.077
		c0.002-0.36,0.004-0.722,0.006-1.086c-0.367-2.187-0.127-4.419,0.17-6.677c0.041-0.323,0.084-0.646,0.117-0.967
		c-0.248-2.586-0.248-6.408,0.014-9.104c-0.053-0.348-0.119-0.688-0.182-1.023c-0.324-1.681-0.57-3.259-0.105-4.504
		c-0.002-0.275-0.002-0.553-0.004-0.83c-0.002-0.557-0.004-1.109-0.006-1.659"/>
	<path display="inline" fill="none" stroke="#B3B3B3" stroke-miterlimit="10" d="M64.931,84.806h-4.778h-1.14
		c-10.989,2.159-23.409-0.707-34.569,0c-0.432,0-0.757,0-0.976,0h-0.335v-2.671v-0.9c1.007-15.288,0.051-29.618,0.051-44.904
		c0.637,0,1.699,0,2.577,0.079c0.438,0.039,0.838,0.1,1.12,0.188c9.678-0.267,20.188-1.222,29.533-0.002c0.197,0,0.395,0,0.59,0
		h7.927v4.581c0,0.354,0,0.721,0.001,1.086c0.288,13.176-1.623,26.551-0.014,39.812c0.007,0.317,0.01,0.591,0.013,0.845V84.806z"/>
</g>
<g id="Pdf" display="none">
	<path display="inline" fill="none" stroke="#B3B3B3" stroke-miterlimit="10" d="M78.846,94.41h-2.134c-0.228,0-0.472,0-0.728,0
		c-0.806,0.065-1.609,0.123-2.412,0.174c-0.402,0.025-0.803,0.05-1.205,0.072c-6.416-0.553-11.381-0.553-17.834,0.194
		c-0.401-0.009-0.795-0.019-1.187-0.028c-12.974-0.338-25.819-1.236-39.085-0.412h-1.161h-0.973V2.569h2.868c0.3,0,0.622,0,0.957,0
		c14.244-0.831,28.15,1.156,42.044,0.001c0.431-0.001,0.761-0.001,0.985-0.001h0.342c0,0,0.848,0.846,2.188,2.185
		c0.267,0.271,0.554,0.561,0.861,0.881c4.571,3.055,8.544,7.028,11.946,11.902c0.172,0.175,0.345,0.346,0.513,0.514
		c2.353,2.349,4.013,4.006,4.013,4.006v2.725v0.791c0.001,1.103,0.002,2.206,0.003,3.309c0.001,0.367,0.002,0.734-0.004,1.111
		c-0.627,6.736,0.381,13.657,0.652,20.549c0.015,0.383,0.026,0.767,0.034,1.154c-1.314,6.838-0.967,13.865-0.771,20.991
		c0.009,0.378,0.015,0.757,0.021,1.158c0.082,5.358,0.082,10.325,0.062,15.208c0.002,0.275,0.002,0.546,0.002,0.807V94.41z"/>
	<path display="inline" fill="none" stroke="#B3B3B3" stroke-miterlimit="10" d="M78.846,22.197h-2.162c-0.332,0-0.693,0-1.08-0.001
		c-4.686-0.594-9.652,0.399-14.629,0.23c-0.285,0.057-0.6,0.094-0.893,0.119c-0.585,0.05-1.082,0.05-1.082,0.05
		c-0.993-4.966,0-10.925,0.221-15.644c-0.001-0.233-0.001-0.46-0.003-0.68V2.569"/>
	<path display="inline" fill="#B3B3B3" d="M10.126,96.433H5.17v-0.694V94.91c-0.794-6.766-0.794-13.718-0.292-20.562
		c-0.003-0.401-0.005-0.803-0.006-1.204c-0.008-2.008-0.011-4.015-0.009-6.019c0-0.401,0-0.803,0.001-1.203
		c0.505-4.594,0.505-8.565,0.069-13.213c0.001-0.405,0.003-0.807,0.007-1.207C5.068,36.285,5.316,21.063,5.362,5.627
		c0.001-0.406,0-0.814-0.011-1.226c0.018-0.676,0.018-2.663,0.018-3.656c0.993-0.993,3.973-0.993,4.966,0
		c0.993,0.993,0,2.98-0.186,5.02c0.003,0.392,0.005,0.785,0.008,1.177c0.102,16.498,0.142,33.13,0.12,49.759
		c0,0.396-0.001,0.793-0.002,1.188c0.06,1.452,0.06,3.438-0.008,4.75c-0.001,0.396-0.002,0.792-0.003,1.188
		c-0.009,3.957-0.022,7.916-0.039,11.869c-0.001,0.402-0.003,0.805-0.005,1.205c0.115,5.283,0.115,9.256-0.081,14.438
		c-0.001,0.41-0.003,0.812-0.005,1.214c-0.003,0.401-0.005,0.801-0.008,1.202v1.143V96.433z"/>
	<path display="inline" fill="#B3B3B3" d="M18.171,12.407c-0.884,0.256-1.877,0.256-3.079,0.01c-0.221,0-0.449,0-0.681,0
		c-3.083,0.246-4.076,1.239-6.062,0.246c-0.993-0.993-0.993-3.973,0-4.966c1.49-1.49,1.552-0.745,3.783-0.442
		c0.372,0.05,0.749,0.088,1.13,0.102c2.039,0.34,4.025-0.653,5.019,0.34c0,0.993,0,2.98-0.12,4.326
		C18.167,12.263,18.171,12.407,18.171,12.407"/>
	<path display="inline" fill="none" stroke="#B3B3B3" stroke-miterlimit="10" d="M20.906,9.842c0.354,2.821-4.612,3.815-5.605,0.835
		c0-3.973,3.973-3.973,5.493-1.554C20.862,9.352,20.901,9.593,20.906,9.842z"/>
	<path display="inline" fill="#B3B3B3" d="M18.181,23.542c-2.88,0.045-4.867,0.045-7.435-0.185
		c-0.241-0.001,1.507-0.001,1.275-0.002H8.25V18.25h4.715c0.247,0,0.492,0.001,0.733,0.001c1.603,0.371,3.589-0.622,4.582,0.371
		c0.993,0.994,0,2.98-0.099,4.548V23.542z"/>
	<path display="inline" fill="none" stroke="#B3B3B3" stroke-miterlimit="10" d="M20.962,20.803
		c0.298,2.785-4.668,3.779-5.661,0.799c0-1.986,1.986-2.979,2.98-3.48c0.246,0,0.485,0.033,0.712,0.095
		c0.908,0.25,1.623,0.965,1.873,1.873C20.929,20.316,20.962,20.556,20.962,20.803z"/>
	<path display="inline" fill="#B3B3B3" d="M18.153,34.208c-2.852,0.305-4.839,0.305-7.407,0.084
		c-0.241,0.001,1.507,0.001,1.275,0.002H8.25v-5.106h3.229c0.247,0,0.495,0,0.743,0c2.086,0.358,4.072-0.635,6.058,0.358
		c0,0.994,0,2.98-0.13,4.274C18.152,34.062,18.153,34.208,18.153,34.208"/>
	<path display="inline" fill="none" stroke="#B3B3B3" stroke-miterlimit="10" d="M20.962,31.742c0,0.247-0.033,0.486-0.096,0.713
		c-0.062,0.227-0.154,0.442-0.27,0.64c-2.315,3.405-4.302,0.424-5.295-0.568c-0.993-1.986,1.986-2.979,3.692-3.371
		c0.227,0.063,0.442,0.154,0.641,0.271C20.428,29.892,20.962,30.754,20.962,31.742z"/>
	<path display="inline" fill="#B3B3B3" d="M18.152,45.203c-2.851,0.234-4.837,0.234-7.407,0.031h0.595H8.25v-5.106h2.496
		c0.482,0,0.978,0,1.473-0.003c2.089,0.348,4.075-0.646,6.061,0.348c0,0.993,0,2.979-0.133,4.346
		C18.15,45.058,18.152,45.203,18.152,45.203"/>
	<path display="inline" fill="none" stroke="#B3B3B3" stroke-miterlimit="10" d="M20.962,42.68c0,0.247-0.033,0.486-0.096,0.713
		c-0.062,0.228-0.154,0.442-0.271,0.64c-2.314,3.392-4.301,0.412-5.294-0.582c-0.993-1.985,1.986-2.979,4.332-3.086
		c0.199,0.117,0.382,0.258,0.544,0.42C20.662,41.269,20.962,41.941,20.962,42.68z"/>
	<path display="inline" fill="#B3B3B3" d="M18.243,56.171c-1.949,0.191-4.928,0.191-7.074,0.121
		c-0.35-0.008,1.289-0.018,0.945-0.029c-0.688-0.021-1.358-0.053-1.998-0.091H9.132H8.25v-5.106h0.883
		c0.697,0.055,1.388,0.073,2.07,0.07c0.341-0.001,0.679-0.008,1.015-0.018c3.083,0.278,4.076-0.715,6.063,0.278
		c0,0.993,0,2.979-0.019,4.396C18.25,56.029,18.243,56.171,18.243,56.171"/>
	<path display="inline" fill="none" stroke="#B3B3B3" stroke-miterlimit="10" d="M20.962,53.619c0,0.494-0.133,0.957-0.366,1.354
		c-0.116,0.199-0.258,0.381-0.419,0.543c-0.226,0.212-0.457,0.371-0.693,0.49c-3.19,0.357-3.19-1.629-3.19-3.615
		c0.993-1.986,3.053-1.486,3.973-0.994c0,0,0.353,0.475,0.506,0.764c0.116,0.199,0.141,0.537,0.203,0.765
		C21.039,53.15,20.962,53.373,20.962,53.619z"/>
	<path display="inline" fill="#B3B3B3" d="M17.578,67.08c-2.277,0.208-4.263,0.208-6.102,0.031h-0.73H8.25v-5.105h3.771h-1.275
		c1.575,0.316,4.555,0.316,6.541,0.316c-1.986,0.993-0.993,2.979,0.082,4.368C17.501,66.933,17.578,67.08,17.578,67.08"/>
	<path display="inline" fill="none" stroke="#B3B3B3" stroke-miterlimit="10" d="M20.755,64.556
		c-0.489,0.744-0.489,1.738-1.482,2.731c-1.986,0.993-3.972,0-4.966-0.993c0-0.994-0.993-3.973,0.994-3.973
		c1.986,0,4.965-1.986,5.34,1.521C20.712,64.071,20.751,64.31,20.755,64.556z"/>
	<path display="inline" fill="#B3B3B3" d="M17.954,78.121c-0.667,0.092-2.653,0.092-3.547-0.068
		c-0.23-0.001-0.468-0.002-0.709-0.002H8.25v-5.105h4.716c0.246,0,0.49,0,0.731,0c1.604,0.301,2.597,0.301,4.583,0.301
		c-1.986,1.988-1.986,2.98-0.393,4.519C17.929,77.988,17.954,78.121,17.954,78.121"/>
	<path display="inline" fill="none" stroke="#B3B3B3" stroke-miterlimit="10" d="M20.611,75.609
		c-0.345,0.617-0.345,1.609-1.338,2.604c-1.986,0.993-2.979,0-3.972-0.994c0-0.992-0.994-3.972,0.993-3.972
		c0.993,0,3.972-1.987,4.201,1.656C20.562,75.128,20.603,75.365,20.611,75.609z"/>
	<path display="inline" fill="#B3B3B3" d="M18.313,88.965c-2.019,0.173-4.006,0.173-6.076,0.017
		c-0.252,0.002-0.503,0.004-0.758,0.008H8.25v-5.107h3.229c0.254-0.003,0.506-0.005,0.759-0.006
		c2.069,0.295,4.056-0.697,6.042,0.295c0,0.993,0,2.979,0.071,4.409C18.328,88.822,18.313,88.965,18.313,88.965"/>
	<path display="inline" fill="none" stroke="#B3B3B3" stroke-miterlimit="10" d="M20.969,86.435
		c-0.703,2.701-2.689,4.688-4.675,1.709v-3.973c1.986,0,3.972-0.994,4.581,1.551C20.937,85.95,20.969,86.189,20.969,86.435z"/>
	<rect x="54.918" y="43.417" display="inline" fill="#7270B1" width="45.834" height="21.333"/>
</g>
<g id="Text" display="none">
	<path display="inline" fill="none" stroke="#B3B3B3" stroke-width="0.966" stroke-miterlimit="10" d="M72.236,91.962H70.16
		c-0.222,0-0.46,0-0.708,0c-0.784,0.062-1.566,0.118-2.348,0.169c-0.391,0.024-0.781,0.048-1.172,0.069
		c-6.242-0.538-11.075-0.538-17.354,0.189c-0.391-0.009-0.772-0.019-1.155-0.028C34.8,92.033,22.3,91.159,9.391,91.962h-1.13H7.315
		V2.594h2.79c0.293,0,0.605,0,0.932,0c13.861-0.809,27.392,1.124,40.911,0.001c0.42-0.001,0.741-0.001,0.959-0.001h0.333
		c0,0,0.825,0.823,2.13,2.127c0.26,0.263,0.539,0.545,0.837,0.855c4.449,2.975,8.315,6.84,11.624,11.582
		c0.169,0.17,0.336,0.337,0.5,0.5c2.289,2.285,3.905,3.899,3.905,3.899v2.651v0.77c0.001,1.073,0.002,2.146,0.003,3.22
		c0.001,0.357,0.002,0.714-0.004,1.081c-0.61,6.555,0.371,13.289,0.634,19.995c0.015,0.373,0.027,0.747,0.034,1.123
		c-1.28,6.655-0.939,13.493-0.75,20.427c0.008,0.367,0.015,0.737,0.021,1.126c0.078,5.217,0.078,10.048,0.06,14.8
		c0.002,0.269,0.002,0.53,0.002,0.783V91.962z"/>
	<path display="inline" fill="none" stroke="#B3B3B3" stroke-width="0.966" stroke-miterlimit="10" d="M72.236,21.694h-2.104
		c-0.322,0-0.675,0-1.051-0.001c-4.559-0.578-9.391,0.388-14.234,0.224c-0.278,0.055-0.584,0.092-0.869,0.116
		c-0.569,0.048-1.053,0.048-1.053,0.048c-0.967-4.832,0-10.631,0.215-15.223c0-0.228-0.002-0.447-0.002-0.661V2.594"/>
	
		<path display="inline" fill="none" stroke="#B3B3B3" stroke-width="0.966" stroke-linecap="round" stroke-linejoin="round" stroke-miterlimit="10" d="
		M18.682,27.761c4.214,0.587,8.769-0.201,13.108,0.12c1.906,0.14,4.07,0.466,5.607-0.089"/>
	
		<path display="inline" fill="none" stroke="#B3B3B3" stroke-width="0.966" stroke-linecap="round" stroke-linejoin="round" stroke-miterlimit="10" d="
		M40.397,28.04c2.623-0.309,5.359-0.402,8.05-0.272"/>
	
		<path display="inline" fill="none" stroke="#B3B3B3" stroke-width="0.966" stroke-linecap="round" stroke-linejoin="round" stroke-miterlimit="10" d="
		M50.371,27.714c1.034,0.134,2.156,0.107,3.159-0.073"/>
	
		<path display="inline" fill="none" stroke="#B3B3B3" stroke-width="0.966" stroke-linecap="round" stroke-linejoin="round" stroke-miterlimit="10" d="
		M19.047,30.584c0.23,0.5,1.672,0.595,2.706,0.455c1.035-0.139,2.133-0.396,3.127-0.201"/>
	
		<path display="inline" fill="none" stroke="#B3B3B3" stroke-width="0.966" stroke-linecap="round" stroke-linejoin="round" stroke-miterlimit="10" d="
		M26.964,30.958c6.071,0.069,12.15-0.016,18.203-0.253"/>
	
		<path display="inline" fill="none" stroke="#B3B3B3" stroke-width="0.966" stroke-linecap="round" stroke-linejoin="round" stroke-miterlimit="10" d="
		M48.056,30.716c1.823,0.039,3.647,0.077,5.473,0.116"/>
	
		<path display="inline" fill="none" stroke="#B3B3B3" stroke-width="0.966" stroke-linecap="round" stroke-linejoin="round" stroke-miterlimit="10" d="
		M55.914,30.75c1.74,0.156,3.539,0.158,5.28,0.007c1.904-0.165,3.917-0.507,5.703-0.151"/>
	
		<path display="inline" fill="none" stroke="#B3B3B3" stroke-width="0.966" stroke-linecap="round" stroke-linejoin="round" stroke-miterlimit="10" d="
		M18.756,34.125c2.188-0.011,4.377-0.021,6.565-0.031c0.641-0.003,1.303-0.005,1.893,0.115c0.223,0.044,0.445,0.106,0.684,0.096
		c0.304-0.014,0.523-0.139,0.791-0.209c0.565-0.147,1.258-0.032,1.869,0.066c0.61,0.098,1.364,0.163,1.834-0.048"/>
	
		<path display="inline" fill="none" stroke="#B3B3B3" stroke-width="0.966" stroke-linecap="round" stroke-linejoin="round" stroke-miterlimit="10" d="
		M35.335,34.301c1.741,0.006,3.483,0.001,5.226-0.015c2.502-0.021,5.003-0.062,7.504-0.105c0.539-0.009,1.077-0.019,1.614-0.027"/>
	
		<path display="inline" fill="none" stroke="#B3B3B3" stroke-width="0.966" stroke-linecap="round" stroke-linejoin="round" stroke-miterlimit="10" d="
		M51.937,34.045c2.254-0.023,4.508-0.048,6.76-0.071"/>
	
		<path display="inline" fill="none" stroke="#B3B3B3" stroke-width="0.966" stroke-linecap="round" stroke-linejoin="round" stroke-miterlimit="10" d="
		M60.796,33.927c1.973-0.092,3.959-0.122,5.94-0.092c0.065,0.063,0.13,0.127,0.194,0.189"/>
	
		<path display="inline" fill="none" stroke="#B3B3B3" stroke-width="0.966" stroke-linecap="round" stroke-linejoin="round" stroke-miterlimit="10" d="
		M54.938,27.924c2.325,0.038,4.651,0.073,6.978,0.104c1.081,0.014,2.205,0.022,3.192-0.189c0.274-0.059,0.59-0.135,0.858-0.068
		c0.282,0.069,0.562,0.281,0.785,0.174"/>
	
		<path display="inline" fill="none" stroke="#B3B3B3" stroke-width="0.966" stroke-linecap="round" stroke-linejoin="round" stroke-miterlimit="10" d="
		M12.565,37.401c4.749,0.587,9.881-0.201,14.77,0.12c2.149,0.14,4.586,0.466,6.318-0.09"/>
	
		<path display="inline" fill="none" stroke="#B3B3B3" stroke-width="0.966" stroke-linecap="round" stroke-linejoin="round" stroke-miterlimit="10" d="
		M37.034,37.679c2.957-0.31,6.039-0.402,9.069-0.273"/>
	
		<path display="inline" fill="none" stroke="#B3B3B3" stroke-width="0.966" stroke-linecap="round" stroke-linejoin="round" stroke-miterlimit="10" d="
		M48.272,37.353c1.164,0.133,2.43,0.108,3.559-0.073"/>
	
		<path display="inline" fill="none" stroke="#B3B3B3" stroke-width="0.966" stroke-linecap="round" stroke-linejoin="round" stroke-miterlimit="10" d="
		M12.977,40.224c0.26,0.5,1.884,0.594,3.049,0.455c1.166-0.139,2.402-0.397,3.522-0.202"/>
	
		<path display="inline" fill="none" stroke="#B3B3B3" stroke-width="0.966" stroke-linecap="round" stroke-linejoin="round" stroke-miterlimit="10" d="
		M21.897,40.598c6.842,0.068,13.69-0.017,20.51-0.253"/>
	
		<path display="inline" fill="none" stroke="#B3B3B3" stroke-width="0.966" stroke-linecap="round" stroke-linejoin="round" stroke-miterlimit="10" d="
		M45.662,40.356c2.056,0.039,4.111,0.077,6.166,0.116"/>
	
		<path display="inline" fill="none" stroke="#B3B3B3" stroke-width="0.966" stroke-linecap="round" stroke-linejoin="round" stroke-miterlimit="10" d="
		M54.518,40.389c1.96,0.156,3.987,0.158,5.95,0.008c2.145-0.165,4.413-0.508,6.426-0.151"/>
	
		<path display="inline" fill="none" stroke="#B3B3B3" stroke-width="0.966" stroke-linecap="round" stroke-linejoin="round" stroke-miterlimit="10" d="
		M12.649,43.764c2.466-0.01,4.932-0.021,7.398-0.031c0.722-0.003,1.468-0.005,2.132,0.115c0.25,0.044,0.502,0.107,0.771,0.096
		c0.342-0.014,0.59-0.139,0.891-0.209c0.637-0.146,1.418-0.031,2.106,0.066s1.536,0.164,2.065-0.047"/>
	
		<path display="inline" fill="none" stroke="#B3B3B3" stroke-width="0.966" stroke-linecap="round" stroke-linejoin="round" stroke-miterlimit="10" d="
		M31.329,43.94c1.963,0.006,3.926,0.001,5.888-0.014c2.82-0.021,5.638-0.063,8.456-0.106c0.607-0.009,1.213-0.018,1.82-0.026"/>
	
		<path display="inline" fill="none" stroke="#B3B3B3" stroke-width="0.966" stroke-linecap="round" stroke-linejoin="round" stroke-miterlimit="10" d="
		M50.036,43.685c2.539-0.024,5.078-0.049,7.617-0.071"/>
	
		<path display="inline" fill="none" stroke="#B3B3B3" stroke-width="0.966" stroke-linecap="round" stroke-linejoin="round" stroke-miterlimit="10" d="
		M60.018,43.566c2.224-0.092,4.461-0.122,6.694-0.092c0.072,0.064,0.146,0.127,0.219,0.19"/>
	
		<path display="inline" fill="none" stroke="#B3B3B3" stroke-width="0.966" stroke-linecap="round" stroke-linejoin="round" stroke-miterlimit="10" d="
		M53.417,37.564c2.62,0.038,5.24,0.072,7.861,0.103c1.22,0.014,2.486,0.023,3.598-0.188c0.309-0.06,0.665-0.136,0.967-0.069
		c0.319,0.07,0.633,0.282,0.885,0.174"/>
	
		<path display="inline" fill="none" stroke="#B3B3B3" stroke-width="0.966" stroke-linecap="round" stroke-linejoin="round" stroke-miterlimit="10" d="
		M12.565,52.321c4.749,0.588,9.881-0.2,14.77,0.119c2.149,0.142,4.586,0.467,6.318-0.088"/>
	
		<path display="inline" fill="none" stroke="#B3B3B3" stroke-width="0.966" stroke-linecap="round" stroke-linejoin="round" stroke-miterlimit="10" d="
		M37.034,52.599c2.957-0.309,6.039-0.401,9.069-0.272"/>
	
		<path display="inline" fill="none" stroke="#B3B3B3" stroke-width="0.966" stroke-linecap="round" stroke-linejoin="round" stroke-miterlimit="10" d="
		M48.272,52.274c1.164,0.133,2.43,0.107,3.559-0.073"/>
	
		<path display="inline" fill="none" stroke="#B3B3B3" stroke-width="0.966" stroke-linecap="round" stroke-linejoin="round" stroke-miterlimit="10" d="
		M12.977,55.145c0.26,0.5,1.884,0.594,3.049,0.455c1.166-0.14,2.402-0.397,3.522-0.202"/>
	
		<path display="inline" fill="none" stroke="#B3B3B3" stroke-width="0.966" stroke-linecap="round" stroke-linejoin="round" stroke-miterlimit="10" d="
		M21.897,55.518c6.842,0.069,13.69-0.016,20.51-0.253"/>
	
		<path display="inline" fill="none" stroke="#B3B3B3" stroke-width="0.966" stroke-linecap="round" stroke-linejoin="round" stroke-miterlimit="10" d="
		M45.662,55.277c2.056,0.038,4.111,0.076,6.166,0.115"/>
	
		<path display="inline" fill="none" stroke="#B3B3B3" stroke-width="0.966" stroke-linecap="round" stroke-linejoin="round" stroke-miterlimit="10" d="
		M54.518,55.31c1.96,0.156,3.987,0.158,5.95,0.007c2.145-0.165,4.413-0.507,6.426-0.15"/>
	
		<path display="inline" fill="none" stroke="#B3B3B3" stroke-width="0.966" stroke-linecap="round" stroke-linejoin="round" stroke-miterlimit="10" d="
		M12.649,58.685c2.466-0.01,4.932-0.021,7.398-0.031c0.722-0.003,1.468-0.005,2.132,0.115c0.25,0.044,0.502,0.107,0.771,0.096
		c0.342-0.014,0.59-0.139,0.891-0.209c0.637-0.146,1.418-0.032,2.106,0.066c0.688,0.098,1.536,0.164,2.065-0.047"/>
	
		<path display="inline" fill="none" stroke="#B3B3B3" stroke-width="0.966" stroke-linecap="round" stroke-linejoin="round" stroke-miterlimit="10" d="
		M31.329,58.861c1.963,0.006,3.926,0.001,5.888-0.014c2.82-0.021,5.638-0.063,8.456-0.106c0.607-0.009,1.213-0.018,1.82-0.026"/>
	
		<path display="inline" fill="none" stroke="#B3B3B3" stroke-width="0.966" stroke-linecap="round" stroke-linejoin="round" stroke-miterlimit="10" d="
		M50.036,58.605c2.539-0.023,5.078-0.048,7.617-0.07"/>
	
		<path display="inline" fill="none" stroke="#B3B3B3" stroke-width="0.966" stroke-linecap="round" stroke-linejoin="round" stroke-miterlimit="10" d="
		M60.018,58.487c2.224-0.092,4.461-0.122,6.694-0.092c0.072,0.063,0.146,0.127,0.219,0.189"/>
	
		<path display="inline" fill="none" stroke="#B3B3B3" stroke-width="0.966" stroke-linecap="round" stroke-linejoin="round" stroke-miterlimit="10" d="
		M53.417,52.485c2.62,0.037,5.24,0.072,7.861,0.103c1.22,0.014,2.486,0.023,3.598-0.189c0.309-0.059,0.665-0.135,0.967-0.068
		c0.319,0.07,0.633,0.282,0.885,0.174"/>
	
		<path display="inline" fill="none" stroke="#B3B3B3" stroke-width="0.966" stroke-linecap="round" stroke-linejoin="round" stroke-miterlimit="10" d="
		M66.931,73.564c-4.749-0.587-9.881,0.201-14.77-0.118c-2.149-0.142-4.586-0.468-6.318,0.088"/>
	
		<path display="inline" fill="none" stroke="#B3B3B3" stroke-width="0.966" stroke-linecap="round" stroke-linejoin="round" stroke-miterlimit="10" d="
		M42.463,73.286c-2.957,0.31-6.04,0.402-9.07,0.273"/>
	
		<path display="inline" fill="none" stroke="#B3B3B3" stroke-width="0.966" stroke-linecap="round" stroke-linejoin="round" stroke-miterlimit="10" d="
		M31.224,73.612c-1.164-0.133-2.43-0.108-3.559,0.073"/>
	
		<path display="inline" fill="none" stroke="#B3B3B3" stroke-width="0.966" stroke-linecap="round" stroke-linejoin="round" stroke-miterlimit="10" d="
		M66.519,70.741c-0.26-0.5-1.884-0.594-3.049-0.455c-1.166,0.139-2.402,0.397-3.521,0.202"/>
	
		<path display="inline" fill="none" stroke="#B3B3B3" stroke-width="0.966" stroke-linecap="round" stroke-linejoin="round" stroke-miterlimit="10" d="
		M57.599,70.367c-6.842-0.068-13.69,0.017-20.51,0.254"/>
	
		<path display="inline" fill="none" stroke="#B3B3B3" stroke-width="0.966" stroke-linecap="round" stroke-linejoin="round" stroke-miterlimit="10" d="
		M33.834,70.609c-2.056-0.039-4.111-0.077-6.166-0.116"/>
	
		<path display="inline" fill="none" stroke="#B3B3B3" stroke-width="0.966" stroke-linecap="round" stroke-linejoin="round" stroke-miterlimit="10" d="
		M24.979,70.576c-1.96-0.156-3.987-0.158-5.95-0.008c-2.145,0.165-4.413,0.508-6.426,0.151"/>
	
		<path display="inline" fill="none" stroke="#B3B3B3" stroke-width="0.966" stroke-linecap="round" stroke-linejoin="round" stroke-miterlimit="10" d="
		M66.847,67.201c-2.465,0.01-4.932,0.021-7.397,0.031c-0.722,0.003-1.468,0.005-2.132-0.115c-0.25-0.044-0.501-0.107-0.771-0.096
		c-0.342,0.014-0.59,0.139-0.891,0.209c-0.637,0.146-1.418,0.031-2.105-0.066c-0.688-0.098-1.537-0.164-2.065,0.047"/>
	
		<path display="inline" fill="none" stroke="#B3B3B3" stroke-width="0.966" stroke-linecap="round" stroke-linejoin="round" stroke-miterlimit="10" d="
		M48.167,67.025c-1.963-0.006-3.926-0.001-5.888,0.014c-2.82,0.021-5.638,0.063-8.456,0.106c-0.607,0.009-1.213,0.018-1.82,0.026"/>
	
		<path display="inline" fill="none" stroke="#B3B3B3" stroke-width="0.966" stroke-linecap="round" stroke-linejoin="round" stroke-miterlimit="10" d="
		M29.46,67.28c-2.539,0.024-5.078,0.049-7.617,0.071"/>
	
		<path display="inline" fill="none" stroke="#B3B3B3" stroke-width="0.966" stroke-linecap="round" stroke-linejoin="round" stroke-miterlimit="10" d="
		M19.479,67.399c-2.224,0.092-4.461,0.122-6.694,0.092c-0.073-0.064-0.146-0.127-0.219-0.19"/>
	
		<path display="inline" fill="none" stroke="#B3B3B3" stroke-width="0.966" stroke-linecap="round" stroke-linejoin="round" stroke-miterlimit="10" d="
		M26.079,73.401c-2.619-0.038-5.24-0.072-7.862-0.103c-1.219-0.014-2.486-0.023-3.597,0.188c-0.309,0.06-0.665,0.136-0.967,0.069
		c-0.319-0.07-0.633-0.282-0.885-0.174"/>
	
		<path display="inline" fill="none" stroke="#B3B3B3" stroke-width="0.885" stroke-linecap="round" stroke-linejoin="round" stroke-miterlimit="10" d="
		M12.972,22.803c-0.037,0.068,0.144,0.137,0.261,0.098c1.439-0.954,2.242-2.154,2.246-3.358c-0.94,0.988-1.217,2.137-0.775,3.213
		c0.639,0.073,1.161-0.256,1.465-0.552c0.962-0.939,1.519-1.985,1.621-3.044c-0.19,1.107-0.313,2.216-0.369,3.326
		c-0.006,0.117,0.059,0.275,0.289,0.278c0.774-0.506,1.359-1.086,1.716-1.7c-0.085,0.466-0.169,0.933-0.253,1.398
		c0.157,0.09,0.398-0.06,0.447-0.178c0.333-0.796,0.665-1.591,0.997-2.387c0.625,0.949,0.187,1.985-0.256,2.962
		c1.678-0.942,2.748-2.161,3.006-3.426c-0.651,0.991-0.744,2.077-0.265,3.096c0.318,0.056,0.589-0.128,0.726-0.285
		c0.67-0.765,1.121-1.58,1.33-2.411c-0.176,0.936-0.181,1.88-0.01,2.816c0.684-0.4,1.369-0.8,2.055-1.201"/>
	
		<path display="inline" fill="none" stroke="#B3B3B3" stroke-width="0.885" stroke-linecap="round" stroke-linejoin="round" stroke-miterlimit="10" d="
		M27.873,20.447c0.216-0.179,0.406-0.364,0.566-0.558c-0.316,0.603-0.421,1.233-0.304,1.854c0.031,0.169,0.127,0.367,0.44,0.424
		c0.39,0.07,0.744-0.139,0.929-0.327c0.555-0.568,0.797-1.216,0.689-1.849c-0.023-0.136-0.102-0.298-0.354-0.34
		c-0.496,0.387-0.515,0.877-0.517,1.34c-0.002,0.621,0.09,1.343,1.082,1.702c0.485-0.04,0.778-0.29,0.979-0.521
		c0.804-0.912,1.264-1.902,1.35-2.902c-0.379,0.2-0.529,0.483-0.645,0.754c-0.293,0.69-0.445,1.396-0.455,2.101
		c-0.002,0.09,0.002,0.185,0.092,0.262c0.091,0.077,0.299,0.126,0.449,0.078c0.604-0.818,1.078-1.662,1.418-2.521
		c0.108,0.02,0.218,0.037,0.328,0.057"/>
	
		<path display="inline" fill="none" stroke="#B3B3B3" stroke-width="0.885" stroke-linecap="round" stroke-linejoin="round" stroke-miterlimit="10" d="
		M37.985,20.056c-0.111-0.057-0.224-0.114-0.336-0.171c-0.641,0.481-1.125,1.016-1.424,1.576c-0.223,0.416-0.317,0.902,0.205,1.241
		c0.416-0.021,0.69-0.227,0.883-0.416c0.947-0.926,1.441-1.972,1.424-3.016c-1.35,0.654-1.896,1.708-1.356,2.617
		c0.06,0.101,0.138,0.204,0.283,0.279c0.325,0.169,0.907,0.138,1.274-0.008s0.568-0.373,0.733-0.595
		c0.468-0.626,0.765-1.284,0.884-1.949c-0.471,0.741-0.617,1.537-0.425,2.312c0.032,0.128,0.078,0.262,0.231,0.364
		c0.156,0.103,0.453,0.161,0.672,0.096c0.148-0.045,0.224-0.131,0.289-0.213c0.765-0.966,1.281-1.982,1.529-3.016
		c0.176,1.153,0.349,2.322-0.039,3.464c1.541-0.737,2.402-1.83,2.291-2.906c-0.25,0.912-0.291,1.839-0.119,2.755
		c0.273-0.783,0.547-1.565,0.818-2.348c0.104-0.299,0.248-0.631,0.742-0.8c0.542,1.187-0.748,2.391-0.757,3.609
		c0.745-0.154,1.423-0.392,1.971-0.691"/>
	
		<path display="inline" fill="none" stroke="#B3B3B3" stroke-width="0.885" stroke-linecap="round" stroke-linejoin="round" stroke-miterlimit="10" d="
		M13.084,22.264c-0.205-0.094-0.317-0.314-0.389-0.527c-0.234-0.686-0.209-1.453,0.068-2.121c0.018,0.129,0.036,0.258,0.054,0.387
		c-0.057-0.561,0.539-1.085,1.088-0.957c0.558,0.778,0.614,1.885,0.137,2.714C13.845,22.104,13.446,22.429,13.084,22.264z"/>
	
		<path display="inline" fill="none" stroke="#B3B3B3" stroke-width="0.966" stroke-linecap="round" stroke-linejoin="round" stroke-miterlimit="10" d="
		M12.592,34.109c-0.004,0.174-0.007,0.349-0.011,0.522c-0.073-0.99,0.269-1.103,0.689-2.025c0.802-1.761,1.444-3.574,1.916-5.422
		c0.245,0.127,0.322,0.397,0.374,0.641c0.479,2.231,0.752,4.497,0.815,6.767c0.003,0.095,0.003,0.196-0.057,0.275
		c-0.061,0.08-0.206,0.117-0.281,0.047c-0.075-0.069,0.045-0.212,0.129-0.152"/>
	
		<path display="inline" fill="none" stroke="#B3B3B3" stroke-width="0.966" stroke-linecap="round" stroke-linejoin="round" stroke-miterlimit="10" d="
		M13.354,32.048c0.024-0.067,0.053-0.186,0.071-0.117c0.017,0.069-0.072,0.229-0.001,0.233c0.734,0.044,1.475-0.023,2.189-0.2
		c0.267-0.065,0.694-0.007,0.63,0.26"/>
	<rect x="54.905" y="43.432" display="inline" fill="#7270B1" width="45.834" height="21.333"/>
</g>
</svg>
