<?xml version="1.0" encoding="utf-8"?>
<!-- Generator: Adobe Illustrator 16.0.0, SVG Export Plug-In . SVG Version: 6.00 Build 0)  -->
<!DOCTYPE svg PUBLIC "-//W3C//DTD SVG 1.1//EN" "http://www.w3.org/Graphics/SVG/1.1/DTD/svg11.dtd">
<svg version="1.1" id="Calque_1" xmlns="http://www.w3.org/2000/svg" xmlns:xlink="http://www.w3.org/1999/xlink" x="0px" y="0px"
	 width="13.733px" height="8px" viewBox="0 0 13.733 8" enable-background="new 0 0 13.733 8" xml:space="preserve">
<path fill="#B2B2B2" d="M10.409,6.213C9.407,6.738,8.22,7.016,6.973,7.016C4.359,7.016,2.063,5.84,1.045,4
	c0.63-1.139,1.751-2.023,3.134-2.532C3.827,1.987,3.621,2.612,3.621,3.286c0,1.793,1.453,3.245,3.246,3.245
	c1.792,0,3.246-1.452,3.246-3.245c0-0.705-0.227-1.357-0.608-1.889c0.315,0.109,0.618,0.239,0.905,0.389
	C11.418,2.315,12.185,3.059,12.69,4C12.185,4.941,11.418,5.684,10.409,6.213 M13.685,3.783c-0.588-1.218-1.562-2.21-2.818-2.869
	C9.726,0.316,8.379,0,6.973,0C3.886,0,1.168,1.484,0.05,3.781L0,3.89v0.227l0.05,0.102C1.168,6.516,3.886,8,6.973,8
	c1.406,0,2.752-0.316,3.893-0.916c1.257-0.658,2.23-1.65,2.818-2.868l0.049-0.108V3.884L13.685,3.783z"/>
</svg>
